<svg xmlns="http://www.w3.org/2000/svg" width="547" height="363" viewBox="0 0 547 363" fill="none"><rect x="65" width="482" height="363" rx="26" fill="url(#ye5lsfwp6a)"></rect><path d="m263.786 148.119 13.917-113.773a5.364 5.364 0 0 1 5.321-4.702h171.788a5.366 5.366 0 0 1 5.121 3.766c.225.724.293 1.488.201 2.24l-13.923 113.754a5.364 5.364 0 0 1-5.322 4.708H269.101a5.364 5.364 0 0 1-5.109-3.758 5.351 5.351 0 0 1-.206-2.235z" fill="#D2D9D5"></path><path d="M437.67 148.493H273.218a3.343 3.343 0 0 1-2.5-1.124 3.343 3.343 0 0 1-.821-2.613l13.032-106.497a3.343 3.343 0 0 1 3.321-2.928h164.452a3.337 3.337 0 0 1 3.189 2.342c.14.45.183.926.125 1.395l-13.032 106.476a3.339 3.339 0 0 1-3.314 2.949z" fill="#fff"></path><path d="M423.964 39.516c7.656 0 12.998 6.197 11.929 13.84-1.068 7.644-8.166 13.848-15.801 13.848s-12.977-6.197-11.929-13.834c1.047-7.637 8.145-13.854 15.801-13.854z" fill="#6FE4A5"></path><path d="M366.863 53.22h13.712l1.919-13.697h.123c7.655 0 12.997 6.196 11.929 13.84-1.068 7.644-8.166 13.847-15.801 13.847-7.636 0-12.998-6.196-11.93-13.847a.382.382 0 0 0 .048-.142z" fill="url(#8paac3puxb)"></path><path d="m348.421 41.636-.123.89h-36.795l.122-.89h36.796zM347.795 46.114l-.123.89h-36.795l.122-.89h36.796zM347.169 50.591l-.123.89h-36.795l.122-.89h36.796zM346.543 55.069l-.123.89h-36.795l.123-.89h36.795zM345.917 59.553l-.123.884h-36.795l.123-.884h36.795zM345.291 64.03l-.123.89h-36.795l.123-.89h36.795zM432.798 77.925l-.13.89H395.88l.122-.89h36.796zM432.294 81.506l-.123.89h-36.795l.122-.89h36.796zM431.79 85.094l-.123.89h-36.795l.129-.89h36.789zM431.294 88.674l-.123.89h-36.795l.122-.89h36.796zM430.79 92.255l-.123.89h-36.795l.123-.89h36.795zM364.767 77.925l-.122.89h-17.217l.122-.89h17.217zM364.263 81.506l-.122.89h-17.217l.129-.89h17.21zM363.766 85.094l-.122.89h-17.217l.122-.89h17.217z" fill="#D2D9D6"></path><path d="m307.161 89.327 14.624-9.968 16.026 16.395h18.163l15.781 19.562h-78.163l6.254-44.742 7.315 18.753z" fill="#B8BDBA"></path><path d="m305.623 100.334 6.023-5.748 16.999 9.458h18.864l24.246 11.272h-78.163l3.607-25.792 8.424 10.81z" fill="#DFE1E0"></path><path d="m430.831 107.706-5.179 37.003h-.891l5.178-37.003h.892zM414.077 107.706l-5.172 37.003h-.891l5.172-37.003h.891z" fill="#D2D9D6"></path><path d="m397.329 107.706-5.179 37.003h-.884l5.171-37.003h.892z" fill="#B3C0EC"></path><path d="m380.582 107.706-5.179 37.003h-.891l5.178-37.003h.892z" fill="#D2D9D6"></path><path d="m431.96 109.302-.122.891h-53.856l.123-.891h53.855zM430.422 120.31l-.122.883h-53.856l.123-.883h53.855zM428.884 131.31l-.122.89h-53.856l.123-.89h53.855z" fill="#D2D9D6"></path><path d="m427.346 142.317-.129.883h-53.856l.13-.883h53.855z" fill="#B3C0EC"></path><path d="M342.466 131.758a6.335 6.335 0 0 0 3.672 6.932 6.337 6.337 0 0 0 2.745.542 8.887 8.887 0 0 0 5.598-2.208 8.863 8.863 0 0 0 2.902-5.266 6.34 6.34 0 0 0-3.671-6.931 6.344 6.344 0 0 0-2.746-.542 8.887 8.887 0 0 0-5.598 2.208 8.863 8.863 0 0 0-2.902 5.265zm4.458 0a3.561 3.561 0 0 1 1.163-2.106 3.576 3.576 0 0 1 2.239-.89 2.563 2.563 0 0 1 2.003.886 2.54 2.54 0 0 1 .576 2.11 3.57 3.57 0 0 1-3.402 2.997 2.555 2.555 0 0 1-2.504-1.883 2.54 2.54 0 0 1-.048-1.114h-.027zM321.371 131.758a6.332 6.332 0 0 0 3.67 6.934 6.344 6.344 0 0 0 2.747.54 8.851 8.851 0 0 0 5.601-2.203 8.827 8.827 0 0 0 2.892-5.271 6.33 6.33 0 0 0-6.41-7.474 8.86 8.86 0 0 0-5.605 2.201 8.834 8.834 0 0 0-2.895 5.273zm4.45 0a3.568 3.568 0 0 1 3.403-2.996 2.55 2.55 0 0 1 2.586 2.996 3.565 3.565 0 0 1-1.164 2.107 3.58 3.58 0 0 1-2.239.89 2.563 2.563 0 0 1-2.545-1.873 2.541 2.541 0 0 1-.054-1.124h.013z" fill="#D2D9D6"></path><path d="M300.221 131.758a6.314 6.314 0 0 0 1.42 5.263 6.337 6.337 0 0 0 4.99 2.211 8.853 8.853 0 0 0 5.605-2.2 8.834 8.834 0 0 0 2.895-5.274 6.33 6.33 0 0 0-1.426-5.262 6.343 6.343 0 0 0-4.992-2.211 8.848 8.848 0 0 0-5.6 2.203 8.822 8.822 0 0 0-2.892 5.27zm4.45 0a3.574 3.574 0 0 1 3.403-2.996 2.563 2.563 0 0 1 2.004.886 2.553 2.553 0 0 1 .582 2.11 3.568 3.568 0 0 1-3.403 2.997 2.559 2.559 0 0 1-2.007-.884 2.552 2.552 0 0 1-.579-2.113z" fill="url(#otvbouzctc)"></path><path d="M394.975 119.956c2.667 5.585 5.444 11.361 15.604 11.361 14.291 0 14.835 11.741 14.835 11.856l-.891.061c0-.448-.552-11.034-13.978-11.034-10.718 0-13.726-6.292-16.373-11.843-2.389-4.994-4.648-9.716-12.072-9.716v-.89c8.002.014 10.479 5.184 12.875 10.205z" fill="url(#wb06a1od2d)"></path><path d="M392.144 129.706c2.974 3.201 6.05 6.503 17.101 6.503 15.312 0 16.115 6.658 16.142 6.937l-.892.122c0-.061-.837-6.169-15.277-6.169-11.439 0-14.638-3.445-17.734-6.795-2.661-2.86-5.179-5.564-13.27-5.564v-.89c8.533.02 11.167 2.853 13.93 5.856z" fill="#D3DDF8"></path><path d="m151.747 260.888 32.133.129c3.403 0 11.052 2.718 11.569 6.217l10.779 90.666h-4.239l-11.467-90.225c-.299-2.038-5.335-3.798-7.343-3.798h-30.704c-2.008 0-2.096 2.039-2.396 4.125L139.028 357.9h-5.927l11.568-90.666a7.475 7.475 0 0 1 7.078-6.346z" fill="#C8D9D6"></path><path d="M83.655 260.684h39.422c3.402 0 7.832 2.942 8.336 6.563l10.786 90.653h-4.24L126.5 267.703a4.61 4.61 0 0 0-4.247-3.928H84.478c-2 0-1.061 1.359-1.36 3.486L66.505 357.9h-5.383l15.434-90.653c.51-3.621 3.688-6.563 7.098-6.563z" fill="#C8D9D6"></path><path d="M81.376 257.579h-3.893c-2.45-5.619-6.744-27.056-8.765-43.383-.245-1.957-.436-3.506-.565-4.314l-.238-1.475 2.845-.489c2.688 17.02 10.05 48.988 10.615 49.661z" fill="#87AAA5"></path><path d="M83.506 257.579H80.47c-2.593-5.293-7.016-26.927-9.133-43.913-.238-1.903-.428-3.397-.558-4.213l2.845-.489c1.81 22.585 9.22 47.711 9.88 48.615z" fill="#5E8983"></path><path d="M132.584 213.272c.626 4.756 4.764 27.124 6.125 33.973 1.116 5.564 2.096 8.635 2.831 10.341h-2.913c-2.423-6-6.764-27.572-8.921-43.906-.225-1.706-.756-5.266-.756-5.266l2.838-.496s.565 3.621.796 5.354z" fill="#001A6C"></path><path d="M144.309 257.579h-2.988c-2.511-5.483-6.873-27.07-8.942-43.804-.245-1.957-.435-3.506-.565-4.322l2.845-.489c3.096 32.349 8.942 47.405 9.65 48.615z" fill="#2647C8"></path><path d="M57.054 148.711h57.748c5.444 0 10.595 4.178 11.398 9.295l7.574 52.48a250.854 250.854 0 0 1-42.191 3.561c-23.492 0-32.352-3.561-32.352-3.561l-10.663-52.48c-.803-5.117 3.014-9.295 8.486-9.295z" fill="#779994"></path><path d="M61.968 148.711h57.755c5.444 0 10.588 4.178 11.391 9.295l10.677 52.48a318.076 318.076 0 0 1-45.28 3.561c-23.485 0-32.352-3.561-32.352-3.561l-10.67-52.48c-.803-5.117 3.014-9.295 8.479-9.295z" fill="#E3E3E3"></path><path d="M143.859 256.668v.469c0 3.724-2.109 6.747-4.709 6.747H78.782c-2.6 0-4.716-3.023-4.716-6.747 0-.156 0-.305.034-.469h69.759z" fill="#87AAA5"></path><path d="M202.962 256.668c0 .164.041.313.041.469 0 3.724-2.402 6.747-5.363 6.747h-70.97c-2.96 0-5.362-3.023-5.362-6.747v-.469h81.654z" fill="#5E8983"></path><path d="M136.783 144.158c7.485 6.795 42.831 19.331 49.915 22.266 8.527 3.54 16.264-4.892 11.868-12.115-3.743-6.156-45.791-27.857-51.29-29.271-9.915-2.541-19.85 10.593-10.493 19.12z" fill="#FBBCBE"></path><path d="M167.466 162.218a1.44 1.44 0 0 1-1.231 0c-12.018-5.361-30.426-17.87-34.162-21.267-9.391-8.527.572-21.654 10.494-19.12 3.062.782 21.497 8.996 35.658 17.591.329.187.573.494.681.857 1.368 4.993-3.246 17.822-11.44 21.939z" fill="url(#f8f4334g5e)"></path><path d="M113.76 102.454s2.865 16.041-4.3 16.205c-7.166.163-20.416 1.984-24.968 8.309-4.553 6.326-9.983 61.891-4.083 102.291 0 0 48.152 14.948 71.739-9.403 0 0 7.438-80.291.218-91.216-6.023-9.112-20.497-8.364-20.497-8.364s-4.083-3.398-2.675-11.103c3.478-18.76-15.434-6.719-15.434-6.719z" fill="url(#lae09yg0kf)"></path><path d="M114.06 104.655c-.15-1.359-.299-2.201-.299-2.201s15.209-9.676 15.862 1.875l-15.563.326z" fill="url(#f45uxif7pg)"></path><path style="mix-blend-mode:multiply" d="M84.492 126.968a13.048 13.048 0 0 1 3.79-3.356l13.379 54.893 50.521 41.33c-23.586 24.338-71.712 9.424-71.712 9.424-5.961-40.4-.538-95.965 4.022-102.291z" fill="url(#k8xfsbcgsh)"></path><path d="M103.757 119.059c5.634 10.015 15.515 15.533 24.246 12.733 5.016-1.603 8.731-5.66 10.759-10.973-2.261-.42-4.56-.6-6.859-.537 0 0-4.083-3.431-2.668-11.109 3.443-18.76-15.481-6.719-15.481-6.719s2.871 16.041-4.294 16.205c-1.634.033-3.6.156-5.703.4z" fill="#FBBCBE"></path><path d="M103.757 119.059c5.634 10.015 15.515 15.533 24.246 12.733 5.016-1.603 8.731-5.66 10.759-10.973-2.261-.42-4.56-.6-6.859-.537 0 0-4.083-3.431-2.668-11.109 3.443-18.76-15.481-6.719-15.481-6.719s2.871 16.041-4.294 16.205c-1.634.033-3.6.156-5.703.4z" fill="#FBBCBE"></path><path d="M138.403 78.136a42.293 42.293 0 0 1 2.456 23.102c-1.538 7.358-7.336 11.38-14.291 11.55-6.975.156-12.752-5.075-12.929-11.68v-.55s-7.234-.346-7.404-7.678c-.17-7.331 4.723-4.45 4.723-4.45l-.218-9.676 27.663-.618z" fill="#FBBCBE"></path><path d="M111.134 88.701s2.259 6.523 3.491-1.487c1.232-8.011 3.702-7.712 12.644-7.325 8.942.387 21.443-3.227 16.38-14.105-4.982-10.695-23.92-2.276-23.92-2.276s-14.08-3.907-16.176 7.175c-2.096 11.081 7.581 18.018 7.581 18.018z" fill="#2A2A2A"></path><path d="M84.056 129.129c-6.05 8.153-15.12 45.292-17.346 52.616-2.681 8.833 4.54 15.893 11.297 10.81 5.764-4.321 26.982-50.374 27.839-55.973 1.545-10.11-14.222-17.625-21.79-7.453z" fill="#FBBCBE"></path><path d="M70.263 161.77a1.284 1.284 0 0 1-.504-1.461c4.45-13.725 10.596-27.395 13.985-31.934 8.234-11.062 25.049-1.869 23.368 9.118-.408 2.718-5.872 16.307-11.834 29.311a1.25 1.25 0 0 1-1.068.748c-10.215.679-20.824-3.71-23.947-5.782z" fill="url(#98jy16feii)"></path><path d="M290.796 287.658s-1.81 3.479-9.834-2.548c-8.71-6.543-19.489-11.252-19.489-11.252l4.491-8.398c8.847 6.258 17.571 9.017 18.986-6.183" fill="#FBBCBE"></path><path d="M284.181 273.987c-1.755-2.276-5.491-.679-6.009-2.86a.639.639 0 0 1 .477-.781c3.253-.619 5.621-3.771 6.301-11.069.531-5.653 6.227-7.365 8.405-7.813a.622.622 0 0 1 .553.146.627.627 0 0 1 .209.533l-3.307 35.332a.582.582 0 0 1-.137.339c-.496.598-2.599 2.249-8.656-1.957a.678.678 0 0 1-.272-.618c.633-3.676 5.22-7.65 2.436-11.252z" fill="#2A2A2A"></path><path d="M80.069 224.592c-3.083 18.813 14.556 34.387 38.319 31.777 23.764-2.609 61.124-20.587 78.259-24.256 0 0 21.776-27.538 7.363-33.626-35.91-15.192-123.941 26.105-123.941 26.105z" fill="#4B4260"></path><path d="M207.834 201.545c7.819 8.561 51.474 56.122 63.907 64.989a2.098 2.098 0 0 1 .68 2.548 79.19 79.19 0 0 1-9.67 16.796 2.115 2.115 0 0 1-2.967.38c-10.133-7.739-63.934-48.92-69.97-54.492-12.024-11.129 9.214-26.552 15.251-30.575a2.107 2.107 0 0 1 2.769.354z" fill="#4B4260"></path><path d="M118.389 256.363s52.61 7.059 69.82 5.877c8.295-.578 37.564-8.697 30.092-28.034-7.472-19.337-59.395-5.979-99.912 22.157z" fill="#4B4260"></path><path d="M213.973 229.069c-32.174-6.59-48.881 9.424-46.213 19.222 4.158 15.267 26.866 11.68 28.105 12.502a43.512 43.512 0 0 1-7.656 1.447c-17.21 1.182-69.82-5.877-69.82-5.877 36.087-25.058 80.558-38.607 95.584-27.294z" fill="#332C45"></path><path d="M249.543 348.781c-11.678-1.474-14.972-16.245-16.891-23.461l-10.99 4.192s6.547 12.346 6.036 20.75c-.51 8.405 1.892 7.617 1.892 7.617h34.835s-3.212-7.63-14.882-9.098z" fill="#FBBCBE"></path><path d="M249.543 348.781a14.597 14.597 0 0 1-8.969-4.973c-1.171-1.638-6.873.17-7.819 3.343a8.328 8.328 0 0 1-5.043 1.406v1.706c-.503 8.404 1.892 7.616 1.892 7.616h34.835s-3.225-7.63-14.896-9.098z" fill="#2A2A2A"></path><path d="M219.58 239.261c2.042 10.463 13.61 70.663 18.49 91.726a1.46 1.46 0 0 1-.81 1.637c-2.838 1.318-10.752 4.654-17.061 4.077a1.467 1.467 0 0 1-1.211-.829c-3.756-7.78-36.271-76.289-23.886-87.275 6.023-5.334 18.313-9.234 22.634-10.491a1.457 1.457 0 0 1 1.844 1.155z" fill="#4B4260"></path><path d="M71.624 178.858c12.576-2.086 52.168 3.363 59.027-.428 6.86-3.792 19.694-6.115 24.37-2.208 4.675 3.906 1.537 7.603-3.607 10.545-3.273 1.861-7.091 3.397-15.761 2.391-8.669-1.005-45.512 6.795-58.313 7.094-12.712.271-14.243-15.981-5.716-17.394zM184.506 152.332c10.82-6.72 45.594-15.172 50.501-21.294 4.906-6.122 11.97-11.551 17.788-9.723 5.934 1.869 8.48 7.909.681 11.116-3.477 1.44-5.24 5.877-13.651 8.221-8.411 2.344-31.678 20.445-43.403 25.575-11.609 5.089-19.238-9.349-11.916-13.895z" fill="#FBBCBE"></path><path d="M40.606 209.311H33.21V357.9h7.397V209.311zM350.66 357.893h-6.574V209.311h6.574v148.582z" fill="#C8D9D6"></path><path d="M114.489 205.479H23.995v3.825h90.494v-3.825z" fill="#20744B"></path><path d="M488.926 205.479H114.482v3.825h374.444v-3.825z" fill="#3EAF78"></path><path d="M134.482 209.311h-8.309V357.9h8.309V209.311zM474.342 357.893h-7.404V209.311h7.404v148.582z" fill="#C8D9D6"></path><path d="M94.251 198.664H5.687c-.837 0-1.515.669-1.515 1.495v3.825c0 .825.678 1.495 1.515 1.495h88.564c.837 0 1.515-.67 1.515-1.495v-3.825c0-.826-.678-1.495-1.515-1.495z" fill="#3EAF78"></path><path d="M505.312 205.479H94.185v-6.795h411.127a3.421 3.421 0 0 1 2.433.981 3.406 3.406 0 0 1 1.011 2.416 3.405 3.405 0 0 1-1.011 2.417 3.421 3.421 0 0 1-2.433.981z" fill="#6FE4AC"></path><path d="M210.277 198.208a.444.444 0 0 1-.131.324.462.462 0 0 1-.325.132h-78.646a.896.896 0 0 1-.845-.561.912.912 0 0 1-.067-.35v-2.188h80.014v2.643z" fill="#D3DDF8"></path><path d="M140.539 194.641v.925h-2.804v-1.23h2.498a.313.313 0 0 1 .216.089.315.315 0 0 1 .067.099.317.317 0 0 1 .023.117zM143.799 194.641v.925h-2.811v-1.23h2.505a.306.306 0 0 1 .306.305zM147.052 194.641v.925h-2.804v-1.23h2.498a.306.306 0 0 1 .306.305zM160.628 194.641v.925h-2.811v-1.23h2.505a.306.306 0 0 1 .306.305zM163.887 194.641v.925h-2.811v-1.23h2.498a.315.315 0 0 1 .313.305z" fill="#C0C5CD"></path><path d="M202.118 194.641v.925h-2.804v-1.23h2.498a.313.313 0 0 1 .216.089.315.315 0 0 1 .067.099.317.317 0 0 1 .023.117z" fill="#C0C4CD"></path><path d="M205.378 194.641v.925h-2.811v-1.23h2.505a.306.306 0 0 1 .306.305z" fill="#151618"></path><path d="M157.273 194.641v.925h-9.657v-1.23h9.35a.306.306 0 0 1 .307.305z" fill="#C0C5CD"></path><path d="M215.953 194.641v.925h-9.656v-1.23h9.35a.31.31 0 0 1 .217.089.308.308 0 0 1 .089.216z" fill="#151618"></path><path d="M198.559 194.641v.925h-33.522v-1.23h33.216a.313.313 0 0 1 .216.089.315.315 0 0 1 .067.099.317.317 0 0 1 .023.117z" fill="#C0C5CD"></path><path d="M226.31 194.336h6.805c.181 0 .354.071.481.199.128.127.2.3.2.48v.537h-7.792v-.924a.305.305 0 0 1 .306-.292z" fill="url(#iw3grszptj)"></path><path d="M235.715 194.336h6.806a.68.68 0 0 1 .68.679v.537h-7.792v-.924a.306.306 0 0 1 .306-.292z" fill="url(#49qdoomptk)"></path><path d="M245.113 194.336h6.805a.678.678 0 0 1 .68.679v.537h-7.791v-.924a.305.305 0 0 1 .306-.292z" fill="url(#z82tv2zo8l)"></path><path d="M254.517 194.336h6.805c.181 0 .354.071.481.199.128.127.2.3.2.48v.537h-7.792v-.924a.305.305 0 0 1 .306-.292z" fill="url(#g2gph3gf4m)"></path><path d="M265.569 194.336h3.566a.68.68 0 0 1 .68.679v.537h-4.559v-.924a.3.3 0 0 1 .097-.21.303.303 0 0 1 .216-.082z" fill="url(#oi5q3unecn)"></path><path d="M271.128 194.336h3.559a.68.68 0 0 1 .681.679v.537h-4.566v-.924a.3.3 0 0 1 .206-.276.29.29 0 0 1 .12-.016z" fill="url(#74o5rpu8ro)"></path><path d="M276.348 194.336h3.559c.181 0 .354.071.481.199.128.127.2.3.2.48v.537h-4.56v-.924a.31.31 0 0 1 .202-.274.298.298 0 0 1 .118-.018z" fill="url(#g3a4ql5hkp)"></path><path d="M215.266 136.494c.68-2.493 2.531-3.975 5.444-3.975l-17.877 65.785s-3.464-.986-2.607-4.349c.694-2.806 11.31-44.021 15.04-57.461z" fill="#F2F2F2"></path><path d="M221.016 132.519h83.764a1.81 1.81 0 0 1 1.416.69 1.802 1.802 0 0 1 .326 1.539l-15.42 60.817h-88.051l15.502-61.15a2.535 2.535 0 0 1 2.463-1.896z" fill="#E3E3E3"></path><path d="M290.782 198.208a.452.452 0 0 1-.134.322.452.452 0 0 1-.322.134h-86.425a.912.912 0 0 1-.869-.555.908.908 0 0 1-.07-.356v-2.188h87.786l.034 2.643z" fill="#B9BFBA"></path><path d="M269.454 190.87h22.879l1.613-6.522h-23.695a1.758 1.758 0 0 0-1.695 1.304l-.796 3.031a1.752 1.752 0 0 0 1.694 2.187z" fill="#B3C0EC"></path><path d="M266.651 190.891c7.152 0 10.207 6.563 16.148 3.954 5.941-2.609 8.718-2.466 8.438-7.419-.279-4.954-4.287-4.553-12.405-4.553-7.915 0-22.79 8.018-12.181 8.018zM343.263 347.09c14.617 0 4.709-17.591 1.477-26.839l13.902-3.261c3.723 9.254.81 18.515 8.289 30.772 5.322 8.711-.919 10.11-.919 10.11h-34.998s0-10.782 12.249-10.782z" fill="#FBBCBE"></path><path d="M343.263 347.09c4.151 0 6.322-1.42 7.227-3.663 2.722-.536 2.599 1.081 4.457 2.446 5.519 4.077 11.167.551 11.984 1.889 5.322 8.711-.919 10.11-.919 10.11h-34.998s0-10.782 12.249-10.782z" fill="#2A2A2A"></path><path d="M274.456 345.792c11.753-3.676 19.946-21.566 24.036-31.153l13.712 5.572c-3.116 4.538-10.827 11.849-12.351 27.551-1.089 11.164-4.083 10.111-4.083 10.111h-38.027s4.968-8.405 16.713-12.081z" fill="#FBBCBE"></path><path d="M274.456 345.792c3.553-1.108 6.806-3.52 9.65-6.598.871-.951 1.803 3.133 2.811 4.464 2.041 2.677 10.595 3.799 13.188 1.964-.129.775-.184 1.413-.252 2.14-1.089 11.164-4.083 10.111-4.083 10.111h-38.027s4.968-8.405 16.713-12.081z" fill="#2A2A2A"></path><path d="M391.824 250.547h4.873l-16.408 107.346h-4.872l16.407-107.346zM334.512 250.547h4.879l-16.414 107.346h-4.873l16.408-107.346z" fill="#C8D9D6"></path><path d="M329.761 233.302c-3.13 8.052-29.881 76.724-34.767 87.309a.99.99 0 0 0 .191 1.115c1.545 1.542 6.628 6.115 13.181 6.543a.963.963 0 0 0 .892-.462c3.987-6.374 45.594-72.912 49.636-80.719 3.859-7.426-22.933-13.344-28.01-14.391a.987.987 0 0 0-1.123.605z" fill="url(#xarrt9adiq)"></path><path d="M318.349 244.934c2.614 7.603 25.002 72.742 28.269 82.934a.609.609 0 0 0 .565.428c1.864.075 9.221.068 14.515-4.45a.64.64 0 0 0 .211-.571c-.728-5.116-9.405-65.771-11.861-74.271-2.321-8.024-26.54-5.435-31.181-4.878a.622.622 0 0 0-.541.538.632.632 0 0 0 .023.27z" fill="url(#y0t60ys5ar)"></path><path d="M376.587 108.895s4.906.625 5.546 4.206c.64 3.58-1.477 7.018-1.477 7.018s10.446 2.752 19.735-.829c0 0-4.723-9.295-4.811-19.194-.089-9.9-18.993 8.799-18.993 8.799z" fill="#FBBCBE"></path><path d="M364.999 79.393a53.229 53.229 0 0 0-2.648 9.227c-.769 4.532.633 15.233 5.819 21.321 5.185 6.088 17.047-.679 19.782-8.051 2.736-7.372.327-13.14-3.484-16.518-3.811-3.377-19.469-5.979-19.469-5.979z" fill="#FBBCBE"></path><path d="M370.775 83.844s2.083 2.038 2.988 6.692c.905 4.654 1.762 7.23 3.355 4.124 1.592-3.105 2.041-8.065 6.077-5.082 2.674 1.97 2.626 5.864 1.81 7.99-.817 2.127 1.885 6.795 7.438 5.035 5.553-1.76 9.228-16.769 9.228-16.769s-25.411-7.942-30.896-1.99z" fill="#2A2A2A"></path><path d="M368.251 64.996s-7.485 1.861-8.166 8.153c-.612 5.62 2.423 11.096 12.406 10.654 9.983-.442 10.643 5.768 15.917 7.426 5.274 1.658 10.582.102 13.12-5.089 2.634-5.381 1.817-11.945-4.661-17.271-6.479-5.327-27.922-12.924-28.616-3.873z" fill="#2A2A2A"></path><path d="M438.159 203.529c0 12.495 13.366 42.866-12.841 42.581-26.206-.286-106.438 0-106.438 0s-5.444-10.756 1.966-17.496c7.411-6.74 52.454-16.606 57.946-23.468 5.491-6.863 59.367-1.617 59.367-1.617z" fill="url(#52jy37kiqs)"></path><path style="mix-blend-mode:multiply" d="M392.511 240.898c46.839 0 33.583-36.649 34.025-38.307 6.846.469 11.61.937 11.61.937 0 12.496 13.365 42.867-12.841 42.582-18.735-.204-65.22-.116-90.1-.048 2.824-.673 50.936-5.164 57.306-5.164z" fill="url(#isv99dbu0t)"></path><path d="M378.152 119.501c-5.199.252-13.807 7.202-13.807 17.795 0 13.997 2.572 33.538 8.894 43.444 6.322 9.906-5.689 21.742 4.913 26.023 10.603 4.28 59.708 4.865 61.593-2.303 1.885-7.169-8.438-55.899-11.371-65.54-2.933-9.642-8.119-16.558-12.052-18.284-3.933-1.726-28.636-1.59-38.17-1.135z" fill="#6BC2E9"></path><path d="M432.634 192.053c.272-6.041.817-12.55-.524-18.447-9.316-41.005-19.66-45.333-23.818-48.921-4.899-4.199-10.793-1.433-17.305-1.658-8.847-.292-12.093-3.574-12.168-3.58 9.983-.435 33.638-.49 37.483 1.182 3.845 1.671 9.146 8.704 12.052 18.263 2.905 9.56 13.249 58.372 11.371 65.54-.83 3.146-10.739 4.797-22.498 5.3 8.357-1.984 14.965-7.698 15.407-17.679z" fill="#50ADCE"></path><path d="M378.152 119.501c3.165-1.638 5.934-.442 8.847-3.261 5.219-5.049 12.685-4.655 12.685-4.655l8.111 7.963s-18.625 7.44-29.643-.047z" fill="#50ADCE"></path><path d="M379.636 121.125c-4.219-3.785-14.971 1.4-22.301 10.79-7.329 9.39-22.681 44.904-26.539 52.997-3.587 7.528 7.349 20.648 19.319 8.533 11.97-12.114 21.014-30.806 25.288-44.123 4.274-13.317 8.813-24.086 4.233-28.197z" fill="#6BC2E9"></path><path d="M385.91 196.782h73.495a3.783 3.783 0 0 0 2.306-.85 3.766 3.766 0 0 0 1.294-2.086l5.193-20.75a3.729 3.729 0 0 0-.576-3.222 3.735 3.735 0 0 0-2.895-1.534h-73.495a3.777 3.777 0 0 0-3.6 2.928l-5.186 20.757a3.73 3.73 0 0 0 1.84 4.323 3.746 3.746 0 0 0 1.624.434z" fill="#779994"></path><path d="M388.06 196.782h71.454a3.564 3.564 0 0 0 3.457-2.718l4.695-19.181a3.545 3.545 0 0 0-.658-3.037 3.552 3.552 0 0 0-2.799-1.359h-71.487c-.798 0-1.573.269-2.2.761a3.549 3.549 0 0 0-1.257 1.957l-4.696 19.18a3.556 3.556 0 0 0 3.491 4.397zM318.179 251.865h52.372a2.884 2.884 0 0 0 2.886-2.881 2.884 2.884 0 0 0-2.886-2.881h-52.372a2.883 2.883 0 0 0-2.885 2.881 2.883 2.883 0 0 0 2.885 2.881z" fill="#E3E3E3"></path><path d="M382.773 250.547H377.9l16.414 107.346h4.873l-16.414-107.346zM440.085 250.547h-4.872l16.414 107.346h4.872l-16.414-107.346z" fill="#C8D9D6"></path><path d="M371.361 251.865h74.495v-5.762h-74.495v5.762z" fill="#B8CCC9"></path><path d="M379.255 249.996a2.042 2.042 0 0 0 1.946-1.508l17.442-67.911a2.045 2.045 0 0 0-.014-1.726 2.046 2.046 0 0 0-3.623-.119c-.146.26-.233.549-.256.846l-17.441 67.945a2.036 2.036 0 0 0 1.443 2.439c.165.034.335.046.503.034z" fill="#B3C0EC"></path><path d="M381.256 249.996a2.041 2.041 0 0 0 1.946-1.508l17.441-67.911a2.03 2.03 0 0 0-.014-1.726 2.043 2.043 0 0 0-3.878.727l-17.442 67.945a2.001 2.001 0 0 0 .741 2.103c.212.158.453.272.709.336.163.035.33.046.497.034z" fill="#fff"></path><path d="M436.132 249.996a2.044 2.044 0 0 0 1.939-1.508l17.448-67.911a2.023 2.023 0 0 0-.014-1.726 2.031 2.031 0 0 0-1.334-1.096 2.049 2.049 0 0 0-2.289.977c-.146.26-.233.549-.255.846l-17.448 67.945a2.034 2.034 0 0 0 1.449 2.439c.166.035.335.046.504.034z" fill="#B3C0EC"></path><path d="M438.14 249.996a2.041 2.041 0 0 0 1.946-1.508l17.441-67.911a2.023 2.023 0 0 0-.014-1.726 2.031 2.031 0 0 0-1.334-1.096 2.049 2.049 0 0 0-2.289.977c-.146.26-.233.549-.255.846l-17.442 67.945c-.066.255-.081.52-.045.781a2.01 2.01 0 0 0 .782 1.321c.211.158.451.272.706.337.166.034.335.046.504.034z" fill="#fff"></path><path d="M340.942 198.365c-12.195 1.522-31.807 0-56.428-.741 0 0-2.926-9.464.919-15.865 0 0 46.907-2.575 51.909-2.446 5.002.129 16.291 17.462 3.6 19.052z" fill="#6BC2E9"></path><path d="M497.216 357.893H11.565c-2.049 0-3.71 1.119-3.71 2.5s1.661 2.5 3.71 2.5h485.651c2.049 0 3.709-1.119 3.709-2.5s-1.66-2.5-3.709-2.5z" fill="#B2CAC6"></path><path d="M93.468 206.042s-26.847 9.037-23.206 39.911c3.641 30.875-1.606 68.564-1.606 68.564h15.305s27.261-36.691 7.172-64.195c-20.088-27.504 2.335-44.28 2.335-44.28z" fill="#43B97F"></path><path d="M91.358 207.972c-4.886 4.023-19.095 18.658-3.784 42.88 18.197 28.782-11.466 63.57-11.466 63.57l-7.35-.496-.074.591h15.304s27.261-36.691 7.173-64.195c-16.135-22.068-4.886-37.227.197-42.35z" fill="#D6EEE2"></path><path opacity=".44" d="M92.386 206.967c.68-.605 1.082-.925 1.082-.925a32.936 32.936 0 0 0-5.689 2.779 34.094 34.094 0 0 1 4.607-1.854z" fill="#4900BC"></path><path d="M64.09 280.341c1.436-27.43.327-30.854-10.35-39.911-10.677-9.057-25.73-23.944-25.73-23.944 10.248 20.261 10.044 29.468 11.977 44.375 1.49 11.55 18.89 34.652 26.621 44.422-1.708-3.968-3.232-11.326-2.518-24.942z" fill="#52C98E"></path><path d="M70.263 309.828s-1.436-1.725-3.668-4.545c1.749 4.016 3.668 4.545 3.668 4.545z" fill="url(#7q89m47jnu)"></path><path d="M58.898 267.58c-5.329 22.789 6.002 38.097 6.002 38.097h11.174c-.041-7.854.524-15.383 4.233-22.999a7.94 7.94 0 0 1 .68-1.135 82.429 82.429 0 0 0-5.28-2.229c-20.634-7.908-11.48-34.516-16.81-11.734z" fill="#43B97F"></path><path d="M87.867 273.315c-11.344 5.728-8.077 30.29-8.077 30.29l10.663 3.818s-1.919-11.19 5.329-19.921c7.247-8.731 12.024-5.381 12.024-5.381s-8.594-14.541-19.939-8.806zM33.515 261.717c-19.054 0-29.698 11.455-29.698 11.455s7.411-3.757 20.674-3.268c13.263.489 12.304 11.734 22.96 22.239 10.657 10.504 19.545 12.005 19.545 12.005s-14.12-20.383-24.464-34.244c-1.858-2.439-.082-8.187-9.017-8.187z" fill="#52C98E"></path><path d="M.095 277.093a1.43 1.43 0 0 0-.095.312s.027-.115.095-.312z" fill="#FAF9FC"></path><path d="M48.922 273.994c-3.552-4.756.136-16.51-22.552-13.779C5.655 262.709.783 274.98.096 277.093c.524-1.359 3.838-6.91 23.817-11.422 22.96-5.184 10.793 6.686 21.185 14.194 10.391 7.508 18.857 21.552 18.857 21.552s5.873 9.825 4.505 1.637c-1.368-8.187-15.985-24.283-19.538-29.06zM119.3 284.227c-10.384-21.145-22.946-19.772-31.303-15.145-11.848 6.563-9.901 33.972-9.901 33.972l1.7.551s.273-5.32 1.185-14.466c.912-9.145 5.376-22.123 19.864-4.076 14.488 18.046 34.985 21.266 34.985 21.266s-6.145-.951-16.53-22.102z" fill="#D6EEE2"></path><path d="M91.834 257.885c-3.26-2.392-6.573-1.977-9.132-.918a10.911 10.911 0 0 1-9.854-.896c-10.922-6.598-11.76 2.473-11.76 2.473l.294 2.453c.01.026.01.055 0 .081.782 4.552 3.34 14.017 14.29 18.223 1.953.754 19.136 8.187 19.136 8.187-2.3-9.396 3.716-24.677-2.974-29.603z" fill="#D6EEE2"></path><path d="M63.103 357.906h18.231c3.218 0 6.304-1.276 8.58-3.548a12.104 12.104 0 0 0 3.554-8.566v-44.511H50.97v44.511c0 3.213 1.278 6.294 3.553 8.566a12.143 12.143 0 0 0 8.58 3.548z" fill="#183658"></path><path d="M94.62 301.281H49.832a3 3 0 0 0-3 3v.142a3 3 0 0 0 3 3h44.786a3 3 0 0 0 3-3v-.142a3 3 0 0 0-3-3z" fill="url(#kzndzfnd0v)"></path><ellipse cx="260.251" cy="161.824" rx="2.84" ry="3.587" transform="rotate(9.234 260.251 161.824)" fill="#fff"></ellipse><defs><linearGradient id="ye5lsfwp6a" x1="547" y1="188.826" x2="64.992" y2="190.841" gradientUnits="userSpaceOnUse"><stop stop-color="#F9F9F9"></stop><stop offset="0" stop-color="#F9F9F9"></stop><stop offset="1" stop-color="#fff"></stop></linearGradient><linearGradient id="8paac3puxb" x1="366.7" y1="53.356" x2="394.703" y2="53.356" gradientUnits="userSpaceOnUse"><stop stop-color="#FFD000"></stop><stop offset="1" stop-color="#FF7300"></stop></linearGradient><linearGradient id="otvbouzctc" x1="300.146" y1="131.758" x2="315.205" y2="131.758" gradientUnits="userSpaceOnUse"><stop stop-color="#FFD000"></stop><stop offset="1" stop-color="#FF7300"></stop></linearGradient><linearGradient id="wb06a1od2d" x1="382.1" y1="126.493" x2="425.414" y2="126.493" gradientUnits="userSpaceOnUse"><stop stop-color="#FFD000"></stop><stop offset="1" stop-color="#FF7300"></stop></linearGradient><linearGradient id="f8f4334g5e" x1="159.654" y1="129.822" x2="149.72" y2="145.558" gradientUnits="userSpaceOnUse"><stop stop-color="#FFD000"></stop><stop offset="1" stop-color="#FF7300"></stop></linearGradient><linearGradient id="lae09yg0kf" x1="160.286" y1="164.822" x2="75.93" y2="166.512" gradientUnits="userSpaceOnUse"><stop stop-color="#FFD000"></stop><stop offset="1" stop-color="#FF7300"></stop></linearGradient><linearGradient id="f45uxif7pg" x1="159.361" y1="100.274" x2="71.766" y2="102.028" gradientUnits="userSpaceOnUse"><stop stop-color="#FFD000"></stop><stop offset="1" stop-color="#FF7300"></stop></linearGradient><linearGradient id="k8xfsbcgsh" x1="112.766" y1="156.595" x2="113.794" y2="208.056" gradientUnits="userSpaceOnUse"><stop stop-color="#fff"></stop><stop offset="1" stop-color="#FF7300"></stop></linearGradient><linearGradient id="98jy16feii" x1="169.03" y1="122.836" x2="75.128" y2="149.287" gradientUnits="userSpaceOnUse"><stop stop-color="#FFD000"></stop><stop offset="1" stop-color="#FF7300"></stop></linearGradient><linearGradient id="iw3grszptj" x1="233.809" y1="194.947" x2="226.004" y2="194.947" gradientUnits="userSpaceOnUse"><stop stop-color="#AACEFF"></stop><stop offset="1" stop-color="#DBE9FF"></stop></linearGradient><linearGradient id="49qdoomptk" x1="243.215" y1="194.947" x2="235.409" y2="194.947" gradientUnits="userSpaceOnUse"><stop stop-color="#AACEFF"></stop><stop offset="1" stop-color="#DBE9FF"></stop></linearGradient><linearGradient id="z82tv2zo8l" x1="252.612" y1="194.947" x2="244.807" y2="194.947" gradientUnits="userSpaceOnUse"><stop stop-color="#AACEFF"></stop><stop offset="1" stop-color="#DBE9FF"></stop></linearGradient><linearGradient id="g2gph3gf4m" x1="262.016" y1="194.947" x2="254.211" y2="194.947" gradientUnits="userSpaceOnUse"><stop stop-color="#AACEFF"></stop><stop offset="1" stop-color="#DBE9FF"></stop></linearGradient><linearGradient id="oi5q3unecn" x1="269.843" y1="194.947" x2="265.276" y2="194.947" gradientUnits="userSpaceOnUse"><stop stop-color="#AACEFF"></stop><stop offset="1" stop-color="#DBE9FF"></stop></linearGradient><linearGradient id="74o5rpu8ro" x1="275.382" y1="194.947" x2="270.822" y2="194.947" gradientUnits="userSpaceOnUse"><stop stop-color="#AACEFF"></stop><stop offset="1" stop-color="#DBE9FF"></stop></linearGradient><linearGradient id="g3a4ql5hkp" x1="280.601" y1="194.947" x2="276.042" y2="194.947" gradientUnits="userSpaceOnUse"><stop stop-color="#AACEFF"></stop><stop offset="1" stop-color="#DBE9FF"></stop></linearGradient><linearGradient id="xarrt9adiq" x1="301.752" y1="322.398" x2="328.274" y2="271.032" gradientUnits="userSpaceOnUse"><stop stop-color="#FFD000"></stop><stop offset="1" stop-color="#FF7300"></stop></linearGradient><linearGradient id="y0t60ys5ar" x1="361.916" y1="285.783" x2="318.315" y2="285.783" gradientUnits="userSpaceOnUse"><stop stop-color="#FFD000"></stop><stop offset="1" stop-color="#FF7300"></stop></linearGradient><linearGradient id="52jy37kiqs" x1="441.569" y1="223.858" x2="316.94" y2="223.858" gradientUnits="userSpaceOnUse"><stop stop-color="#FFD000"></stop><stop offset="1" stop-color="#FF7300"></stop></linearGradient><linearGradient id="isv99dbu0t" x1="431.667" y1="223.253" x2="378.451" y2="239.075" gradientUnits="userSpaceOnUse"><stop stop-color="#fff"></stop><stop offset="1" stop-color="#FF7300"></stop></linearGradient><linearGradient id="7q89m47jnu" x1="69.01" y1="308.639" x2="67.585" y2="306.259" gradientUnits="userSpaceOnUse"><stop stop-color="#DBEBFF"></stop><stop offset=".53" stop-color="#DDECFF"></stop><stop offset=".74" stop-color="#E4F0FF"></stop><stop offset=".89" stop-color="#F0F7FF"></stop><stop offset="1" stop-color="#fff"></stop></linearGradient><linearGradient id="kzndzfnd0v" x1="91.924" y1="304.352" x2="55.618" y2="304.352" gradientUnits="userSpaceOnUse"><stop stop-color="#FFD000"></stop><stop offset="1" stop-color="#FF7300"></stop></linearGradient></defs></svg>