<svg xmlns="http://www.w3.org/2000/svg" width="510" height="378" viewBox="0 0 510 378" fill="none"><g clip-path="url(#uix0q9slza)"><path d="M59.658 71.006s46.521-40.68 103.722-21.304c57.202 19.377 101.785 107.5 157.04 110.408 55.254 2.909 106.615-27.12 150.253-.926 43.638 26.194 51.37 139.465-31.994 151.089-83.364 11.624-129.894-30.029-165.763-28.093s-123.108 45.525-191.907 26.157C12.209 288.97-49.887 155.294 59.658 71.006z" fill="#E3F8F3"></path><g opacity=".46"><path opacity=".46" d="M370.539 77.656H171.641a3.2 3.2 0 0 1-3.135-2.556 3.195 3.195 0 0 1 .039-1.445l18.542-71.32a3.211 3.211 0 0 1 3.096-2.38H389.08a3.192 3.192 0 0 1 3.127 2.549c.097.477.084.97-.039 1.442L373.626 75.22a3.18 3.18 0 0 1-3.087 2.436z" fill="#A8D9C1"></path><path opacity=".46" d="M198.916 15.246h69.207M193.585 47.164h69.216M222.696 35.105h69.207M197.136 25.888h20.766M194.299 35.105h20.767M279.128 15.246h24.66" stroke="#7DC2A0" stroke-width="3.45" stroke-linecap="round" stroke-linejoin="round"></path><path opacity=".46" d="M291.217 62.132h-36.833a.286.286 0 0 1-.278-.351l1.65-6.336a.298.298 0 0 1 .278-.213h36.834a.29.29 0 0 1 .221.116.284.284 0 0 1 .047.245l-1.641 6.326a.297.297 0 0 1-.278.213zM245.428 62.132h-36.833a.28.28 0 0 1-.32-.243.281.281 0 0 1 .023-.146l1.641-6.335a.298.298 0 0 1 .278-.213h36.833a.29.29 0 0 1 .283.23.302.302 0 0 1-.004.131l-1.651 6.326a.285.285 0 0 1-.25.25z" stroke="#84AEE5" stroke-width="1.15" stroke-miterlimit="10"></path><path opacity=".46" d="M355.955 52.953c-1.854-2.51-9.549-4.335-11.663-6.854-1.084-1.278-1.084-3.705-.825-5.696a7.29 7.29 0 0 0 1.752-1.408 33.417 33.417 0 0 0 2.077-3.65 1.176 1.176 0 0 0 .881.37c1.001 0 4.83-5.232 3.847-6.483-.565-.685-1.474-.092-2.16.547a149.172 149.172 0 0 0 1.734-4.094h-.047c.102-.287.186-.584.26-.927 1.52-6.085-2.188-11.022-8.279-11.022-6.091 0-12.256 5.02-13.786 11.106a8.567 8.567 0 0 0-.185.926s-.176 1.778-.315 4.094c-.362-.64-.974-1.232-1.855-.546-1.594 1.213-.361 6.418.631 6.483a1.929 1.929 0 0 0 1.066-.37 22.066 22.066 0 0 0 .25 3.65c.304.65.762 1.215 1.335 1.648-.76 1.954-1.909 4.159-3.541 5.372-3.375 2.52-11.95 4.344-15.093 6.854-2.781 2.26-5.34 8.864-5.822 10.189h50.47c.195-1.325.965-7.882-.732-10.189z" fill="#7DC2A0"></path></g><path d="M335.93 134.389H137.033a3.187 3.187 0 0 1-3.088-3.992l18.542-71.275a3.2 3.2 0 0 1 3.097-2.39H354.5a3.204 3.204 0 0 1 2.501 1.253 3.195 3.195 0 0 1 .558 2.74l-18.542 71.274a3.196 3.196 0 0 1-3.087 2.39z" stroke="#7DC2A0" stroke-width="1.15" stroke-miterlimit="10"></path><path d="M332.203 129.072H133.306a3.191 3.191 0 0 1-3.127-2.55 3.193 3.193 0 0 1 .04-1.442l18.542-71.274a3.193 3.193 0 0 1 3.096-2.39h198.916a3.199 3.199 0 0 1 3.096 3.992l-18.541 71.321a3.196 3.196 0 0 1-3.125 2.343z" fill="#A0DCBF"></path><path d="M316.146 118.429h-44.723a2.78 2.78 0 0 1-2.781-3.705l11.283-45.21a5.09 5.09 0 0 1 4.635-3.705h44.723a2.783 2.783 0 0 1 2.91 2.357c.069.453.025.916-.129 1.349l-11.282 45.209a5.087 5.087 0 0 1-4.636 3.705z" fill="#fff"></path><path d="M316.146 118.429h-44.723a2.78 2.78 0 0 1-2.781-3.705l11.283-45.21a5.09 5.09 0 0 1 4.635-3.705h44.723a2.783 2.783 0 0 1 2.91 2.357c.069.453.025.916-.129 1.349l-11.282 45.209a5.087 5.087 0 0 1-4.636 3.705z" stroke="#fff" stroke-width="1.15" stroke-miterlimit="10"></path><path d="M160.581 68.44h69.207M155.26 100.349h69.207M184.36 88.299h69.207M158.811 79.073h20.757M155.964 88.299h20.767M240.792 68.44h24.67" stroke="#7DC2A0" stroke-width="3.45" stroke-linecap="round" stroke-linejoin="round"></path><path d="M252.882 115.317h-36.834a.277.277 0 0 1-.268-.352l1.641-6.326a.288.288 0 0 1 .102-.154.294.294 0 0 1 .176-.059h36.833a.288.288 0 0 1 .278.224c.01.042.01.086 0 .128l-1.65 6.326a.284.284 0 0 1-.278.213zM207.102 115.317h-36.815a.282.282 0 0 1-.223-.109.291.291 0 0 1-.055-.243l1.651-6.326a.276.276 0 0 1 .268-.213h36.843a.282.282 0 0 1 .222.109.277.277 0 0 1 .047.243l-1.669 6.326a.27.27 0 0 1-.269.213z" stroke="#7DC2A0" stroke-width="1.15" stroke-miterlimit="10"></path><path d="M334.382 230.838H135.439a3.196 3.196 0 0 1-3.097-3.992l18.542-71.274a3.197 3.197 0 0 1 3.096-2.39h198.944a3.195 3.195 0 0 1 3.087 4.001l-18.541 71.321a3.191 3.191 0 0 1-3.088 2.334z" fill="#A0DCBF"></path><path d="M162.713 168.473h69.207M157.383 200.346h69.216M186.493 188.296H255.7M160.933 179.071h20.766M158.097 188.296h20.766M242.925 168.438h24.67" stroke="#7DC2A0" stroke-width="3.45" stroke-linecap="round" stroke-linejoin="round"></path><path d="M255.014 215.315h-36.833a.294.294 0 0 1-.279-.225.287.287 0 0 1 .001-.127l1.65-6.327a.29.29 0 0 1 .278-.213h36.833a.288.288 0 0 1 .279.225.302.302 0 0 1 0 .127l-1.651 6.327a.288.288 0 0 1-.278.213zM209.225 215.315h-36.833a.282.282 0 0 1-.222-.11.273.273 0 0 1-.047-.242l1.651-6.327a.27.27 0 0 1 .268-.213h36.834a.298.298 0 0 1 .223.11.287.287 0 0 1 .055.242l-1.65 6.327a.28.28 0 0 1-.279.213z" stroke="#7DC2A0" stroke-width="1.15" stroke-miterlimit="10"></path><path d="M319.752 206.18c-1.854-2.519-9.549-4.344-11.662-6.854-1.076-1.288-1.076-3.705-.825-5.696a7.831 7.831 0 0 0 1.752-1.408 33.426 33.426 0 0 0 2.076-3.65 1.146 1.146 0 0 0 .881.361c1.001 0 4.83-5.233 3.848-6.437-.566-.695-1.474-.093-2.161.547a149.81 149.81 0 0 0 1.734-4.094c.093-.297.176-.593.26-.927 1.511-6.085-2.198-11.022-8.288-11.022-6.091 0-12.294 5.002-13.777 11.059a8.585 8.585 0 0 0-.185.927s-.177 1.778-.316 4.094c-.361-.64-.973-1.242-1.854-.547-1.594 1.204-.361 6.41.631 6.437a1.855 1.855 0 0 0 1.066-.361 22.073 22.073 0 0 0 .25 3.65 4.466 4.466 0 0 0 1.335 1.695c-.76 1.945-1.91 4.159-3.541 5.372-3.375 2.51-11.951 4.335-15.084 6.854-2.828 2.26-5.349 8.855-5.831 10.189h50.415c.204-1.334.973-7.929-.724-10.189z" fill="#7DC2A0"></path><g opacity=".46"><path opacity=".46" d="M313.754 325.871H114.847a3.191 3.191 0 0 1-3.126-2.55 3.179 3.179 0 0 1 .039-1.442l18.542-71.321a3.178 3.178 0 0 1 3.087-2.39h198.925a3.205 3.205 0 0 1 2.532 1.241 3.203 3.203 0 0 1 .564 2.761l-18.541 71.274a3.202 3.202 0 0 1-3.115 2.427z" fill="#A8D9C1"></path><path opacity=".46" d="M142.122 263.47h69.216M136.801 295.379h69.207M165.901 283.329h69.217M140.352 274.103h20.757M137.515 283.329h20.757M222.334 263.47h24.67" stroke="#82C1A2" stroke-width="3.45" stroke-linecap="round" stroke-linejoin="round"></path><path opacity=".46" d="M234.432 310.347h-36.843a.278.278 0 0 1-.268-.352l1.65-6.326a.27.27 0 0 1 .269-.213h36.87a.288.288 0 0 1 .279.224.291.291 0 0 1-.001.128l-1.65 6.326a.267.267 0 0 1-.306.213zM188.643 310.347H151.81a.288.288 0 0 1-.279-.224.291.291 0 0 1 .001-.128l1.65-6.326a.29.29 0 0 1 .278-.213h36.833a.279.279 0 0 1 .269.352l-1.641 6.326a.281.281 0 0 1-.103.154.282.282 0 0 1-.175.059z" stroke="#81C1A8" stroke-width="1.15" stroke-miterlimit="10"></path><path opacity=".46" d="M299.152 301.177c-1.854-2.519-9.549-4.344-11.663-6.854-1.085-1.287-1.085-3.705-.825-5.696a8.015 8.015 0 0 0 1.752-1.408 33.53 33.53 0 0 0 2.068-3.65 1.191 1.191 0 0 0 .88.371c1.011 0 4.84-5.243 3.848-6.484-.566-.694-1.474-.092-2.151.547a168.154 168.154 0 0 0 1.724-4.094c.093-.297.186-.584.26-.927 1.52-6.085-2.188-11.022-8.279-11.022-6.091 0-12.265 4.937-13.786 11.022a9.07 9.07 0 0 0-.176.927s-.176 1.778-.324 4.094c-.353-.639-.974-1.241-1.855-.547-1.585 1.204-.352 6.41.631 6.484a1.933 1.933 0 0 0 1.066-.371 23.213 23.213 0 0 0 .25 3.65 4.642 4.642 0 0 0 1.409 1.732c-.75 1.945-1.909 4.159-3.541 5.372-3.365 2.51-11.941 4.335-15.084 6.854-2.827 2.26-5.349 8.855-5.822 10.189h50.471c.074-1.334.862-7.929-.853-10.189z" fill="#9DD0BC"></path></g><path d="M120.049 28.213h-3.644a1.252 1.252 0 0 1-1.242-1.667l.927-3.64a2.268 2.268 0 0 1 2.067-1.649h3.644a1.253 1.253 0 0 1 1.264 1.073c.029.2.009.404-.059.595l-.927 3.621a2.257 2.257 0 0 1-2.03 1.667z" fill="#BFE0D0"></path><path d="M117.387 38.874h-3.652a1.253 1.253 0 0 1-1.243-1.648l.927-3.64a2.274 2.274 0 0 1 2.068-1.65h3.643a1.253 1.253 0 0 1 1.243 1.65l-.927 3.64a2.266 2.266 0 0 1-2.059 1.648z" fill="#EEFBF5"></path><path d="M128.968 38.874h-3.635a1.238 1.238 0 0 1-1.062-.492 1.245 1.245 0 0 1-.18-1.156l.927-3.64a2.256 2.256 0 0 1 2.068-1.65h3.634a1.244 1.244 0 0 1 1.297 1.049 1.25 1.25 0 0 1-.055.6l-.927 3.64a2.255 2.255 0 0 1-2.067 1.65z" fill="#BFE0D0"></path><path d="M140.556 38.874h-3.644a1.24 1.24 0 0 1-1.242-1.648l.927-3.64a2.256 2.256 0 0 1 2.068-1.65h3.634a1.244 1.244 0 0 1 1.297 1.049 1.25 1.25 0 0 1-.055.6l-.927 3.64a2.253 2.253 0 0 1-2.058 1.65zM114.662 49.786h-3.634a1.244 1.244 0 0 1-1.243-1.649l.927-3.64a2.257 2.257 0 0 1 2.096-1.649h3.634a1.247 1.247 0 0 1 1.062.493 1.245 1.245 0 0 1 .18 1.156l-.927 3.64a2.249 2.249 0 0 1-2.095 1.649zM111.76 61.438h-3.643a1.253 1.253 0 0 1-1.243-1.649l.927-3.64a2.262 2.262 0 0 1 2.068-1.649h3.643a1.254 1.254 0 0 1 1.292 1.05c.032.2.015.406-.05.599l-.927 3.64a2.272 2.272 0 0 1-2.067 1.649zM126.251 49.786h-3.643a1.244 1.244 0 0 1-1.243-1.649l.928-3.64a2.251 2.251 0 0 1 2.067-1.649h3.634a1.244 1.244 0 0 1 1.297 1.048c.032.202.013.408-.055.6l-.927 3.641a2.266 2.266 0 0 1-2.058 1.649z" fill="#EEFBF5"></path><path d="M121.152 70.08h-3.616a1.24 1.24 0 0 1-1.242-1.65l.927-3.64a2.255 2.255 0 0 1 2.068-1.648h3.634a1.245 1.245 0 0 1 1.297 1.048c.031.202.013.408-.055.6l-.927 3.64a2.253 2.253 0 0 1-2.086 1.65z" fill="#BFE0D0"></path><path d="M178.427 7.095h-1.354c-10.8 0-21.721 8.642-24.595 19.377l-.13.519a.828.828 0 0 0 0 .157l-.084.324c-2.364 10.884 4.636 19.544 15.761 19.09 10.198-.407 20.498-8.54 23.557-18.626 3.338-11.041-2.707-20.165-13.155-20.841zm7.417 20.377c-2.151 7.17-9.503 12.968-16.744 13.18-7.787.25-12.636-5.779-11.032-13.374l.223-.926c2.067-7.521 9.734-13.551 17.308-13.551h1.15c7.25.676 11.412 7.04 9.122 14.671h-.027z" fill="#F0F8F4"></path><path d="M177.371 10.402a2.182 2.182 0 0 0 1.511 2.825c5.896 1.565 9.048 7.41 6.99 14.236-2.151 7.17-9.503 12.968-16.743 13.18-7.241.214-11.765-4.77-11.311-11.41a2.128 2.128 0 0 0-.596-1.701 2.14 2.14 0 0 0-1.684-.643 3.93 3.93 0 0 0-3.709 3.4c-.639 9.465 6.063 16.588 16.234 16.171 10.17-.416 20.479-8.54 23.548-18.626 2.957-9.735-1.502-18.034-9.892-20.257a3.842 3.842 0 0 0-4.348 2.825z" fill="#A6D7BF"></path><path d="M227.591 5.057h-1.363c-10.912 0-21.972 8.837-24.688 19.748-2.717 10.911 3.921 19.738 14.833 19.738h1.391c10.383-.704 20.581-9.16 23.251-19.525a1.16 1.16 0 0 0 0-.167c2.652-10.55-3.328-19.09-13.424-19.794zm-8.78 33.53h-.982c-7.695 0-12.377-6.224-10.458-13.893 1.919-7.67 9.707-13.894 17.402-13.894H225.727c7.111.5 11.32 6.484 9.485 13.894a1.2 1.2 0 0 1-.047.166c-1.835 7.336-9.048 13.273-16.354 13.727z" fill="#fff"></path><path d="M234.339 27.352a19.56 19.56 0 0 1-13.795 11.06 4.074 4.074 0 0 0-3.133 2.87 2.24 2.24 0 0 0 1.57 2.88c.398.102.817.093 1.211-.026a27.708 27.708 0 0 0 19.627-15.737c.778-1.806-.167-3.474-2.003-3.474a4.024 4.024 0 0 0-3.477 2.427z" fill="#BFE0D0"></path><path d="M175.154 74.544h-36.833a.285.285 0 0 1-.282-.23.287.287 0 0 1 .004-.131l1.65-6.326a.298.298 0 0 1 .278-.213h36.806a.288.288 0 0 1 .278.36l-1.65 6.327a.3.3 0 0 1-.251.213z" fill="#EDF4FF"></path><path d="M345.997 103.881c7.668-6.766 9.603-17.093 4.322-23.067-5.28-5.974-15.777-5.332-23.445 1.434-7.668 6.766-9.603 17.093-4.322 23.067 5.28 5.974 15.777 5.332 23.445-1.434zM360.628 110.631a6.112 6.112 0 0 1-5.563 4.473 3.38 3.38 0 0 1-3.356-4.473 6.117 6.117 0 0 1 5.563-4.474 3.38 3.38 0 0 1 3.356 4.474z" fill="#52D293"></path><path d="M332.231 101.387a1.551 1.551 0 0 1-1.27-.593l-4.227-5.622a2.152 2.152 0 0 1 .704-2.843 1.994 1.994 0 0 1 2.846 0l3.162 4.204 11.283-9.021a1.99 1.99 0 0 1 2.194-.442c.245.102.466.253.652.442a2.147 2.147 0 0 1-.714 2.834l-13.063 10.448a2.57 2.57 0 0 1-1.567.593z" fill="#fff"></path><path d="M442.925 60.632s-1.771 3.547-2.837 11.346c-1.066 7.8 1.771 52.796 1.771 52.796l30.529-3.195-13.841-58.817-15.622-2.13z" fill="#2A2A2A"></path><path d="m424.828 250.873-10.652 52.62 20.767.537s5.321-46.812 3.189-46.812c-2.133 0-13.304-6.345-13.304-6.345z" fill="#45242C"></path><path d="M473.092 364.523s-7.806 8.16-11.004 9.93c.714 1.417 12.052 1.417 16.335-.704 4.283-2.121 7.417-7.095 7.417-7.095l-.352 5.316h2.132s2.132-7.41 2.132-9.216c0-1.806-2.132-4.261-2.132-4.261l-14.528 6.03z" fill="#030925"></path><path d="m469.903 259.561 7.806 95.746 9.225-.713s10.652-70.209 6.388-94.319c-4.265-24.111-23.419-.714-23.419-.714zM477.709 355.307s-2.837 7.41-6.74 10.994c-3.903 3.585 6.026 3.548 10.291 0 4.264-3.547 4.635-5.677 6.035-6.381 1.4-.704-.361-5.326-.361-5.326l-9.225.713z" fill="#FBBCBE"></path><path d="M409.003 362.921s-9.067 6.724-12.516 7.928c.464 1.519 11.654 3.437 16.215 2.057 4.561-1.381 8.539-5.743 8.539-5.743l-1.243 5.187 2.095.361s3.357-6.984 3.653-8.734c.297-1.751-1.381-4.548-1.381-4.548l-15.362 3.492z" fill="#030925"></path><path d="m423.567 258.922-8.455 95.681 9.216.861s22.342-67.412 22.25-91.901c-.093-24.49-23.011-4.641-23.011-4.641z" fill="#FBBCBE"></path><path d="M415.113 354.603s-4.061 6.864-8.501 9.707c-4.441 2.844 5.349 4.511 10.142 1.732 4.793-2.779 5.507-4.816 7.027-5.279 1.521-.464.547-5.299.547-5.299l-9.215-.861zM390.869 106.796l-18.356-3.603s-.269 2.491 1.391 3.047l1.669.556s4.171 10.003 6.118 11.115c1.947 1.111 13.628 5.928 13.628 5.928l3.051-11.763-7.501-5.28z" fill="#FBBCBE"></path><path d="M404.062 121.625s-.176-1.241-2.633-6.215a52.017 52.017 0 0 1-3.337-7.781s-8.613-3.325-10.004-4.992a6.14 6.14 0 0 0-2.225-1.945s-1.668 3.057.835 5.27c2.503 2.214 4.728 3.89 4.728 3.89s-.278 6.392.556 9.448a8.144 8.144 0 0 0 3.338 4.539l8.742-2.214z" fill="#FBBCBE"></path><path d="M432.653 131.906s-12.423 19.859-12.775 18.09c-.352-1.769-15.965-29.084-15.965-29.084l-8.594 2.89s12.822 39.986 20.99 46.367c0 0 .704 1.066 3.189.704 2.484-.361 21.657-20.21 21.657-20.21l-8.502-18.757z" fill="#FBBCBE"></path><path d="M444.26 108.324s-6.656 2.659-9.855 7.271c-3.198 4.613-12.423 25.537-12.423 25.537a28.462 28.462 0 0 0 16.326 12.041l15.622-28.714-9.67-16.135z" fill="#E86D5E"></path><path d="M436.009 176.412s.528 8.513.528 11.699l-14.611 74.387-7.75 40.995s64.952 3.196 79.859 0l1.595-30.844s2.132-53.722 0-69.153c-2.133-15.431-11.181-23.397-11.181-23.397l-2.661-7.41-45.779 3.723z" fill="#4B4260"></path><path d="M475.132 104.601s11.978 5.557 15.705 11.439c3.727 5.881 14.907 37.494 14.907 37.494s-12.506 4.539-23.418 4.539c0 0 1.057 10.105 2.123 13.291 1.066 3.186-2.661 4.52-2.661 4.52s-26.088 7.188-45.52 2.927c0 0-2.391-.528-2.391-1.593s.268-3.705.268-3.705-1.854-18.089-2.401-21.304c-.547-3.214-6.387-11.883-5.85-15.338.538-3.455 9.54-19.498 9.54-19.498s6.128-7.187 8.789-9.049c2.661-1.862 9.317-1.852 9.317-1.852l21.592-1.871z" fill="#FD7276"></path><path d="M452.437 95.033c0 .416 1.53 9.447-3.477 15.829-5.006 6.53 14.732 6.252 19.321-.417 4.172-5.965 3.755-6.937 3.755-6.937s-3.338-10.837-2.365-17.923c-.278-6.382-17.549-2.492-17.234 9.448z" fill="#FBBCBE"></path><path d="M452.307 57.353s-5.757 1.473-9.011 10.3c-3.254 8.827-1.085 27.593 1.085 29.797 2.169 2.204 8.77 1.362 17.93-1.658 9.669-3.186 12.979-13.236 14.666-19.859 3.31-12.69-7.732-25.75-24.67-18.58z" fill="#FBBCBE"></path><path d="M441.155 67.375s5.321 12.763 25.55 13.467l4.701 22.582s8.612 4.131 11.977 5.984c0 0 3.913-40.959-5.321-50.888-9.234-9.93-25.55-7.41-31.938-1.77-6.388 5.642-4.969 10.625-4.969 10.625z" fill="#2A2A2A"></path><path d="m475.132 104.601-4.524-4.252s-3.986 11.439-18.097 12.236a9.73 9.73 0 0 1-.797-7.188l-2.401 1.853s-5.053 7.187-4.524 9.308c.528 2.121 7.277-1.593 7.277-1.593s7.983 4.789 11.181 5.058c3.198.268 11.357-14.626 11.885-15.422z" fill="#fff"></path><path d="M467.021 80.518s2.132-3.52 4.273-2.223c2.142 1.297-1.362 9.263-4.273 9.439-2.912.176-1.354-5.178 0-7.216z" fill="#FBBCBE"></path><path d="m440.444 187.674-28.125 16.223 21.56 37.308 28.125-16.223-21.56-37.308z" fill="#fff"></path><path d="M467.057 202.116s-4.431 4.881-5.766 5.946c-1.335 1.065-10.375 1.853-10.375 1.853s-3.995 6.641-5.061 6.381c-1.067-.259-.798-1.065-.798-1.065s-.269-11.967.529-13.301c.797-1.333 13.841-5.048 13.841-5.048l1.604-1.852 6.026 7.086zM501.842 154.775c.361 1.066 3.198 9.402 4.635 13.653 1.437 4.252-30.52 26.602-35.489 30.501l-3.912 3.187-6.026-7.086 28.035-28.019-4.079-9.262 16.836-2.974z" fill="#FBBCBE"></path><path d="M55.993 351.917s1.474-3.745 6.97-2.748c5.496.996 6.127 2.255 6.766 5.475.64 3.219 2.53 6.745 3.8 7.489 1.27.745 5.913 4.49 9.722 5.245 3.81.756 4.227 3.493 3.383 4.741-.843 1.249-15.218 2.245-18.388 1.752 0 0-10.779-.251-13.31-1.248-2.53-.996.844-19.458 1.057-20.706z" fill="#030925"></path><path d="M49.905 273.586c-.399-2.744.156-5.551 1.557-7.876s3.548-4.003 6.025-4.709c9.202-3.163 10.914 1.437 13.693 10.03 2.778 8.592-2.393 82.013-2.393 82.013s-10.564 1.996-13.269.22c0 0-8.051-47.793-7.49-60.877.561-13.083 1.877-18.801 1.877-18.801z" fill="#4B4260"></path><path d="M54.263 350.37s12.052-1.056 15.853-1.686l-.213 5.484s-9.512 1.695-15.427.852l-.213-4.65z" fill="#645B7A"></path><path d="M51.305 108.361s-7.611.426-12.265 17.738c-4.654 17.311-7.611 38.439-5.915 43.922 1.697 5.484 19.868 20.276 26.635 20.276 6.768 0 7.185-5.067 5.915-9.263-1.27-4.195-14.37-15.625-14.37-15.625s10.57-33.79 10.143-42.663c-.427-8.874-5.498-14.385-10.143-14.385z" fill="url(#uosqi1x6tb)"></path><path d="m146.582 103.193-1.261.129 2.828-5.557s7.185-.454 8.344 2.584l-3.301 7.308-6.61-4.464zM150.624 87.299s-.278-5.715 1.752-6.53c2.031-.816 4.321.768 4.321.768s3.291-.333 4.348 1.075a6.337 6.337 0 0 1 .927 3.529 3.31 3.31 0 0 1 2.336 2.176c.482 1.77-.38 5.178-.38 5.178s-2.151 2.64-4.636 1.992c-2.484-.649-8.668-8.188-8.668-8.188z" fill="#FBBCBE"></path><path d="M146.86 91.911s-.77-7.484 0-8.466c.769-.981 9.057-12.393 9.057-12.393a4.146 4.146 0 0 1 .733 4.16c-.983 2.213-4.877 8.937-4.877 8.937v5.752a12.602 12.602 0 0 1-4.913 2.01z" fill="#FBBCBE"></path><path d="M147.462 97.867s-1.965-12.041-.621-13.672c1.345-1.63 7.936-.685 9.197-.213 1.261.473 4.747 4.965 5.229 6.734.482 1.77-2.781 8.142-4.775 9.559-1.993 1.417-7.88-.074-9.03-2.408z" fill="#FBBCBE"></path><path d="m142.827 105.823 2.531-4.631s5.924-1.056 8.882 3.585c.843 1.695.417 1.695.417 1.695l-1.854 3.797-9.976-4.446z" fill="#DEE0E8"></path><path d="M82.603 54.982s6.258 1.602 9.8 11.198c3.541 9.596 1.186 29.973-1.178 32.419-2.364 2.445-9.54 1.482-19.468-1.797C61.243 93.337 57.693 82.417 55.82 75.22c-3.616-13.838 8.38-28.028 26.783-20.238z" fill="#FBBCBE"></path><path d="m60.177 107.935 5.07-18.154s10.199-2.955 16.494 3.797l2.114 2.955v11.828a67.731 67.731 0 0 1-23.678-.426z" fill="#FBBCBE"></path><path d="M46.058 205.709a166.896 166.896 0 0 0 0 47.517c3.801 25.342 11.413 27.88 18.384 27.88 6.972 0 8.882-20.276 10.143-29.14 1.26-8.864 6.34-39.282-3.171-46.257-9.512-6.974-20.322-7.595-25.356 0z" fill="#4B4260"></path><path d="M72.646 235.488s-7.611-20.275 5.711-29.139c13.322-8.865 23.465-7.605 26.635 6.965 3.171 14.57 3.801 64.624-.639 74.757-4.441 10.133-20.285-5.696-31.707-52.583z" fill="#4B4260"></path><path d="M94.814 55.852s2.994 3.9 1.196 8.392c-1.799 4.493-8.4 6.299-8.4 6.299s2.105 3 0 7.197l-1.502 2.399s2.105 4.797 1.502 5.992c-.603 1.195-2.698.927-2.698.927s-2.4-6.595-3.3-5.993c-.9.602-3.3 3.594-3.3 6.298 0 2.705.927 4.789.296 6.595-.63 1.806-9.901 1.797-13.804 1.195-3.903-.602-9.901-12.588-11.403-17.988 0 0-2.105-7.493.927-13.791 0 0-.603-5.4 4.505-10.791 5.109-5.39 21.323-3.603 24.003-1.5 0 0-.297-3.002 2.697-2.4 2.995.602 7.482 3.27 9.28 7.17z" fill="#2A2A2A"></path><path d="M57.498 107.843s1.41-4.974 2.68-5.391c1.27-.417 16.91-2.112 25.364 2.955 3.802 2.954 3.384 5.066 3.384 5.066s-25.254-4.835-31.428-2.63z" fill="#DEE0E8"></path><path d="M54.262 106.675s26.209-1.695 44.806 6.336c8.455 4.224 27.813 23.332 27.813 23.332l15.223-31.677s8.557-3.066 11.94 4.964c0 0-9.613 37.374-17.614 49.202-5.071 4.224-29.268-9.503-29.268-9.503s3.801 48.998 2.531 70.96c-1.688 4.223-34.664 6.335-40.579 5.909-5.915-.426-26.635-7.178-27.062-8.447-.426-1.269 2.967-51.953 2.114-57.863-.853-5.909-3.374-35.058-2.53-39.282.843-4.223 4.588-12.245 12.626-13.931z" fill="url(#7v851h1w5c)"></path><path d="M82.158 354.594s1.483-3.168 6.981-2.325c5.498.843 6.128 1.852 6.758 4.631.63 2.779 2.54 5.696 3.81 6.336 1.271.639 5.916 3.797 9.717 4.436 3.801.639 4.227 2.955 3.384 4.011-.844 1.056-15.214 1.899-18.385 1.473 0 0-10.782-.204-13.322-1.056-2.54-.852.844-16.45 1.057-17.506z" fill="#030925"></path><path d="M84.39 277.612c-.12-2.672.716-5.295 2.346-7.36 1.629-2.065 3.934-3.424 6.469-3.815 9.452-1.923 10.714 2.626 12.602 11.175 1.888 8.55-10.704 78.284-10.704 78.284s-10.714.654-13.238-1.318c0 0-3.15-46.701-1.262-59.203 1.889-12.502 3.786-17.763 3.786-17.763z" fill="#4B4260"></path><path d="M81.287 355.65s8.242 2.325 15.223 1.056l.63-4.854-16.066-1.056.213 4.854z" fill="#645B7A"></path><path d="M294.517 95.033a18.917 18.917 0 0 0-.223 2.028c.068-.067.127-.142.177-.222v-.046l.092-.12c.186-.233.492-.575 1.002-1.103l.148-.148 1.001-.973a20.697 20.697 0 0 1 3.634-2.695l.176-.111 2.012-1.27 1.076-.666.157-.093c3.94-2.306 5.155-2.038 7.482-2.464l.547-.11-.529.166a33.49 33.49 0 0 0-7.296 3.427l-.092.056a39.198 39.198 0 0 0-3.069 2.084h-.046l-.51.389-.927.731a22.919 22.919 0 0 0-2.216 1.77 7.895 7.895 0 0 0-.603.639 13.892 13.892 0 0 0-2.902 6.224 7.03 7.03 0 0 1 1.169-2.26 5.995 5.995 0 0 1 3.634-2.418c.274-.026.55-.026.825 0 1.604.14 2.447 1.427 4.997 1.492a8.225 8.225 0 0 0 3.439-.677c.677-.268 2.346-1.046 5.034-4.353 1.975-2.427 2.225-4.214 4.45-6.094a16.157 16.157 0 0 1 4.413-2.668c-8.529-4.78-18.106-3.937-23.288 1.408a13.942 13.942 0 0 0-2.883 4.483c-.065.157-.121.324-.186.472a17.733 17.733 0 0 0-.695 3.122z" fill="url(#xz422wlxzd)"></path><path d="M280.323 83.723a6.821 6.821 0 0 1 2.086 2.492 17.09 17.09 0 0 1 .927 3.427c.371 1.519.566 2.278.631 2.427a7.142 7.142 0 0 0 3.764 3.704c.61.223 1.261.314 1.909.27a2.468 2.468 0 0 1 1.502.258c1.382.77 1.855 2.677 2.012 4.576a7.927 7.927 0 0 0 .176-3.705 7.388 7.388 0 0 0-.871-2.241l-.213-.37-.149-.242a5.845 5.845 0 0 1-3.365-.667.558.558 0 0 1-.427.186.576.576 0 0 1-.403-.984.579.579 0 0 1 .63-.118.574.574 0 0 1 .293.777 7.197 7.197 0 0 0 3.244.686c-.204-.306-.445-.64-.713-.991a15.116 15.116 0 0 0-1.493-1.64l-.083-.083-.112-.102a5.874 5.874 0 0 1-3.56-.546.554.554 0 0 1-.426.203.572.572 0 0 1-.543-.339.573.573 0 0 1 .733-.77.57.57 0 0 1 .366.526.429.429 0 0 1 0 .24 7.424 7.424 0 0 0 3.43.584 17.678 17.678 0 0 0-4.097-2.779.09.09 0 0 1 0 .047v.055l-.075.084a.827.827 0 0 1-.315.213.87.87 0 0 1-.593-1.63.86.86 0 0 1 .936 1.333 12.99 12.99 0 0 1 2.995 1.325c.352.213.676.435.992.667a6.1 6.1 0 0 0-1.076-2.15.591.591 0 0 1-.457.103.575.575 0 0 1-.364-.883.56.56 0 0 1 .367-.238.575.575 0 0 1 .677.445.593.593 0 0 1-.102.453c.582.68.984 1.496 1.168 2.372a13.65 13.65 0 0 1 2.828 2.982 6.874 6.874 0 0 0-.761-2.714.575.575 0 0 1-.843-.482.583.583 0 0 1 .556-.601.572.572 0 0 1 .593.555.564.564 0 0 1-.176.436c.534.898.804 1.928.779 2.973.213.306.398.611.565.926a14.538 14.538 0 0 1 1.076 2.288c.037-.68.111-1.357.222-2.029.175-1.107.454-2.196.835-3.25a3.518 3.518 0 0 0-.204-.473 12.977 12.977 0 0 0-3.347-3.946c-4.218-3.594-9.438-3.714-11.524-3.64z" fill="url(#3bq5rs8q7e)"></path><path d="M291.736 90.966c.438.843.697 1.767.76 2.714l.121.195a5.559 5.559 0 0 0-.779-2.974.557.557 0 0 0 .176-.435.571.571 0 0 0-.995-.369.573.573 0 0 0 .439.962.559.559 0 0 0 .278-.093z" fill="url(#a6pgyo220f)"></path><path d="M287.721 93.338a.574.574 0 0 0 .575.574.553.553 0 0 0 .426-.185 5.848 5.848 0 0 0 3.366.666l-.056-.083a7.204 7.204 0 0 1-3.245-.685.543.543 0 0 0 .056-.241.577.577 0 0 0-.575-.574.573.573 0 0 0-.575.574l.028-.046z" fill="url(#e4nb5fuj4g)"></path><path d="m289.511 90.559.185.139a5.323 5.323 0 0 0-1.168-2.371.598.598 0 0 0 .102-.454.575.575 0 0 0-.676-.445.567.567 0 0 0-.211 1.035.58.58 0 0 0 .665-.016 6.093 6.093 0 0 1 1.103 2.112z" fill="url(#30epb3x6xh)"></path><path d="M285.061 90.596a.564.564 0 0 0 .584.555.552.552 0 0 0 .427-.203c1.1.55 2.345.741 3.56.546l-.074-.065a7.426 7.426 0 0 1-3.431-.583.429.429 0 0 0 0-.24.562.562 0 0 0-.138-.453.58.58 0 0 0-.669-.144.575.575 0 0 0-.333.596l.074-.01z" fill="url(#zy8yjv6mmi)"></path><path d="M283.921 88.512a.926.926 0 0 0 1.112.519.822.822 0 0 0 .316-.214l.074-.083v-.055a.09.09 0 0 0 0-.047l-.343-.166.38.102a.857.857 0 0 0-.062-.803.86.86 0 0 0-1.424-.05.856.856 0 0 0-.118.797h.065z" fill="url(#b5zjbprb9j)"></path><path d="m291.681 90.828.083.138c.438.843.697 1.767.76 2.714l.121.195a5.559 5.559 0 0 0-.779-2.973l-.093-.13h-.046l-.046.055z" fill="#fff"></path><path d="M290.92 90.457a.573.573 0 0 0 .593.547.561.561 0 0 0 .251-.065h.064a.56.56 0 0 0 .177-.436.588.588 0 0 0-.182-.4.579.579 0 0 0-.412-.155.581.581 0 0 0-.491.509zm.565-.343a.326.326 0 0 1 .334.306.332.332 0 0 1-.102.24h-.139a.335.335 0 0 1-.324-.305.329.329 0 0 1 .231-.213v-.028zM288.333 88.28c.037.041.071.085.102.13a6.082 6.082 0 0 1 1.075 2.149l.186.139a5.334 5.334 0 0 0-1.168-2.371l-.121-.12-.074.073z" fill="#fff"></path><path d="M287.526 88.058a.583.583 0 0 0 .452.454.576.576 0 0 0 .457-.102h.056a.596.596 0 0 0 .102-.454.577.577 0 0 0-.677-.445.566.566 0 0 0-.39.547zm.501-.38a.315.315 0 0 1 .325.491.293.293 0 0 1-.121.056.325.325 0 0 1-.38-.25.314.314 0 0 1 .176-.297zM283.921 88.512a.925.925 0 0 0 1.112.519.822.822 0 0 0 .316-.214l.074-.083v-.055a.09.09 0 0 0 0-.047v-.055a.857.857 0 0 0-.062-.803.861.861 0 0 0-1.106-.315.855.855 0 0 0-.436 1.062l.102-.01zm.649-.75a.49.49 0 0 1 .593.676l-.046.055a.37.37 0 0 1-.176.102.483.483 0 0 1-.612-.287.483.483 0 0 1 .241-.546zM288.611 93.606l.139.084a5.848 5.848 0 0 0 3.366.667l-.056-.084a7.204 7.204 0 0 1-3.245-.685l-.148-.074-.056.092z" fill="#fff"></path><path d="M287.722 93.338a.573.573 0 0 0 .574.574.559.559 0 0 0 .427-.185.35.35 0 0 0 0-.065.573.573 0 0 0-.519-.815.576.576 0 0 0-.575.574l.093-.083zm.574-.315a.325.325 0 0 1 .316.324.353.353 0 0 1 0 .13.305.305 0 0 1-.232.101.326.326 0 0 1-.27-.32.326.326 0 0 1 .27-.319l-.084.084zM300.914 92.67a8.582 8.582 0 0 0 5.322 1.4h.231v-.158h-.231a11.397 11.397 0 0 1-5.257-1.26l-.065.019z" fill="#fff"></path><path d="M306.217 93.903a.414.414 0 0 0 0 .11v.121a.772.772 0 0 0 .445.491.812.812 0 0 0 .905-.146.814.814 0 0 0-.247-1.345.827.827 0 0 0-1.075.416.807.807 0 0 0-.028.353zm.399-.204a.449.449 0 0 1 .247-.241.453.453 0 0 1 .618.438.445.445 0 0 1-.634.396.41.41 0 0 1-.241-.27.13.13 0 0 1 0-.055.142.142 0 0 1 0-.064.484.484 0 0 1 .01-.204zM304.122 90.503l-.093.056a8.454 8.454 0 0 0 5.155.806l.232-.056V91.161h-.232a10.903 10.903 0 0 1-5.062-.658z" fill="#fff"></path><path d="M309.147 91.198v.102a.35.35 0 0 0 0 .065v.055a.84.84 0 0 0 .491.463.817.817 0 0 0 .994-1.131.818.818 0 0 0-1.504.094.928.928 0 0 0 .019.352zm.389-.24a.44.44 0 0 1 .393-.302.44.44 0 0 1 .172.023.465.465 0 0 1 .288.575.454.454 0 0 1-.229.26.445.445 0 0 1-.346.017.404.404 0 0 1-.269-.24v-.112a.367.367 0 0 1-.009-.222zM311.334 86.632c-.002.132.02.264.065.388a.13.13 0 0 0 0 .056.388.388 0 0 0 0 .084.936.936 0 0 0 .075.138l.055.075.056.074a1.206 1.206 0 0 0 .927.416 1.232 1.232 0 1 0-1.224-1.231h.046zm.612.277a.56.56 0 0 1-.065-.278.676.676 0 1 1 .177.464v-.065a.292.292 0 0 1-.112-.12zM300.497 91.624l.176-.111a8.631 8.631 0 0 1 1.53-3.335l.139-.157a.097.097 0 0 1-.033-.018.105.105 0 0 1-.023-.028h-.046l-.148.157a7 7 0 0 0-1.595 3.492z" fill="#fff"></path><path d="M301.934 87.456a.77.77 0 0 0 .139.584v.046h.046l.065.055c.089.067.19.114.297.14a.733.733 0 1 0-.575-.862l.028.037zm.436.435a.381.381 0 0 1-.065-.315.4.4 0 1 1 .788.158.391.391 0 0 1-.473.315.47.47 0 0 1-.157-.065l-.093-.093zM303.788 89.577l.158-.093a9.087 9.087 0 0 1 2.03-3.529l.148-.138-.046-.056v-.046l-.167.13a7.335 7.335 0 0 0-2.123 3.732z" fill="#fff"></path><path d="M305.818 85.826v.046l.065.065a.704.704 0 0 0 .278.167.724.724 0 1 0-.407-.325l.064.047zm.325-.111a.41.41 0 0 1-.008-.39.408.408 0 0 1 .75.316.41.41 0 0 1-.2.237.404.404 0 0 1-.31.022.394.394 0 0 1-.149-.084l-.083-.101zM285.96 90.828l.139.083c1.1.55 2.345.742 3.56.546l-.074-.064a7.421 7.421 0 0 1-3.43-.584l-.149-.065v.046l-.046.037z" fill="#fff"></path><rect x="37" y="373" width="473" height="5" rx="2.5" fill="#B2CAC6"></rect></g><defs><linearGradient id="uosqi1x6tb" x1="68.305" y1="148.479" x2="31.815" y2="149" gradientUnits="userSpaceOnUse"><stop stop-color="#FFD000"></stop><stop offset="1" stop-color="#FF7300"></stop></linearGradient><linearGradient id="7v851h1w5c" x1="160.952" y1="163.904" x2="38.798" y2="167.826" gradientUnits="userSpaceOnUse"><stop stop-color="#FFD000"></stop><stop offset="1" stop-color="#FF7300"></stop></linearGradient><linearGradient id="xz422wlxzd" x1="318.413" y1="94.913" x2="294.047" y2="90.185" gradientUnits="userSpaceOnUse"><stop offset=".01" stop-color="#32C72A"></stop><stop offset="1" stop-color="#368E2F"></stop></linearGradient><linearGradient id="3bq5rs8q7e" x1="293.726" y1="92.956" x2="277.764" y2="89.859" gradientUnits="userSpaceOnUse"><stop offset=".01" stop-color="#32C72A"></stop><stop offset="1" stop-color="#368E2F"></stop></linearGradient><linearGradient id="a6pgyo220f" x1="291.74" y1="91.385" x2="289.433" y2="90.937" gradientUnits="userSpaceOnUse"><stop offset=".01" stop-color="#32C72A"></stop><stop offset="1" stop-color="#368E2F"></stop></linearGradient><linearGradient id="e4nb5fuj4g" x1="290.902" y1="93.417" x2="286.478" y2="92.559" gradientUnits="userSpaceOnUse"><stop offset=".01" stop-color="#32C72A"></stop><stop offset="1" stop-color="#368E2F"></stop></linearGradient><linearGradient id="30epb3x6xh" x1="288.722" y1="88.578" x2="286.096" y2="88.068" gradientUnits="userSpaceOnUse"><stop offset=".01" stop-color="#32C72A"></stop><stop offset="1" stop-color="#368E2F"></stop></linearGradient><linearGradient id="zy8yjv6mmi" x1="288.415" y1="90.694" x2="283.818" y2="89.802" gradientUnits="userSpaceOnUse"><stop offset=".01" stop-color="#32C72A"></stop><stop offset="1" stop-color="#368E2F"></stop></linearGradient><linearGradient id="b5zjbprb9j" x1="284.335" y1="87.719" x2="282.637" y2="87.389" gradientUnits="userSpaceOnUse"><stop offset=".01" stop-color="#32C72A"></stop><stop offset="1" stop-color="#368E2F"></stop></linearGradient><clipPath id="uix0q9slza"><path fill="#fff" d="M0 0h510v378H0z"></path></clipPath></defs></svg>