<svg xmlns="http://www.w3.org/2000/svg" width="435" height="383" viewBox="0 0 435 383" fill="none"><g clip-path="url(#9hljahelqa)"><mask id="xij7d257jb" fill="#fff"><path d="M184.868 125.038H84.119a9.15 9.15 0 0 1-6.453-2.671 9.105 9.105 0 0 1-2.677-6.436V46.823a9.107 9.107 0 0 1 2.677-6.437 9.152 9.152 0 0 1 6.453-2.67h100.749a9.152 9.152 0 0 1 6.453 2.67 9.11 9.11 0 0 1 2.677 6.437v69.108a9.108 9.108 0 0 1-2.677 6.436 9.151 9.151 0 0 1-6.453 2.671zM84.119 38.348a8.517 8.517 0 0 0-6.005 2.485 8.476 8.476 0 0 0-2.491 5.99v69.108a8.474 8.474 0 0 0 2.491 5.989 8.518 8.518 0 0 0 6.005 2.486h100.749a8.518 8.518 0 0 0 6.005-2.486 8.477 8.477 0 0 0 2.491-5.989V46.823a8.479 8.479 0 0 0-2.491-5.99 8.517 8.517 0 0 0-6.005-2.485H84.119z"></path></mask><path d="M184.868 125.038H84.119a9.15 9.15 0 0 1-6.453-2.671 9.105 9.105 0 0 1-2.677-6.436V46.823a9.107 9.107 0 0 1 2.677-6.437 9.152 9.152 0 0 1 6.453-2.67h100.749a9.152 9.152 0 0 1 6.453 2.67 9.11 9.11 0 0 1 2.677 6.437v69.108a9.108 9.108 0 0 1-2.677 6.436 9.151 9.151 0 0 1-6.453 2.671zM84.119 38.348a8.517 8.517 0 0 0-6.005 2.485 8.476 8.476 0 0 0-2.491 5.99v69.108a8.474 8.474 0 0 0 2.491 5.989 8.518 8.518 0 0 0 6.005 2.486h100.749a8.518 8.518 0 0 0 6.005-2.486 8.477 8.477 0 0 0 2.491-5.989V46.823a8.479 8.479 0 0 0-2.491-5.99 8.517 8.517 0 0 0-6.005-2.485H84.119z" fill="#78C2FF"></path><path d="m84.119 125.038-.001 1h.001v-1zm-9.13-9.107h-1v.001l1-.001zm0-69.108h-1 1zm9.13-9.107v-1h-.001l.001 1zm100.749 0 .001-1h-.001v1zm9.13 9.107h1-1zm0 69.108 1 .001v-.001h-1zM84.119 38.348v-1h-.001l.001 1zm-8.496 8.475h-1 1zm0 69.108h-1v.001l1-.001zm8.496 8.475-.001 1h.001v-1zm100.749 0v1h.001l-.001-1zm8.496-8.475 1 .001v-.001h-1zm0-69.108h1-1zm-8.496-8.475.001-1h-.001v1zm0 85.69H84.119v2h100.749v-2zm-100.748 0a8.152 8.152 0 0 1-5.747-2.379l-1.413 1.416a10.149 10.149 0 0 0 7.158 2.963l.002-2zm-5.747-2.379a8.105 8.105 0 0 1-2.384-5.73l-2 .003a10.104 10.104 0 0 0 2.971 7.143l1.413-1.416zm-2.384-5.728V46.823h-2v69.108h2zm0-69.107a8.106 8.106 0 0 1 2.384-5.73L76.96 39.68a10.106 10.106 0 0 0-2.97 7.143l2 .002zm2.384-5.73a8.151 8.151 0 0 1 5.747-2.378l-.002-2a10.151 10.151 0 0 0-7.158 2.963l1.413 1.415zm5.746-2.378h100.749v-2H84.119v2zm100.748 0a8.15 8.15 0 0 1 5.747 2.378l1.413-1.415a10.15 10.15 0 0 0-7.158-2.963l-.002 2zm5.747 2.378a8.105 8.105 0 0 1 2.384 5.73l2-.002a10.106 10.106 0 0 0-2.971-7.143l-1.413 1.415zm2.384 5.73v69.107h2V46.823h-2zm0 69.105a8.105 8.105 0 0 1-2.384 5.73l1.413 1.416a10.105 10.105 0 0 0 2.971-7.143l-2-.003zm-2.384 5.73a8.151 8.151 0 0 1-5.747 2.379l.002 2a10.149 10.149 0 0 0 7.158-2.963l-1.413-1.416zM84.118 37.349a9.517 9.517 0 0 0-6.71 2.777l1.413 1.415a7.517 7.517 0 0 1 5.3-2.193l-.003-2zm-6.71 2.777a9.475 9.475 0 0 0-2.785 6.696l2 .002a7.475 7.475 0 0 1 2.198-5.283l-1.413-1.415zm-2.785 6.697v69.108h2V46.823h-2zm0 69.109a9.473 9.473 0 0 0 2.785 6.696l1.413-1.416a7.472 7.472 0 0 1-2.198-5.283l-2 .003zm2.785 6.696a9.517 9.517 0 0 0 6.71 2.778l.002-2a7.52 7.52 0 0 1-5.3-2.194l-1.412 1.416zm6.711 2.778h100.749v-2H84.119v2zm100.75 0a9.516 9.516 0 0 0 6.71-2.778l-1.413-1.416a7.518 7.518 0 0 1-5.299 2.194l.002 2zm6.71-2.778a9.473 9.473 0 0 0 2.785-6.696l-2-.003a7.468 7.468 0 0 1-2.198 5.283l1.413 1.416zm2.785-6.697V46.823h-2v69.108h2zm0-69.109a9.475 9.475 0 0 0-2.785-6.697l-1.413 1.416a7.47 7.47 0 0 1 2.198 5.284l2-.003zm-2.785-6.697a9.516 9.516 0 0 0-6.71-2.777l-.002 2a7.516 7.516 0 0 1 5.299 2.193l1.413-1.415zm-6.711-2.777H84.119v2h100.749v-2z" fill="#65BF94" mask="url(#xij7d257jb)"></path><path d="M326.291 313.783h-6.346v-1.036h6.346v1.036zm-12.692 0h-6.346v-1.036h6.346v1.036zm-12.692 0h-6.346v-1.036h6.346v1.036zm-12.692 0h-6.357v-1.036h6.346l.011 1.036zm-12.693 0h-6.346v-1.036h6.346v1.036zm-12.692 0h-6.336v-1.036h6.336v1.036zm-12.682 0h-6.346v-1.036h6.346v1.036zm-12.692 0h-6.346v-1.036h6.346v1.036zm-12.693 0h-6.346v-1.036h6.315l.031 1.036zm-12.692 0h-6.346v-1.036h6.346v1.036zm-12.692 0h-6.346v-1.036h6.346v1.036zm-12.692 0h-6.347v-1.036h6.347v1.036zm-12.693 0h-6.387v-1.036h6.346l.041 1.036zm-12.692 0h-6.346v-1.036h6.346v1.036zm-12.692 0h-6.347v-1.036h6.347v1.036zm184.142-.156-.166-1.036a11.792 11.792 0 0 0 5.505-2.404l.654.829a12.954 12.954 0 0 1-5.993 2.611zm-196.845-1.036a12.944 12.944 0 0 1-5.006-4.206l.872-.612a11.83 11.83 0 0 0 4.591 3.865l-.457.953zm206.764-6.776-.976-.394c.571-1.405.864-2.907.862-4.424v-1.585h1.038v1.585a12.676 12.676 0 0 1-.966 4.777l.042.041zm-214.097-3.585a12.831 12.831 0 0 1-.062-1.274v-5.108h1.038v5.108c0 .391.021.782.063 1.171l-1.039.103zm215.001-9.19h-1.039v-6.33h1.039v6.33zm-213.962-3.523h-1.039v-6.33h1.039v6.33zm213.962-9.138h-1.039v-6.33h1.039v6.33zm-213.962-3.523h-1.039v-6.33h1.039v6.33zm213.962-9.138h-1.039v-6.33h1.039v6.33zm-213.962-3.523h-1.039v-6.33h1.039v6.33zm213.962-9.138h-1.039v-6.331h1.039v6.331zm-213.962-3.523h-1.039v-6.32h1.039v6.32zm213.962-9.138h-1.039v-6.331h1.039v6.331zm-213.962-3.512h-1.039v-6.331h1.039v6.331zm213.962-9.149h-1.039v-6.331h1.039v6.331zm-213.962-3.512h-1.039v-6.331h1.039v6.331zm213.962-9.149h-1.039v-6.331h1.039v6.331zm-213.962-3.512h-1.039v-6.341h1.039v6.341zm213.962-9.149h-1.039v-6.331h1.039v6.331zm-213.962-3.512h-1.039v-6.331h1.039v6.331zm213.962-9.149h-1.039v-6.289h1.039v6.289zm-213.962-3.513h-1.039v-6.33h1.039v6.33zm213.962-9.148h-1.039v-6.331h1.039v6.331zm-213.962-3.513h-1.039v-6.33h1.039v6.33zm213.962-9.148h-1.039v-6.331h1.039v6.331zm-213.962-3.513h-1.039v-6.33h1.039v6.33zm213.962-9.148h-1.039v-6.32h1.039v6.32zm-213.962-3.513h-1.039v-6.33h1.039v6.33zm213.962-9.138h-1.039v-6.33h1.039v6.33zm-213.962-3.523h-1.039v-6.33h1.039v6.33zm213.962-9.138h-1.039v-6.33h1.039v6.33zm-213.962-3.523h-1.039v-6.33h1.039v6.33zm213.962-9.138h-1.039v-6.331h1.039v6.331zm-213.962-3.523h-1.039v-6.33h1.039v6.33zm213.962-9.138h-1.039v-6.33h1.039v6.33zm-213.962-3.523h-1.039v-6.361h1.039v6.361zm213.962-9.138h-1.039v-6.33h1.039v6.33zM129.613 86.95h-1.039v-6.33h1.039v6.33zm213.962-9.138h-1.039v-6.32h1.039v6.32zM129.613 74.3h-1.039v-6.33h1.039v6.33zm213.962-9.15h-1.039v-6.33h1.039v6.33zM129.613 61.64h-1.039v-6.331h1.039v6.33zm213.962-9.15h-1.039v-6.33a11.527 11.527 0 0 0-.239-2.32l1.039-.218c.171.835.254 1.686.249 2.538l-.01 6.33zm-213.962-3.512h-1.039V46.16c0-1.223.175-2.441.519-3.616l1.039.3a11.85 11.85 0 0 0-.478 3.316l-.041 2.819zm210.056-10.516a11.751 11.751 0 0 0-4.954-3.388l.363-1.036a12.826 12.826 0 0 1 5.391 3.689l-.8.735zm-206.473-.746-.737-.756a12.923 12.923 0 0 1 5.702-3.212l.27 1.036a11.766 11.766 0 0 0-5.277 2.932h.042zm195.401-3.326h-6.346v-1.036h6.346v1.036zm-12.692 0h-6.336v-1.036h6.336v1.036zm-12.692 0h-6.336v-1.036h6.336v1.036zm-12.682 0h-6.346v-1.036h6.346v1.036zm-12.693 0h-6.366v-1.036h6.346l.02 1.036zm-12.692 0H258.8v-1.036h6.346v1.036zm-12.692 0h-6.346v-1.036h6.346v1.036zm-12.692 0h-6.347v-1.036h6.347v1.036zm-12.693 0h-6.346v-1.036h6.346v1.036zm-12.692 0h-6.346v-1.036h6.315l.031 1.036zm-12.692 0h-6.347v-1.036h6.347v1.036zm-12.693 0h-6.346v-1.036h6.346v1.036zm-12.692 0h-6.346v-1.036h6.346v1.036zm-12.692 0h-6.388v-1.036h6.346l.042 1.036zm-12.693 0h-6.346v-1.036h6.346v1.036z" fill="#97D7C1"></path><g clip-path="url(#ox9adaslxc)"><path d="M325.065 70.032a56.173 56.173 0 0 0-1.28 5.806l-.018.06c.208-.177.398-.374.568-.587.007-.02.01-.03.032-.033a.377.377 0 0 0 .068-.077s.005-.017.028-.02a.607.607 0 0 0 .067-.077c.037-.045.078-.087.122-.125.096-.1.191-.198.29-.308l.048-.05s.007-.02.029-.024c.023-.003.041-.038.064-.063.022-.026.009-.03.032-.034.022-.004.006-.02.009-.03.624-.612 1.597-1.515 3.247-2.873.154-.125.316-.263.482-.39.877-.707 1.923-1.54 3.199-2.511 3.222-2.466 5.926-3.967 11.362-6.66l.551-.274c1.76-.868 3.801-1.86 6.219-3.044 1.18-.574 2.291-1.1 3.335-1.577l.464-.217c12.139-5.457 15.567-4.285 22.42-4.78a41.813 41.813 0 0 0 1.614-.144c-.199.036-.741.132-1.578.292-3.353.663-11.52 2.6-22.165 7.63l-.283.133a125.392 125.392 0 0 0-9.55 5.07l-.133.082c-.534.311-1.066.63-1.606.948-.962.587-1.935 1.199-2.92 1.836-1.537.995-4.164 2.202-6.988 4.422a25.197 25.197 0 0 0-1.96 1.66c-6.387 6.018-9.27 13.555-10.374 17.104a21.14 21.14 0 0 1 4.089-6.182c1.14-1.184 5.429-5.63 11.288-5.844.801-.031 1.603.03 2.389.184 4.59.908 6.61 4.902 13.95 5.888 3.413.43 6.879.136 10.172-.866 2.027-.575 7.108-2.29 15.921-11.025 6.483-6.43 7.806-11.507 14.806-16.269a47.153 47.153 0 0 1 13.635-6.298c-23.087-16.55-51.049-17.131-67.716-3.288a40.488 40.488 0 0 0-9.77 12.098c-.241.428-.467.875-.686 1.302a51.471 51.471 0 0 0-3.473 9.155z" fill="url(#e64q4bhhvd)"></path><path d="M287.69 32.78c3.136 3.028 4.54 5.894 5.238 7.894.842 2.431.82 3.987 1.636 10.226.579 4.52.891 6.787 1.03 7.235.236.76 2.678 8.467 9.681 11.917a13.16 13.16 0 0 0 5.433 1.363c1.485.1 2.756.18 4.261 1.246 3.751 2.662 4.548 8.349 4.34 13.887A23.324 23.324 0 0 0 321 75.976c-.066-.82-.302-3.219-1.796-6.778a34.953 34.953 0 0 0-.504-1.14c-.113-.242-.212-.479-.35-.731-3.325-.113-6.906-1.004-9.502-2.995l-.093.09a1.67 1.67 0 0 1-2.133.078 1.667 1.667 0 0 1-.46-2.086 1.67 1.67 0 0 1 1.965-.837 1.666 1.666 0 0 1 .932 2.484c2.689 1.796 5.94 2.588 9.168 3.01a40.42 40.42 0 0 0-1.743-3.097 44.443 44.443 0 0 0-3.787-5.226l-.223-.269-.288-.328c-3.465.072-7.297-.683-10.106-2.698a1.67 1.67 0 0 1-2.221.24 1.665 1.665 0 0 1-.527-2.072 1.676 1.676 0 0 1 1.94-.898 1.665 1.665 0 0 1 1.229 1.747c-.018.25-.094.492-.221.709 2.872 1.791 6.346 2.468 9.725 2.764a51.07 51.07 0 0 0-10.946-9.288c-.03.044-.063.087-.098.128a2.517 2.517 0 0 1-.363.365 2.523 2.523 0 0 1-4.14-1.855 2.539 2.539 0 0 1 2.219-2.61 2.522 2.522 0 0 1 2.785 1.981 2.54 2.54 0 0 1-.294 1.815 37.365 37.365 0 0 1 10.888 7.028 18.576 18.576 0 0 0-2.413-6.58 1.66 1.66 0 0 1-2.453-.991 1.67 1.67 0 0 1 2.008-2.064 1.66 1.66 0 0 1 1.26 1.718 1.678 1.678 0 0 1-.449 1.042c-.032.034-.062.06-.093.09 1.486 2.043 2.307 4.637 2.622 7.242a38.835 38.835 0 0 1 7.204 9.534c.051-2.776-.24-5.576-1.316-8.102a1.664 1.664 0 0 1-2.211-2.003 1.666 1.666 0 0 1 1.407-1.212 1.666 1.666 0 0 1 1.863 1.783 1.663 1.663 0 0 1-.648 1.202l-.106.075c1.32 2.624 1.633 5.839 1.322 8.846a44.303 44.303 0 0 1 3.093 7.597c.257.832.452 1.586.607 2.188a.077.077 0 0 0 .032-.034 56.173 56.173 0 0 1 1.28-5.805 51.47 51.47 0 0 1 3.464-9.14 13.612 13.612 0 0 0-.433-1.426c-1.88-5.44-6.122-10.016-8.419-12.493-10.886-11.733-25.924-13.741-31.987-14.194z" fill="url(#zh04gqfd5e)"></path><path d="M318.415 57.393c1.077 2.526 1.368 5.326 1.316 8.102l.311.588c.311-3.006-.002-6.221-1.322-8.845l.106-.075a1.676 1.676 0 0 0-.218-2.796 1.665 1.665 0 0 0-2.197.566 1.673 1.673 0 0 0 .135 1.995 1.664 1.664 0 0 0 1.869.465z" fill="url(#e8rbpnl6mf)"></path><path d="M305.981 62.993a1.66 1.66 0 0 0 .186.976 1.66 1.66 0 0 0 1.683.867c.335-.044.65-.189.902-.415l.093-.09c2.606 1.994 6.177 2.882 9.501 2.995l-.132-.258c-3.219-.42-6.479-1.215-9.168-3.012.131-.213.214-.453.243-.702a1.665 1.665 0 0 0-2.701-1.486 1.676 1.676 0 0 0-.617 1.122l.01.003z" fill="url(#ndwqw4udqg)"></path><path d="m312.045 55.504.483.457c-.316-2.605-1.136-5.2-2.623-7.242.031-.03.061-.056.093-.09a1.674 1.674 0 0 0 .131-2.135 1.661 1.661 0 0 0-2.072-.512 1.679 1.679 0 0 0-.882 1.95 1.665 1.665 0 0 0 2.457.992 18.577 18.577 0 0 1 2.413 6.58z" fill="url(#uqdm1le5oh)"></path><path d="M299.176 54.208a1.67 1.67 0 0 0 .945 1.663 1.664 1.664 0 0 0 1.885-.322.937.937 0 0 0 .09-.091c2.809 2.014 6.637 2.783 10.106 2.698l-.18-.208c-3.38-.296-6.854-.973-9.725-2.764.127-.216.202-.46.22-.71a1.674 1.674 0 0 0-2.756-1.411c-.338.29-.549.701-.585 1.145z" fill="url(#cbvh22l1ei)"></path><path d="M296.548 47.794a2.507 2.507 0 0 0 2.896 1.88 2.523 2.523 0 0 0 1.601-1.023c-.325-.21-.642-.406-.958-.598l-.057-.036.069.022c.344.135.7.278 1.059.433a2.523 2.523 0 0 0-.665-3.31 2.505 2.505 0 0 0-2.34-.346 2.529 2.529 0 0 0-1.604 2.975l-.001.003z" fill="url(#4ds75ey55j)"></path><path d="M318.225 56.962c.064.142.131.286.194.421 1.076 2.526 1.367 5.326 1.315 8.102l.312.588c.311-3.006-.003-6.221-1.323-8.845a15.819 15.819 0 0 0-.226-.432.661.661 0 0 1-.118.076l-.154.09z" fill="#fff"></path><path d="M316.148 55.713a1.664 1.664 0 0 0 2.462 1.588l.11-.063.106-.075a1.676 1.676 0 0 0-.218-2.796 1.665 1.665 0 0 0-2.197.566 1.686 1.686 0 0 0-.263.78zm1.733-.8a.916.916 0 0 1 .632.316.926.926 0 0 1 .222.672.899.899 0 0 1-.35.65.21.21 0 0 1-.043.035.55.55 0 0 1-.091.058l-.117.054a.927.927 0 0 1-.792-.075.924.924 0 0 1 .138-1.654.922.922 0 0 1 .403-.063l-.002.007zM309.369 48.528c.089.132.179.261.263.396a18.56 18.56 0 0 1 2.414 6.58l.482.457c-.316-2.605-1.136-5.2-2.623-7.242l-.29-.379a.602.602 0 0 1-.108.093c-.044.035-.09.066-.138.095z" fill="#fff"></path><path d="M307.121 47.635a1.674 1.674 0 0 0 .588 1.135 1.66 1.66 0 0 0 1.218.38 1.638 1.638 0 0 0 .88-.346c.034-.029.068-.055.099-.085.031-.03.061-.057.093-.09.191-.204.328-.451.398-.721a1.665 1.665 0 0 0-1.066-2.002 1.667 1.667 0 0 0-2.077.916 1.68 1.68 0 0 0-.133.813zm1.582-1.069a.92.92 0 0 1 .998.838.912.912 0 0 1-.358.815c-.033.026-.069.048-.105.072a.943.943 0 0 1-.376.119.926.926 0 0 1-.998-.852.928.928 0 0 1 .853-1.002l-.014.01zM296.548 47.794a2.518 2.518 0 0 0 1.644 1.792 2.514 2.514 0 0 0 2.632-.664c.044-.045.085-.093.123-.143.036-.04.068-.084.098-.129l.01-.033c.033-.047.063-.096.093-.145a2.534 2.534 0 0 0 .109-2.368 2.51 2.51 0 0 0-3.115-1.288 2.518 2.518 0 0 0-1.596 1.753c-.103.4-.105.82-.008 1.222l.01.003zm2.117-1.955a1.375 1.375 0 0 1 1.684 1.025 1.389 1.389 0 0 1-.477 1.404 1.391 1.391 0 0 1-2.051-1.817c.192-.316.502-.544.861-.632l-.017.02zM308.472 64.03c.12.103.244.203.373.3 2.605 1.995 6.176 2.883 9.501 2.996l-.133-.259c-3.218-.42-6.479-1.214-9.168-3.01l-.392-.27a1.318 1.318 0 0 1-.097.136.461.461 0 0 1-.084.107z" fill="#fff"></path><path d="M305.981 62.993a1.66 1.66 0 0 0 .186.975 1.66 1.66 0 0 0 1.683.868c.335-.044.65-.189.902-.415l.093-.09.084-.097c.043-.056.086-.115.127-.175a1.67 1.67 0 0 0-1.231-2.547 1.676 1.676 0 0 0-1.844 1.48zm1.758-.735a.922.922 0 0 1 .817 1.017.942.942 0 0 1-.117.376l-.076.106a.96.96 0 0 1-.076.082s-.008.026-.036.036a.914.914 0 0 1-1.051.112.92.92 0 0 1-.358-1.254.927.927 0 0 1 .91-.47l-.013-.005zM344.312 65.215c4.109 3.228 9.622 5.818 14.93 5.718.224-.003.451-.012.68-.028a1.102 1.102 0 0 1-.022-.198c-.003-.08-.001-.16.003-.241a13.9 13.9 0 0 1-.673-.018c-5.259-.25-10.281-2.647-14.781-5.327l-.137.094z" fill="#fff"></path><path d="M359.226 70.462a2.779 2.779 0 0 0 .012.484 2.364 2.364 0 0 0 3.902 1.484 2.377 2.377 0 0 0 .487-2.996 2.357 2.357 0 0 0-2.851-1.019 2.378 2.378 0 0 0-1.55 2.047zm1.23-.472a1.326 1.326 0 0 1 1.582-.592 1.314 1.314 0 0 1 .867 1.448 1.326 1.326 0 0 1-1.263 1.122 1.317 1.317 0 0 1-1.331-1.036c.006-.02-.011-.047-.014-.073a.867.867 0 0 1-.014-.153 2.949 2.949 0 0 1 .001-.187c.021-.187.079-.367.172-.53zM354.278 59.93l-.283.134c4.266 2.622 9.639 4.477 14.627 3.967.227-.024.449-.053.675-.084a.932.932 0 0 1-.036-.196 1.75 1.75 0 0 1-.016-.24c-.225.017-.449.031-.675.037-4.935.19-9.82-1.52-14.292-3.617z" fill="#fff"></path><path d="M368.57 63.548c.001.101.009.203.022.303.01.061.016.121.03.18a2.351 2.351 0 0 0 1.108 1.533 2.357 2.357 0 0 0 2.658-3.876 2.346 2.346 0 0 0-3.195.25 2.363 2.363 0 0 0-.623 1.61zm1.187-.576a1.313 1.313 0 0 1 1.515-.71 1.307 1.307 0 0 1 .975 1.359 1.313 1.313 0 0 1-2.019 1.014 1.312 1.312 0 0 1-.538-.707l-.02-.075a1.137 1.137 0 0 1-.028-.153c-.007-.06-.009-.123-.011-.185.004-.188.046-.373.126-.543zM376.35 50.991a3.62 3.62 0 0 0 .057 1.161c.01.05.024.098.037.149.013.05.048.181.078.27a4.2 4.2 0 0 0 .308.656c.045.076.099.158.155.233a3.565 3.565 0 0 0 4.42 1.172 3.588 3.588 0 0 0 .592-6.153 3.564 3.564 0 0 0-2.338-.666 3.581 3.581 0 0 0-3.307 3.172l-.002.006zm1.671 1.018a2.037 2.037 0 0 1-.081-.84 1.993 1.993 0 0 1 1.829-1.762 1.981 1.981 0 0 1 2.064 1.473 1.994 1.994 0 0 1-2.41 2.44 1.978 1.978 0 0 1-1.116-.756l-.065-.092a1.461 1.461 0 0 1-.113-.205 2.009 2.009 0 0 1-.108-.258zM343.431 62.04l.55-.273c1.275-3.377 2.976-6.629 5.498-9.145.142-.144.284-.274.435-.422a1.473 1.473 0 0 1-.254-.3 15.14 15.14 0 0 0-.465.395c-2.791 2.45-4.69 6.072-5.764 9.746z" fill="#fff"></path><path d="M348.912 50.42a2.129 2.129 0 0 0 .185 1.725l.09.14.097.128c.059.07.122.136.188.2a2.122 2.122 0 0 0 3.077-.185 2.133 2.133 0 0 0 .263-2.35 2.124 2.124 0 0 0-2.065-1.138 2.13 2.13 0 0 0-1.845 1.477l.01.003zm1.124 1.398a.674.674 0 0 1-.084-.113l-.036-.058c-.134-.238-.182-.515-.134-.785a1.181 1.181 0 0 1 1.143-.97 1.17 1.17 0 0 1 1.042 1.732 1.175 1.175 0 0 1-1.388.561 1.145 1.145 0 0 1-.431-.25 1.118 1.118 0 0 1-.116-.104l.004-.013zM353.535 57.147l.465-.218c1.727-3.613 3.911-7.105 7.011-9.587.159-.128.319-.262.475-.37a3.46 3.46 0 0 1-.129-.174 1.136 1.136 0 0 1-.09-.154c-.171.11-.34.224-.505.339-3.36 2.364-5.788 6.248-7.227 10.164z" fill="#fff"></path><path d="M360.689 46.844c.021.05.046.1.073.146l.083.141a2.114 2.114 0 0 0 3.035.542 2.125 2.125 0 0 0-.722-3.761 2.127 2.127 0 0 0-2.469 2.933zm.958-.227a1.355 1.355 0 0 1-.071-.12l-.027-.062a1.177 1.177 0 0 1-.098-.472 1.188 1.188 0 0 1 .548-.99 1.174 1.174 0 0 1 1.776 1.25 1.184 1.184 0 0 1-.945.904 1.172 1.172 0 0 1-1.183-.51zM301.682 55.163c.128.098.253.195.384.286 2.808 2.014 6.637 2.783 10.106 2.698l-.181-.208c-3.379-.296-6.854-.973-9.725-2.764l-.395-.26c-.033.047-.063.096-.098.14a.634.634 0 0 1-.091.108z" fill="#fff"></path><path d="M299.176 54.208a1.67 1.67 0 0 0 .945 1.663 1.664 1.664 0 0 0 1.885-.322.937.937 0 0 0 .09-.091 2.175 2.175 0 0 0 .201-.274c.127-.216.202-.46.22-.71a1.674 1.674 0 0 0-2.756-1.411c-.338.29-.549.701-.585 1.145zm1.74-.79a.918.918 0 0 1 .739.484.926.926 0 0 1-.007.885c-.013.043-.045.077-.071.112-.025.036-.046.055-.071.08-.026.024-.027.027-.038.038a.93.93 0 0 1-.852.22.921.921 0 0 1-.687-1.046.93.93 0 0 1 .539-.698.925.925 0 0 1 .448-.076z" fill="#fff"></path></g><path d="M317.172 54.729H127.837c-6.809 0-12.329 5.506-12.329 12.298v254.785c0 6.792 5.52 12.299 12.329 12.299h189.335c6.809 0 12.329-5.507 12.329-12.299V67.027c0-6.792-5.52-12.298-12.329-12.298z" fill="#E4F4EF"></path><path opacity=".85" d="M249 248.878V332H120v-82.181a7.83 7.83 0 0 1 7.829-7.819h114.295a6.877 6.877 0 0 1 6.876 6.878z" fill="#34AB71"></path><path d="M156.825 230.512a27.05 27.05 0 0 0 24.31-3.514 26.95 26.95 0 0 0 8.316-9.485 26.879 26.879 0 0 0 3.083-12.219v-1.814a26.897 26.897 0 0 0-4.641-13.625 26.986 26.986 0 0 0-11.011-9.298 27.06 27.06 0 0 0-27.64 3.008 26.942 26.942 0 0 0-8.741 11.447 26.875 26.875 0 0 0-1.587 14.304 26.914 26.914 0 0 0 6.021 13.077 27.007 27.007 0 0 0 11.911 8.119h-.021zm-11.612-25.83a20.21 20.21 0 0 1 4.887-12.879 20.305 20.305 0 0 1 12.016-6.782c4.676-.79 9.483.078 13.584 2.455a20.256 20.256 0 0 1 8.868 10.555 20.03 20.03 0 0 1 1.184 5.812v1.347a20.21 20.21 0 0 1-6.125 14.232 20.31 20.31 0 0 1-14.42 5.744 20.311 20.311 0 0 1-14.267-6.11 20.206 20.206 0 0 1-5.758-14.384l.031.01z" fill="#A6DECB"></path><path d="m181.535 217.333 5.349 4.144a27.111 27.111 0 0 1-13.584 9.303 27.175 27.175 0 0 1-16.475-.258l2.171-6.403a20.324 20.324 0 0 0 12.356.21 20.28 20.28 0 0 0 10.183-6.986v-.01z" fill="#419D71"></path><path d="m185.751 203.853 6.762-.373v1.814a26.805 26.805 0 0 1-5.661 16.173l-5.349-4.144a20.156 20.156 0 0 0 4.248-12.133c.031-.446.021-.891 0-1.337z" fill="#59B387"></path><path d="M185.751 203.853a19.996 19.996 0 0 0-1.184-5.812l6.367-2.3a26.995 26.995 0 0 1 1.579 7.75l-6.762.362z" fill="#59B387"></path><path d="M149.222 183.391a27.11 27.11 0 0 1 34.829 1.905 26.987 26.987 0 0 1 6.883 10.434l-6.367 2.311a20.24 20.24 0 0 0-5.184-7.84 20.303 20.303 0 0 0-8.174-4.661 20.338 20.338 0 0 0-18.009 3.331l-3.978-5.48z" fill="#71C59D"></path><path d="M155.766 241.091a9.639 9.639 0 0 0-4.095-3.127 9.66 9.66 0 0 0-9.813 1.572 9.618 9.618 0 0 0-2.908 4.248 9.638 9.638 0 0 0-.498 2.964 9.611 9.611 0 0 0 3.697 7.708 9.475 9.475 0 0 0 5.006 1.969c.253.015.506.015.759 0 .159.01.318.01.477 0h.177a9.776 9.776 0 0 0 2.763-.56 9.624 9.624 0 0 0 5.937-6.297 9.596 9.596 0 0 0-1.533-8.509l.031.032zm-5.193 12.547a7.138 7.138 0 0 1-2.078.424h-.488a6.806 6.806 0 0 1-1.963-.3 7.282 7.282 0 0 1-2.358-1.202c-.251-.2-.49-.415-.716-.642a7.108 7.108 0 0 1-2.078-5.181 7.366 7.366 0 0 1 .177-1.523c.062-.228.125-.466.197-.694a7.211 7.211 0 0 1 5.151-4.676 7.235 7.235 0 0 1 6.715 1.843 7.187 7.187 0 0 1 .434 9.861 7.212 7.212 0 0 1-2.952 2.048l-.041.042z" fill="#55AC83"></path><path opacity=".3" d="M124.41 297H77.59c-3.088 0-5.59 2.469-5.59 5.514v30.972c0 3.045 2.502 5.514 5.59 5.514h46.82c3.087 0 5.59-2.469 5.59-5.514v-30.972c0-3.045-2.503-5.514-5.59-5.514zM290.507 306h-46.014c-3.034 0-5.493 2.469-5.493 5.514v30.972c0 3.045 2.459 5.514 5.493 5.514h46.014c3.034 0 5.493-2.469 5.493-5.514v-30.972c0-3.045-2.459-5.514-5.493-5.514z" fill="#43B97F"></path><g opacity=".82"><mask id="l9m6hwx4xk" fill="#fff"><path d="M244.975 161.892H144.226a9.163 9.163 0 0 1-6.449-2.674 9.115 9.115 0 0 1-2.68-6.434V83.677a9.101 9.101 0 0 1 2.677-6.437 9.15 9.15 0 0 1 6.452-2.67h100.749c2.423 0 4.746.959 6.46 2.667a9.107 9.107 0 0 1 2.681 6.44v69.107a9.12 9.12 0 0 1-2.684 6.438 9.164 9.164 0 0 1-6.457 2.67zm-100.749-86.69a8.517 8.517 0 0 0-6.004 2.485 8.475 8.475 0 0 0-2.492 5.99v69.107a8.476 8.476 0 0 0 2.492 5.99 8.518 8.518 0 0 0 6.004 2.486h100.749a8.518 8.518 0 0 0 6.005-2.486 8.476 8.476 0 0 0 2.492-5.99V83.677a8.475 8.475 0 0 0-2.492-5.99 8.518 8.518 0 0 0-6.005-2.485H144.226z"></path></mask><path d="M244.975 161.892H144.226a9.163 9.163 0 0 1-6.449-2.674 9.115 9.115 0 0 1-2.68-6.434V83.677a9.101 9.101 0 0 1 2.677-6.437 9.15 9.15 0 0 1 6.452-2.67h100.749c2.423 0 4.746.959 6.46 2.667a9.107 9.107 0 0 1 2.681 6.44v69.107a9.12 9.12 0 0 1-2.684 6.438 9.164 9.164 0 0 1-6.457 2.67zm-100.749-86.69a8.517 8.517 0 0 0-6.004 2.485 8.475 8.475 0 0 0-2.492 5.99v69.107a8.476 8.476 0 0 0 2.492 5.99 8.518 8.518 0 0 0 6.004 2.486h100.749a8.518 8.518 0 0 0 6.005-2.486 8.476 8.476 0 0 0 2.492-5.99V83.677a8.475 8.475 0 0 0-2.492-5.99 8.518 8.518 0 0 0-6.005-2.485H144.226z" fill="#4DA8F2"></path><path d="m144.226 161.892-.002 1h.002v-1zm-9.129-9.108h-1v.003l1-.003zm0-69.107-1-.001v.001h1zm9.129-9.107v-1h-.001l.001 1zm100.749 0v1-1zm9.141 9.107h1v-.001l-1 .001zm0 69.107 1 .003v-.003h-1zm-109.89-77.582v-1h-.001l.001 1zm-8.496 8.475-1-.001v.001h1zm0 69.107h-1v.002l1-.002zm8.496 8.476-.001 1h.001v-1zm100.749 0v1h.002l-.002-1zm8.497-8.476 1 .002v-.002h-1zm0-69.107h1v-.001l-1 .001zm-8.497-8.475.002-1h-.002v1zm0 85.69H144.226v2h100.749v-2zm-100.746 0a8.164 8.164 0 0 1-5.746-2.382l-1.412 1.416a10.163 10.163 0 0 0 7.153 2.966l.005-2zm-5.746-2.382a8.115 8.115 0 0 1-2.386-5.728l-2 .005a10.111 10.111 0 0 0 2.974 7.139l1.412-1.416zm-2.386-5.726V83.677h-2v69.107h2zm0-69.106a8.104 8.104 0 0 1 2.383-5.73l-1.412-1.416a10.102 10.102 0 0 0-2.971 7.144l2 .002zm2.383-5.73a8.152 8.152 0 0 1 5.748-2.378l-.003-2a10.151 10.151 0 0 0-7.157 2.962l1.412 1.416zm5.746-2.378h100.749v-2H144.226v2zm100.749 0c2.159 0 4.228.854 5.754 2.375l1.412-1.417a10.153 10.153 0 0 0-7.166-2.958v2zm5.754 2.375a8.11 8.11 0 0 1 2.387 5.733l2-.002a10.108 10.108 0 0 0-2.975-7.148l-1.412 1.417zm2.387 5.732v69.107h2V83.677h-2zm0 69.105a8.115 8.115 0 0 1-2.39 5.731l1.412 1.417a10.122 10.122 0 0 0 2.978-7.143l-2-.005zm-2.39 5.731a8.163 8.163 0 0 1-5.752 2.379l.003 2a10.163 10.163 0 0 0 7.161-2.962l-1.412-1.417zM144.225 74.202a9.516 9.516 0 0 0-6.709 2.777l1.412 1.416a7.517 7.517 0 0 1 5.3-2.193l-.003-2zm-6.709 2.777a9.472 9.472 0 0 0-2.786 6.697l2 .002a7.479 7.479 0 0 1 2.198-5.283l-1.412-1.416zm-2.786 6.698v69.107h2V83.677h-2zm0 69.109a9.472 9.472 0 0 0 2.786 6.696l1.412-1.416a7.48 7.48 0 0 1-2.198-5.283l-2 .003zm2.786 6.696a9.52 9.52 0 0 0 6.709 2.778l.003-2a7.519 7.519 0 0 1-5.3-2.194l-1.412 1.416zm6.71 2.778h100.749v-2H144.226v2zm100.751 0a9.52 9.52 0 0 0 6.709-2.778l-1.412-1.416a7.519 7.519 0 0 1-5.3 2.194l.003 2zm6.709-2.778a9.472 9.472 0 0 0 2.786-6.696l-2-.003a7.48 7.48 0 0 1-2.198 5.283l1.412 1.416zm2.786-6.698V83.677h-2v69.107h2zm0-69.108a9.472 9.472 0 0 0-2.786-6.697l-1.412 1.416a7.479 7.479 0 0 1 2.198 5.283l2-.002zm-2.786-6.697a9.516 9.516 0 0 0-6.709-2.777l-.003 2a7.517 7.517 0 0 1 5.3 2.193l1.412-1.416zm-6.711-2.777H144.226v2h100.749v-2z" fill="#65BF94" mask="url(#l9m6hwx4xk)"></path></g><path d="M277.985 97.301v-11.24V97.3zm-.169 0h-.331.331z" fill="#78C2FF" stroke="#65BF94"></path><mask id="65vouu8mnl" fill="#fff"><path d="M293.221 128.478h-11.269a4.484 4.484 0 0 1-3.159-1.312 4.46 4.46 0 0 1-1.308-3.154v-11.19a4.46 4.46 0 0 1 1.308-3.153 4.48 4.48 0 0 1 3.159-1.312h11.269a4.483 4.483 0 0 1 3.159 1.312 4.46 4.46 0 0 1 1.307 3.153v11.232a4.46 4.46 0 0 1-1.322 3.127 4.485 4.485 0 0 1-3.144 1.297zm-11.269-19.323a3.64 3.64 0 0 0-2.571 1.062 3.62 3.62 0 0 0-1.065 2.564v11.231a3.637 3.637 0 0 0 3.636 3.627h11.269a3.634 3.634 0 0 0 3.635-3.627v-11.19c0-.961-.383-1.884-1.065-2.564a3.638 3.638 0 0 0-2.57-1.062l-11.269-.041z"></path></mask><path d="M293.221 128.478h-11.269a4.484 4.484 0 0 1-3.159-1.312 4.46 4.46 0 0 1-1.308-3.154v-11.19a4.46 4.46 0 0 1 1.308-3.153 4.48 4.48 0 0 1 3.159-1.312h11.269a4.483 4.483 0 0 1 3.159 1.312 4.46 4.46 0 0 1 1.307 3.153v11.232a4.46 4.46 0 0 1-1.322 3.127 4.485 4.485 0 0 1-3.144 1.297zm-11.269-19.323a3.64 3.64 0 0 0-2.571 1.062 3.62 3.62 0 0 0-1.065 2.564v11.231a3.637 3.637 0 0 0 3.636 3.627h11.269a3.634 3.634 0 0 0 3.635-3.627v-11.19c0-.961-.383-1.884-1.065-2.564a3.638 3.638 0 0 0-2.57-1.062l-11.269-.041z" fill="#78C2FF"></path><path d="M293.221 128.478v1h.002l-.002-1zm-11.269 0-.003 1h.003v-1zm-4.467-4.466h1-1zm0-11.19h1-1zm4.467-4.465v-1h-.003l.003 1zm11.269 0 .002-1h-.002v1zm4.466 4.465h-1 1zm0 11.232 1 .009v-.009h-1zm-15.735-14.899.003-1h-.003v1zm-3.636 14.857h-1 1zm14.905 3.627v-1 1zm3.635-14.817h-1 1zm-3.635-3.626-.004 1h.004v-1zm0 18.282h-11.269v2h11.269v-2zm-11.267 0a3.48 3.48 0 0 1-2.454-1.019l-1.414 1.414a5.482 5.482 0 0 0 3.863 1.605l.005-2zm-2.454-1.019a3.46 3.46 0 0 1-1.015-2.447h-2c0 1.448.576 2.837 1.601 3.861l1.414-1.414zm-1.015-2.447v-11.19h-2v11.19h2zm0-11.19a3.46 3.46 0 0 1 1.015-2.446l-1.414-1.415a5.46 5.46 0 0 0-1.601 3.861h2zm1.015-2.446a3.48 3.48 0 0 1 2.454-1.019l-.005-2a5.48 5.48 0 0 0-3.863 1.604l1.414 1.415zm2.452-1.019h11.269v-2h-11.269v2zm11.267 0a3.484 3.484 0 0 1 2.454 1.019l1.414-1.415a5.483 5.483 0 0 0-3.864-1.604l-.004 2zm2.454 1.019a3.46 3.46 0 0 1 1.014 2.446h2a5.463 5.463 0 0 0-1.6-3.861l-1.414 1.415zm1.014 2.446v11.232h2v-11.232h-2zm0 11.222a3.455 3.455 0 0 1-1.026 2.426l1.408 1.421a5.458 5.458 0 0 0 1.618-3.828l-2-.019zm-1.026 2.426a3.478 3.478 0 0 1-2.442 1.008l.004 2a5.48 5.48 0 0 0 3.846-1.587l-1.408-1.421zm-13.709-18.315a4.64 4.64 0 0 0-3.277 1.354l1.412 1.416a2.64 2.64 0 0 1 1.865-.77v-2zm-3.277 1.354a4.619 4.619 0 0 0-1.359 3.272h2c0-.696.277-1.363.771-1.856l-1.412-1.416zm-1.359 3.272v11.231h2v-11.231h-2zm0 11.231c0 1.228.489 2.405 1.359 3.272l1.412-1.416a2.62 2.62 0 0 1-.771-1.856h-2zm1.359 3.272a4.637 4.637 0 0 0 3.277 1.355v-2c-.7 0-1.371-.278-1.865-.771l-1.412 1.416zm3.277 1.355h11.269v-2h-11.269v2zm11.269 0a4.64 4.64 0 0 0 3.277-1.355l-1.413-1.416a2.639 2.639 0 0 1-1.864.771v2zm3.277-1.355a4.622 4.622 0 0 0 1.358-3.272h-2a2.62 2.62 0 0 1-.771 1.856l1.413 1.416zm1.358-3.272v-11.19h-2v11.19h2zm0-11.19a4.626 4.626 0 0 0-1.358-3.272l-1.413 1.416c.494.493.771 1.161.771 1.856h2zm-1.358-3.272a4.644 4.644 0 0 0-3.277-1.354v2c.7 0 1.37.277 1.864.77l1.413-1.416zm-3.273-1.354-11.27-.041-.007 2 11.269.041.008-2z" fill="#65BF94" mask="url(#65vouu8mnl)"></path><path d="M293.22 135.533h-11.269a4.047 4.047 0 0 0-4.051 4.041v11.242a4.047 4.047 0 0 0 4.051 4.041h11.269a4.046 4.046 0 0 0 4.051-4.041v-11.242a4.046 4.046 0 0 0-4.051-4.041z" fill="#65BF94"></path><path d="m286.968 149.448-4.892-4.258a.966.966 0 0 1-.053-1.322.965.965 0 0 1 1.32-.129l3.459 3.015 4.944-5.491a.96.96 0 0 1 1.433 1.274l-6.211 6.911z" fill="#F3F3F3"></path><path d="M247.781 248H133.219c-3.987 0-7.219 3.223-7.219 7.198v111.604c0 3.975 3.232 7.198 7.219 7.198h114.562c3.987 0 7.219-3.223 7.219-7.198V255.198c0-3.975-3.232-7.198-7.219-7.198z" fill="#A7DECB"></path><path d="M293.48 178.79h-85.159a3.787 3.787 0 0 0-3.791 3.782v3.326a3.787 3.787 0 0 0 3.791 3.782h85.159a3.787 3.787 0 0 0 3.791-3.782v-3.326a3.786 3.786 0 0 0-3.791-3.782z" fill="#65BF94"></path><path d="M293.482 208.648H208.311a3.83 3.83 0 0 1-2.699-1.113 3.808 3.808 0 0 1-1.122-2.688v-3.325c0-1.01.402-1.979 1.119-2.694a3.827 3.827 0 0 1 2.702-1.116h85.169c1.014 0 1.986.402 2.702 1.116a3.804 3.804 0 0 1 1.119 2.694v3.326c0 .499-.099.994-.291 1.456l.462.192-.462-.192a3.801 3.801 0 0 1-2.067 2.057c-.464.19-.96.288-1.461.287zm-88.932-3.8v.001a3.749 3.749 0 0 0 1.106 2.647 3.766 3.766 0 0 0 2.655 1.095h85.169c.995 0 1.95-.394 2.655-1.095a3.75 3.75 0 0 0 1.107-2.647v-3.327c0-.996-.397-1.951-1.102-2.654a3.766 3.766 0 0 0-2.66-1.099h-85.169c-.997 0-1.954.395-2.659 1.099a3.745 3.745 0 0 0-1.102 2.654v3.326zM293.482 229.069H208.311a3.835 3.835 0 0 1-2.702-1.116 3.81 3.81 0 0 1-1.119-2.694v-3.329a3.825 3.825 0 0 1 3.832-3.848h85.169c1.014 0 1.986.401 2.702 1.116a3.808 3.808 0 0 1 1.119 2.694v3.33a3.822 3.822 0 0 1-.281 1.471 3.826 3.826 0 0 1-.828 1.25l.354.353-.354-.353a3.813 3.813 0 0 1-2.721 1.126zm-.002.5h-85.169a4.32 4.32 0 0 1-1.653-.328l86.822.328zm-85.169-11.389h-.001a3.774 3.774 0 0 0-2.655 1.102 3.757 3.757 0 0 0-1.105 2.65V225.261c.003.994.4 1.947 1.105 2.649a3.774 3.774 0 0 0 2.655 1.102h85.172a3.776 3.776 0 0 0 2.655-1.102 3.759 3.759 0 0 0 1.105-2.649V221.932a3.76 3.76 0 0 0-1.105-2.65 3.776 3.776 0 0 0-2.655-1.102H208.311z" fill="#78C2FF" stroke="#65BF94"></path><path d="M217.75 299h-75.5c-2.347 0-4.25 1.879-4.25 4.197v4.606c0 2.318 1.903 4.197 4.25 4.197h75.5c2.347 0 4.25-1.879 4.25-4.197v-4.606c0-2.318-1.903-4.197-4.25-4.197zM217.75 278h-75.5c-2.347 0-4.25 1.879-4.25 4.197v4.606c0 2.318 1.903 4.197 4.25 4.197h75.5c2.347 0 4.25-1.879 4.25-4.197v-4.606c0-2.318-1.903-4.197-4.25-4.197zM160.068 357h-20.136c-.515 0-.932.374-.932.835v2.33c0 .461.417.835.932.835h20.136c.515 0 .932-.374.932-.835v-2.33c0-.461-.417-.835-.932-.835zM183.026 357h-21.052c-.538 0-.974.374-.974.835v2.33c0 .461.436.835.974.835h21.052c.538 0 .974-.374.974-.835v-2.33c0-.461-.436-.835-.974-.835z" fill="#E3F2FF"></path><path d="M206.026 357h-21.052c-.538 0-.974.374-.974.835v2.33c0 .461.436.835.974.835h21.052c.538 0 .974-.374.974-.835v-2.33c0-.461-.436-.835-.974-.835z" fill="#65BF94"></path><path opacity=".82" d="M193.593 28.37H92.854c-4.87 0-8.818 3.939-8.818 8.797v69.097c0 4.858 3.948 8.796 8.818 8.796h100.739c4.87 0 8.818-3.938 8.818-8.796V37.167c0-4.858-3.948-8.796-8.818-8.796z" fill="#65BF98"></path><path d="M187.465 39.82h-50.582a2.386 2.386 0 0 0-2.389 2.382v2.912a2.386 2.386 0 0 0 2.389 2.383h50.582a2.386 2.386 0 0 0 2.389-2.383v-2.912a2.386 2.386 0 0 0-2.389-2.383zM187.465 54.729h-50.582a2.386 2.386 0 0 0-2.389 2.383v3.916a2.386 2.386 0 0 0 2.389 2.383h50.582a2.386 2.386 0 0 0 2.389-2.383v-3.916a2.386 2.386 0 0 0-2.389-2.383zM105.028 66.82c1.437.48 2.94.735 4.456.756a14.486 14.486 0 0 0 10.288-4.092 14.405 14.405 0 0 0 4.367-10.154v-.974a14.09 14.09 0 0 0-.841-4.144 14.45 14.45 0 0 0-4.1-5.932 14.5 14.5 0 0 0-13.68-2.921 14.482 14.482 0 0 0-6.175 3.738 14.434 14.434 0 0 0-3.596 6.248 14.408 14.408 0 0 0 3.258 13.57 14.48 14.48 0 0 0 6.044 3.946l-.021-.041zm-6.232-13.822c.034-2.53.956-4.969 2.606-6.891a10.865 10.865 0 0 1 13.69-2.313 10.82 10.82 0 0 1 4.736 5.65c.37.998.584 2.046.634 3.109v.725a10.81 10.81 0 0 1-3.169 7.812 10.854 10.854 0 0 1-7.824 3.179 10.874 10.874 0 0 1-7.739-3.38A10.822 10.822 0 0 1 98.765 53h.03z" fill="#E3F2FF"></path><path d="m118.249 59.764 2.867 2.217a14.458 14.458 0 0 1-5.156 4.164 14.5 14.5 0 0 1-6.477 1.431 14.727 14.727 0 0 1-4.456-.756l1.164-3.43c2.138.722 4.449.76 6.61.11a10.85 10.85 0 0 0 5.448-3.736z" fill="#E3F2FF"></path><path d="m120.503 52.553 3.615-.197v.974a14.351 14.351 0 0 1-3.023 8.651l-2.866-2.217a10.78 10.78 0 0 0 2.274-6.486c.021-.238.011-.435 0-.725z" fill="#E3F2FF"></path><path d="M120.504 52.553a10.335 10.335 0 0 0-.634-3.108l3.407-1.233a14.09 14.09 0 0 1 .841 4.144l-3.614.197zM100.967 41.612a14.49 14.49 0 0 1 18.633 1.014 14.417 14.417 0 0 1 3.677 5.586l-3.448 1.233a10.826 10.826 0 0 0-7.131-6.653 10.868 10.868 0 0 0-9.602 1.762l-2.129-2.942z" fill="#E3F2FF"></path><path opacity=".66" d="m95.202 101.695 19.454-15.096 16.899 9.149 23.577-17.821 16.889 9.521 17.844-12.101v26.348H95.202z" fill="#E3F2FF"></path></g><path d="M432.859 379.428H9.786a1.786 1.786 0 1 0 0 3.572H432.86a1.786 1.786 0 0 0 0-3.572z" fill="#B2CAC6"></path><path d="M364.628 133.58s-3.053-4.904 1.78-18.096c.767-2.456 2.283-4.654 4.366-6.331 2.083-1.677 4.644-2.762 7.376-3.123a15.368 15.368 0 0 1 8.026 1.083c2.507 1.07 4.627 2.786 6.107 4.944 5.133 8.16 3.399 13.235-4.139 22.466-7.538 9.23-20.395 3.341-23.516-.943zM402.064 360.398s.787 5.419.879 6.232c.093.814 8.879-.471 8.879-.471l.717-6.425s-9.388-.085-10.475.664z" fill="#EEA886"></path><path d="M402.848 365.945a23.832 23.832 0 0 1-5.457 4.69c-2.682 1.414-6.936 1.992-8.509 3.448-1.133 1.071-4.185 5.633 6.937 5.547 11.122-.086 16.556.643 17.758-1.114 1.203-1.756-1.734-12.849-1.734-12.849a33.706 33.706 0 0 1-8.995.278z" fill="#2A2A2A"></path><path d="m341.297 360.398.902 6.232c0 .814 8.856-.471 8.856-.471l.717-6.425s-9.365-.085-10.475.664z" fill="#EEA886"></path><path d="M342.128 365.945a23.631 23.631 0 0 1-5.48 4.69c-2.682 1.414-12.579 2.592-14.151 4.048-1.156 1.071-3.075 5.354 12.648 4.947 11.145-.278 16.533.643 17.735-1.114 1.203-1.756-1.734-12.849-1.734-12.849a49.048 49.048 0 0 1-9.018.278z" fill="#2A2A2A"></path><path d="M399.103 225.67a75.247 75.247 0 0 1 3.908 24.093c-.602 11.158 2.312 23.365 3.514 35.016 1.318 12.999 6.775 43.753 6.937 50.691.162 6.939-.832 29.148-.832 29.148l-10.891.235s-9.249-53.775-11.562-59.258c-2.312-5.482-14.128-44.588-14.521-48.979-.393-4.39 23.447-30.946 23.447-30.946z" fill="#423959"></path><path d="M353.944 224.235s-6.613 34.266-7.423 41.055c-.809 6.789-1.295 33.023-1.711 37.307-.416 4.283-2.613 55.831-4.624 62.106h12.139s12.463-37.499 12.463-55.232c0-17.732 8.255-38.549 13.597-50.263 5.341-11.715 17.527-11.972 20.81-33.688-.092.15-40.835-8.181-45.251-1.285z" fill="#4B4260"></path><path d="M369.042 137.05a9.106 9.106 0 0 1 0 6.318c-1.364 2.634 17.504 1.049 17.504 1.049a17.49 17.49 0 0 1 1.619-9.916c2.451-4.476-19.123 2.549-19.123 2.549z" fill="#EEA886"></path><path d="M399.983 228.39s-6.798 6.425-46.662-.985l.625-3.169 45.297 1.584.74 2.57z" fill="#2B3B57"></path><path d="M366.177 144.289s-6.937.664-8.972 1.006c-2.034.343-15.4-2.141-18.151-2.484-2.752-.343-14.475-7.688-14.845-8.566-.37-.878-7.145-16.726-7.515-20.153-.37-3.427-6.59-1.67-6.058.707.994 4.412 2.312 15.12 2.983 18.225.67 3.105 2.774 10.965 3.907 11.907 6.656 4.876 14.091 8.763 22.037 11.522a92.2 92.2 0 0 1 18.128 7.817h50.87s19.817-26.235 20.256-30.175c.439-3.941-13.874-30.24-16.695-33.517-2.821-3.276-6.937 1.071-6.937 1.071s8.533 23.173 9.666 26.449c1.133 3.277-9.92 17.776-12.949 17.818-3.029.043-10.845-.878-14.29-1.006a25.68 25.68 0 0 1-7.122-1.542l-14.313.921z" fill="#EEA886"></path><path d="M344.209 161.764a15.704 15.704 0 0 1 4.564 4.527 14.478 14.478 0 0 1 2.234 5.838 126.301 126.301 0 0 0 4 20.538c1.133 3.577-.994 29.383-1.295 31.246-.301 1.864 39.425 6.211 45.529 1.842 0 0 1.711-24.114 2.428-30.968a170.064 170.064 0 0 1 5.249-25.699c1.156-2.249 14.937-20.174 15.515-22.53 0 0-7.145-10.536-12.255-10.708 0 0-8.139 8.824-10.798 9.209-2.659.386-18.892-2.356-18.892-2.377 0-.021-1.78 2.142-11.214-.407l-13.065 1.392c-2.312.257-17.596-1.777-17.596-1.777s-6.174 9.637-5.087 14.52l10.683 5.354z" fill="url(#nzxygu9xkm)"></path><path d="M317.04 116.083s-1.388-6.103.277-7.859c.971-1.007 3.26-3.641 3.469-4.026.208-.386 2.682-1.714 2.682-2.335s-2.428-1.413-4.625.386c-2.196 1.799-3.422 2.141-4.254 1.991-.833-.15-2.035-6.639-2.151-8.245-.115-1.606-.763-5.825-1.85-5.547-1.086.279-1.04 2.142-1.04 2.142s-1.249-3.19-2.081-2.57c-.833.621-.74 2.142-.74 2.142s-1.572-1.8-1.989-.493a4.29 4.29 0 0 0 0 2.484s-1.618-.835-1.734 1.221a29.535 29.535 0 0 0 1.619 10.13c1.156 2.142 5.48 7.731 5.989 9.916.508 2.184 6.428.663 6.428.663zM406.618 105.354s-4.74-7.367-6.359-8.03a28.377 28.377 0 0 1-5.781-2.292c-1.988-1.307-4.624-2.42-4.485-2.849.138-.428 2.497-.278 5.017.75 2.521 1.028 3.607.514 3.839 0a12.77 12.77 0 0 0-2.105-5.119c-.739-.878-6.15-5.91-5.248-6.66.901-.75 4.416 2.013 4.971 2.591 0 0-2.798-5.44-1.711-5.718 1.087-.278 3.145 1.67 3.145 1.67s-.255-4.647 5.156 2.913c0 0-1.133-2.505.532-1.67s3.26 5.525 3.792 7.902 2.89 9.916 4.902 11.758c2.012 1.842-5.665 4.754-5.665 4.754z" fill="#EEA886"></path><path d="M388.143 134.501a22.706 22.706 0 0 1-7.816-1.499c-5.318-1.692-5.711-10.301-6.937-9.273a3.402 3.402 0 0 1-1.317.825 3.605 3.605 0 0 1-3.068-.337 3.222 3.222 0 0 1-1.072-1.088s2.59-3.148 1.411-4.668a12.485 12.485 0 0 0-3.168-2.634s3.746-16.684 20.81-9.081c19.932 8.888 1.157 27.755 1.157 27.755z" fill="#353A3D"></path><path d="m369.044 143.368.601-2.399a148.63 148.63 0 0 1 16.764.578l.625 2.891a24.844 24.844 0 0 1-9.113 1.156 24.571 24.571 0 0 1-8.877-2.226z" fill="url(#4315ud6v7n)"></path><path d="M371.703 121.609c.995-1.499 4.625-2.527 5.064 1.756.324 3.341-6.52 6.982-6.59 3.876a9.03 9.03 0 0 1 1.526-5.632z" fill="#EEA886"></path><path d="M316.786 114.691a11.51 11.51 0 0 0-5.826 1.671 3.476 3.476 0 0 0 .323 1.82 24.926 24.926 0 0 1 5.989-1.734s-.023-1.328-.486-1.757z" fill="#E55353"></path><path d="M312.161 115.591a1.48 1.48 0 0 0-.046 1.25c.084.201.212.383.375.536.163.154.358.275.573.356.411.157.872.157 1.283 0 .412-.156.74-.456.913-.835a1.438 1.438 0 0 0 .019-1.187 1.528 1.528 0 0 0-.357-.507 1.662 1.662 0 0 0-.541-.341 1.813 1.813 0 0 0-1.269-.054 1.65 1.65 0 0 0-.95.782z" fill="#353A3D"></path><path d="M59.443 83.085s11.018 4.634 8.281 17.26c-2.737 12.625-3.92 14.304-.881 19.238 3.038 4.934 6.657 25.97 3.897 29.965-2.76 3.996-33.89-17.499-38.227-35.539-4.338-18.039 2.737-25.97 5.242-29.046 2.505-3.077 11.969-6.113 21.688-1.878z" fill="#0E2D3D"></path><path d="M64.177 351.457a23.366 23.366 0 0 0 3.2 4.634c1.555 1.738 6.333 8.85 8.444 9.33 2.11.479 8.652 1.498 9.279 4.634.626 3.137.881 5.374-5.544 5.614-6.426.24-10.67.579-13.733-3.296-2.192-2.603-4.883-4.866-7.956-6.693v10.129h-2.575s-1.136-10.548-1.809-11.287c-.672-.739-2.32-8.85 3.55-13.065 5.868-4.216 7.144 0 7.144 0z" fill="#2A2A2A"></path><path d="M75.82 365.421s-5.753 1.238-7.957 0c-2.203-1.239-9.696-12.146-12.2-12.806 0 0 2.319-4.215 8.512-1.158 0 0 10.02 12.146 11.645 13.964zM132 178.535s4.013.659 5.358-.959c1.293-1.201 2.877-2.142 4.639-2.757 1.091-.439 3.851-2.856 4.5-1.678.65 1.179-4.337 4.175-5.242 4.975-.905.799 4.918 1.178 5.915 1.997.998.819-.232 9.03-4.198 8.391-3.967-.64-7.655-3.576-8.397-3.576a30.424 30.424 0 0 1-2.877-.36l.302-6.033z" fill="#EEA886"></path><path d="M146.29 179.734s11.923 2.657 12.549 3.416c.627.759.418 1.298-.696 1.078a96720.04 96720.04 0 0 0-11.598-2.277s13.5 5.194 14.173 5.714c.673.519 0 1.378-.557 1.318-.556-.06-14.335-4.555-14.335-4.555s12.596 4.875 13.013 5.454a.717.717 0 0 1 .085.478.774.774 0 0 1-.244.437c-.13.12-.3.205-.487.241a1.096 1.096 0 0 1-.56-.037l-12.967-4.235s8.931 3.995 8.931 4.694c0 .699-.209 1.359-2.482.24s-7.91-3.216-7.91-3.216l3.085-8.75z" fill="#EEA886"></path><path d="M32.002 358.03a94.492 94.492 0 0 0 9.024 10.208s5.752 1.818 6.309 5.294c.557 3.476.487 5.773-6.31 5.993-6.796.22-11.296-.899-12.525-4.455-.813-2.222-2.174-4.266-3.99-5.993v7.451h-1.531s-.394-7.191-.487-8.51c-.093-1.318-1.09-6.413 2.134-8.67a9.834 9.834 0 0 1 3.522-1.35 10.472 10.472 0 0 1 3.854.032z" fill="#2A2A2A"></path><path d="M27.689 199.371c-5.037 5.914-8.556 12.683-10.323 19.857-2.32 10.788 1.3 46.966 1.207 52.3-.093 5.334-5.87 18.599-4.64 28.627 1.23 10.029 5.707 59.932 5.707 59.932l12.433-2.138s-.72-50.921 0-55.137c.719-4.215 2.157-19.577 2.32-21.315.162-1.738 18.278-47.286 18.278-55.077 0-7.791-5.428-39.734-24.982-27.049z" fill="#1D3B54"></path><path d="M68.443 202.908s13.338 43.829 14.916 49.942c1.577 6.113 3.897 11.087 3.897 13.665a77.89 77.89 0 0 1-2.599 15.582l-16.933 69.76H51.603s8.977-41.852 9.279-49.943c.301-8.091 7.561-19.857 6.123-23.313-1.438-3.456-23.196-43.51-23.196-43.51s-16.47-44.909 24.634-32.183z" fill="#1D3B54"></path><path d="M41.027 368.237s-6.588 3.177-10.833-.899c-2.343-2.388-4.223-5.086-5.567-7.99l7.376-1.299 9.024 10.188z" fill="#EEA886"></path><path d="M62.946 128.433c3.682.453 7.08 1.958 9.65 4.275 3.638 3.636 6.71 7.665 9.139 11.986 1.09 1.998 16.237 20.996 17.142 21.416.904.419 8.443 2.637 13.523 4.115 7.84 2.277 23.544 7.192 23.544 7.192l-3.108 8.51s-29.552-8.331-36.952-9.989c-9.046-1.997-29.876-24.931-29.876-24.931s-15.518-15.582-3.062-22.574z" fill="#FD7276"></path><path d="M53.343 125.116a80.495 80.495 0 0 0 9.603 3.316c2.459.42 12.062 11.167 13.755 15.083 1.694 3.915 0 9.789-3.48 16.681-3.479 6.892-.185 9.209-1.762 16.101-1.578 6.892-1.09 32.723-.789 36.558.302 3.836-46.3 9.629-55.439 2.637 0 0 6.217-23.273 13.593-29.965 1.6-1.439 1.438-11.008.348-13.385-1.09-2.377-13.36-20.197-13.36-20.197s-.905-17.979 4.453-21.635c4.64-3.116 17.304-4.215 19.6-4.894a44.906 44.906 0 0 1 13.478-.3z" fill="#4B4260"></path><path d="M56.754 118.025s-.21 1.698-.464 3.995c0 .899-.186 1.898-.279 2.917a57.055 57.055 0 0 0-.394 7.991s-7.4 6.392-15.797-7.452c2.205-4.241 2.535-9.029.928-13.464-2.737-7.771 16.006 6.013 16.006 6.013z" fill="#EEA886"></path><path d="M77.466 162.754s1.787-10.209 0-16.421c-.283 4.443-1.436 8.812-3.41 12.925l3.41 3.496z" fill="#183C59"></path><path d="M34.115 126.475s5.103 12.945 19.067 11.986c13.965-.959 6.634-10.868 6.634-10.868a32.784 32.784 0 0 0-4.453-1.997c-.998-.16-15.472-.32-15.472-.32l-5.776 1.199z" fill="#EEA886"></path><path d="M59.815 127.594c4.5 11.352 6.971 23.228 7.33 35.219 0 17.76.58 46.727 3.132 55.936 2.552 9.21 9.905 37.277 9.905 37.277l5.706-2.537s-13.709-45.128-14.753-48.364c-1.044-3.237.789-37.637 1.763-40.514.974-2.876 5.173-15.702 4.64-19.258-.813-4.474-5.684-11.107-13.547-16.8l-4.176-.959zM36.898 125.936a159.428 159.428 0 0 1 6.959 28.607c2.32 15.981-7.075 90.656-13.361 107.576l-24.542-3.376s5.242-52.719 12.364-62.308c7.12-9.589 9.394-17.98 1.693-38.117-7.701-20.137 3.387-29.965 3.387-29.965s11.342-2.218 13.5-2.417z" fill="#FD7276"></path><path d="M61.138 178.122a2 2 0 0 1 .772 2.904l-27.306 40.739a2 2 0 0 1-2.551.677L2.764 207.889a2 2 0 0 1-.8-2.859l26.105-41.33a2 2 0 0 1 2.58-.723l30.49 15.145z" fill="#5AB88B"></path><path d="M59.628 180.653 33.37 219.808 4.19 205.305l25.12-39.715 30.318 15.063z" fill="#fff"></path><path d="m49.934 177.137 1.856-2.737-11.807-5.873-2.296 2.517 12.247 6.093z" fill="#5AB88B"></path><path d="M48.52 208.421a7.275 7.275 0 0 1-1.926-.24s-1.02-.519-1.786-.839l-.603-.24a12.185 12.185 0 0 1-3.294-1.198 71.071 71.071 0 0 1-5.938-5.394l2.18-2.877 1.624-2.916c3.7.149 7.382.529 11.018 1.138l.371.2a14 14 0 0 1 2.041 1.798c.21.14 1.949 1.618 1.88 2.257 0 .352-.106.698-.31 1.004a2.187 2.187 0 0 1-.85.734c-.134.915-.56 1.779-1.23 2.498-.06.463-.245.908-.539 1.3a3.337 3.337 0 0 1-1.154.957s-.395 1.578-1.485 1.818z" fill="#EEA886"></path><path d="M28.5 128.433s-8.977-2.218-14.127 6.293c-3.299 5.008-5.279 10.58-5.8 16.321-.649 3.995-3.571 14.643-3.873 15.762-.301 1.119-6.959 14.303-3.897 18.918 3.062 4.615 34.122 18.299 33.936 19.318-.185 1.019 5.382-10.328 5.382-10.328s-12.573-5.993-14.637-7.991c-3.34-3.017-10.392-6.273-8.954-9.989 1.717-4.395 6.82-19.238 8.003-21.415 1.183-2.178 11.575-24.112 3.966-26.889z" fill="#FD7276"></path><path d="M57.864 84.483s15.96 4.335 7.284 28.088c-8.675 23.753-30.48-2.757-28.206-17.22 2.273-14.464 20.922-10.868 20.922-10.868z" fill="#EEA987"></path><path d="M66.796 98.348c-5.929 4.443-13.382 7.095-21.224 7.551 0 0-5.103 5.154-5.498 7.172 0 0-11.876-17.4 2.714-27.828s29.367 8.81 24.008 13.105z" fill="#0E2D3D"></path><path d="M45.735 106.378c-.116-1.738-1.345-5.673-4.337-4.575-2.993 1.099.185 9.11 2.157 8.63 0 0 2.412.02 2.18-4.055z" fill="#EEA987"></path><path d="M56.29 122c0 .899-.185 1.898-.278 2.917 0 0-6.959-.36-11.784-9.389.302.399 5.475 6.932 12.063 6.472z" fill="#A77860"></path><defs><linearGradient id="e64q4bhhvd" x1="397.733" y1="79.617" x2="328.733" y2="58.149" gradientUnits="userSpaceOnUse"><stop offset=".01" stop-color="#32C72A"></stop><stop offset="1" stop-color="#368E2F"></stop></linearGradient><linearGradient id="zh04gqfd5e" x1="326.9" y1="66.142" x2="281.687" y2="52.075" gradientUnits="userSpaceOnUse"><stop offset=".01" stop-color="#32C72A"></stop><stop offset="1" stop-color="#368E2F"></stop></linearGradient><linearGradient id="e8rbpnl6mf" x1="321.646" y1="60.928" x2="315.115" y2="58.896" gradientUnits="userSpaceOnUse"><stop offset=".01" stop-color="#32C72A"></stop><stop offset="1" stop-color="#368E2F"></stop></linearGradient><linearGradient id="ndwqw4udqg" x1="318.581" y1="66.57" x2="306.048" y2="62.671" gradientUnits="userSpaceOnUse"><stop offset=".01" stop-color="#32C72A"></stop><stop offset="1" stop-color="#368E2F"></stop></linearGradient><linearGradient id="uqdm1le5oh" x1="313.813" y1="51.828" x2="306.404" y2="49.522" gradientUnits="userSpaceOnUse"><stop offset=".01" stop-color="#32C72A"></stop><stop offset="1" stop-color="#368E2F"></stop></linearGradient><linearGradient id="cbvh22l1ei" x1="312.255" y1="57.883" x2="299.235" y2="53.832" gradientUnits="userSpaceOnUse"><stop offset=".01" stop-color="#32C72A"></stop><stop offset="1" stop-color="#368E2F"></stop></linearGradient><linearGradient id="4ds75ey55j" x1="301.397" y1="47.939" x2="296.593" y2="46.444" gradientUnits="userSpaceOnUse"><stop offset=".01" stop-color="#32C72A"></stop><stop offset="1" stop-color="#368E2F"></stop></linearGradient><linearGradient id="nzxygu9xkm" x1="427.896" y1="180.792" x2="331.299" y2="184.057" gradientUnits="userSpaceOnUse"><stop stop-color="#FFD000"></stop><stop offset="1" stop-color="#FF7300"></stop></linearGradient><linearGradient id="4315ud6v7n" x1="388.137" y1="143.236" x2="368.938" y2="145.794" gradientUnits="userSpaceOnUse"><stop stop-color="#FFD000"></stop><stop offset="1" stop-color="#FF7300"></stop></linearGradient><clipPath id="9hljahelqa"><path fill="#fff" transform="translate(32 .945)" d="M0 0h373v381.478H0z"></path></clipPath><clipPath id="ox9adaslxc"><path fill="#fff" transform="rotate(17.239 107.736 976.333) skewX(-.044)" d="M0 0h118.986v67.915H0z"></path></clipPath></defs></svg>