<svg xmlns="http://www.w3.org/2000/svg" width="528" height="344" viewBox="0 0 528 344" fill="none"><path d="M518.984 279.676c-8.643-35.327 8.183-72.544-9.067-106.02-5.48-10.632-14.04-19.99-21.234-29.923-10.861-15.005-18.671-31.501-22.926-48.428-2.783-11.071-4.069-22.346-7.999-33.236-10.902-30.211-43.465-55.083-79.309-60.58-28.892-4.43-58.778 1.247-82.401 14.072C189.936 73.239 134.653 45.952 97.61 65.856c-23.22 12.468-34.655 35.662-41.55 58.845-6.896 23.183-9.658 63.9-19.671 90.125C3.11 301.899 51.838 332.883 73.565 341.999c.776.326 4.054.779 4.853 1.069l55.349.93c11.015-1.781 36.156-1.14 45.102-.852 35.133 1.135 64.238-1.017 94.874-.643 76.317.93 147.782 1.267 219.672.761 10.521-.073 16.617-3.206 24.435-8.756 8.326-5.922 10.424-16.458 9.067-26.14-1.357-9.682-5.583-19.083-7.933-28.692z" fill="#fff"></path><path d="m179.816 339.771-4.858.043.005.597 4.859-.044-.006-.596z" fill="#07085B"></path><path d="m300.843 75.03-.033 3.174-.302 7.9 12.981-2.048 1.415-2.305.112-5.999.426-5.621h-8.627l-5.972 4.898z" fill="#FFC0BB"></path><path d="M320.738 42.565a10.72 10.72 0 0 1 10.839-.493c5.922 3.078 6.43 14.347 4.277 17.145-2.153 2.797.405 6.341-3.983 10.068-4.389 3.727-11.568 5.35-15.886 1.426-4.318-3.925-1.701-13.235-1.701-13.235l6.454-14.911z" fill="#030925"></path><path d="M292.983 57.385c.814 1.95.217 4.063-1.331 4.721-1.548.658-3.466-.395-4.28-2.343-.813-1.948-.22-4.063 1.331-4.721 1.551-.659 3.466.392 4.28 2.343z" fill="#F99893"></path><path d="M293.663 68.837a16.335 16.335 0 0 1-1.252-2.656 30.468 30.468 0 0 1-1.706-7.51 19.93 19.93 0 0 0-.229-1.475 16.402 16.402 0 0 1 .141-6.725 16.367 16.367 0 0 1 2.827-6.097 16.287 16.287 0 0 1 5.034-4.435 16.204 16.204 0 0 1 13.041-1.285 16.24 16.24 0 0 1 5.795 3.369 16.342 16.342 0 0 1 3.953 5.429 16.4 16.4 0 0 1 1.439 6.568 3.482 3.482 0 0 1 3.16-.295c1.939.847 2.659 3.509 1.607 5.946-1.052 2.438-3.472 3.73-5.411 2.883a3.037 3.037 0 0 1-.731-.454c-.726 8.018-7.176 14.273-14.999 14.226a14.517 14.517 0 0 1-9.937-4.04c-.194-.16-.38-.33-.556-.51a14.34 14.34 0 0 1-2.176-2.94z" fill="#FFC0BB"></path><path d="M290.737 42.444c2.535-10.523 16.224-11.509 16.224-11.509 21.264.517 18.77 19.385 18.212 22.516a3.434 3.434 0 0 0-2.464.549 5.79 5.79 0 0 0-1.034.785c-2.532-.652-3.475-4.792-4.859-6.743-1.877-2.656-9.541-.885-12.56-2.691a7.271 7.271 0 0 1-3.458-4.784c-11.224 2.32-10.504 14.339-10.504 14.339a4.295 4.295 0 0 0-1.096 0s-.717-3.072 1.539-12.462z" fill="#030925"></path><path d="m241.985 125.551-14.168-6.598 3-7.416s6.756 2.361 13.691 4.663l-2.523 9.351zM273.698 334.896l12.211-7.672 10.611 6.382-3.684 2.656-12.819 1.883s-5.012-.62-5.232-.77c-.22-.151-1.087-2.479-1.087-2.479z" fill="#FFC0BB"></path><path d="M303.169 223.703s-1.748 42.473-1.909 49.806c-.162 7.333-3.887 61.753-5.505 66.478l-9.062-.652s-6.169-105.365-4.242-115.632c1.927-10.266 20.718 0 20.718 0z" fill="#FFC0BB"></path><path d="m273.698 334.895-3.096 2.025a1.71 1.71 0 0 0-.719 1.922 1.707 1.707 0 0 0 1.636 1.232h23.499a1.49 1.49 0 0 0 1.063-.442 1.513 1.513 0 0 0 .438-1.069v-4.951c-15.65 5.016-21.058 3.491-22.821 1.283z" fill="#2A2A2A"></path><path d="m331.305 335.268 11.039-9.289 11.382 4.848-3.266 3.148-12.437 3.648s-5.047.082-5.288-.033c-.241-.115-1.43-2.322-1.43-2.322z" fill="#FFC0BB"></path><path d="M345.175 221.049s4.112 42.308 4.97 49.576c.858 7.268 4.665 61.7 3.713 66.605l-9.068.613s-20.641-103.491-20.133-113.925c.508-10.435 20.518-2.869 20.518-2.869z" fill="#FFC0BB"></path><path d="m331.305 335.269-2.787 2.437a1.718 1.718 0 0 0 .285 2.798c.322.18.693.25 1.057.2l23.274-3.269a1.507 1.507 0 0 0 1.278-1.706l-.685-4.901c-14.808 7.144-20.371 6.382-22.422 4.441z" fill="#07085B"></path><path d="m341.458 159.733 9.17-10.192-6.63-6.941-11.218 14.598s6.542 17.653 6.933 18.437c.39.785 1.706 0 1.706 0-.393-3.024-.208-11.54-.082-15.858l.121-.044z" fill="#FFC0BB"></path><path d="M288.832 147.147s-12.111 13.615-13.142 57.295c-1.031 43.679 1.236 59.407 1.236 59.407s33.247 8.145 79.541-7.244c0 0-11.403-82.593-28.161-110.748 0-.014-19.532-11.721-39.474 1.29z" fill="#4B4260"></path><path d="M232.805 113.18c-.056-.682-1.871-1.573-1.871-1.573a19.648 19.648 0 0 0-7.508-1.337 1.298 1.298 0 0 0-1.253 1.159c-.023.207.004.417.078.612l1.595.068a.341.341 0 0 1-.179.1c-.432.097-1.049.236-1.763.404l.661 7.2c1.404-.295 3.231 1.074 5.893.428l3.548-1.018c-.256-.43-.483-.878-.678-1.34a15.03 15.03 0 0 1-.667-2.219c-.15-.758 2.209-1.717 2.144-2.484z" fill="#FFC0BB"></path><path d="m218.459 121.41 1.903-.452a6.503 6.503 0 0 0 2.644-1.345l.435-.363a5.53 5.53 0 0 0 1.839-3.447l.106-.72a3.394 3.394 0 0 0-.359-2.101 2.38 2.38 0 0 0-1.827-1.304l-2.162-.21-2.579 9.942zm1.069-1.712 1.763-6.766 1.468.142a1.616 1.616 0 0 1 1.246.885c.232.438.318.94.244 1.431l-.074.49a3.75 3.75 0 0 1-1.251 2.361l-.294.245a4.416 4.416 0 0 1-1.8.917l-1.302.295z" fill="#FF5B7E"></path><path d="M201.708 109.801h.102l9.723.295 9.826-.295h.018s.029.018.029.077c0 1.021-.443 10.948-4.535 15.138a35.58 35.58 0 0 1-5.338.378c-2.538.056-5.731-.862-5.731-.862-4.077-4.172-4.147-13.574-4.144-14.642a.085.085 0 0 1 .011-.052.087.087 0 0 1 .039-.037z" fill="#FF5B7E"></path><path d="M201.657 109.884c0-.017.004-.034.013-.049a.093.093 0 0 1 .037-.034h.103l9.723.295.588-.017c-2.077 1.295-4.007 3.201-4.113 5.84-.159 4.272 2.318 8.448 5.946 9.321-.804.122-1.617.179-2.43.172-2.538.056-5.731-.862-5.731-.862-4.068-4.196-4.139-13.589-4.136-14.666z" fill="#E5426E"></path><path d="M201.66 109.885c0 1.475 4.433 2.656 9.882 2.656s9.864-1.181 9.864-2.656c0-1.476-4.406-2.656-9.864-2.656-5.458 0-9.882 1.192-9.882 2.656z" fill="#FF5B7E"></path><path d="m220.192 111.147-3.052.827-2.418.363-3.284.082-3.231-.165-2.074-.263-1.827-.43-1.293-.546-.587-.52c1.41-1.003 5.023-1.717 9.25-1.717 4.286 0 7.931.735 9.294 1.77l-.778.599z" fill="#4C2816"></path><path d="M203.647 110.168a.166.166 0 0 1 .112-.112 29.074 29.074 0 0 1 7.567-.992h.038c2.555-.003 5.099.33 7.567.992a.16.16 0 0 1 .069.042c.02.019.034.043.042.07.039.106.024.295-.34.495a5.496 5.496 0 0 1-3.046.172 17.549 17.549 0 0 0-8.622 0 5.495 5.495 0 0 1-3.046-.172c-.364-.209-.379-.401-.341-.495z" fill="#4C2816" style="mix-blend-mode:screen" opacity=".5"></path><path d="M219.787 109.967a9.298 9.298 0 0 0-1.022-.357 16.18 16.18 0 0 0-1.04-.266 21.003 21.003 0 0 0-1.052-.206c-.176-.033-.352-.059-.529-.086a29.14 29.14 0 0 0-2.652-.269 34.414 34.414 0 0 0-2.13-.056c-1.423.001-2.844.1-4.253.295a22.75 22.75 0 0 0-2.104.405c-.346.088-.693.186-1.036.295a8.096 8.096 0 0 0-1.011.392c.082-.038.164-.073.25-.106l.255-.094c.168-.062.341-.118.511-.172.344-.106.691-.197 1.037-.277a19.223 19.223 0 0 1 2.104-.381 36.805 36.805 0 0 1 2.12-.206 34.259 34.259 0 0 1 2.127-.065c1.419-.01 2.838.066 4.248.23l.528.068.529.08a20.077 20.077 0 0 1 2.095.445c.17.047.343.098.514.151.17.053.343.109.511.18z" fill="#fff"></path><path d="M201.66 109.885c0 1.475 4.433 2.656 9.882 2.656s9.864-1.181 9.864-2.656c0-1.476-4.406-2.656-9.864-2.656-5.458 0-9.882 1.192-9.882 2.656zm.411 0c0-1.358 4.248-2.455 9.471-2.455s9.453 1.097 9.453 2.455c0 1.357-4.233 2.458-9.453 2.458s-9.471-1.101-9.471-2.458z" fill="#F484A2"></path><path d="M226.041 113.236c0 .59-1.084 1.051-2.423 1.051-1.34 0-2.424-.47-2.424-1.051s1.084-1.048 2.424-1.048c1.339 0 2.423.47 2.423 1.048z" fill="#FCB7B4"></path><path d="M225.855 114.898c0 .59-1.087 1.05-2.424 1.05-1.336 0-2.426-.472-2.426-1.05 0-.579 1.087-1.051 2.426-1.051 1.34 0 2.424.469 2.424 1.051z" fill="#FCB7B4"></path><path d="M225.675 116.754c0 .59-1.087 1.051-2.423 1.051-1.337 0-2.424-.472-2.424-1.051 0-.578 1.084-1.05 2.424-1.05 1.339 0 2.423.46 2.423 1.05z" fill="#FCB7B4"></path><path d="M225.553 118.58c0 .59-1.084 1.05-2.424 1.05-1.339 0-2.423-.472-2.423-1.05 0-.579 1.084-1.051 2.423-1.051 1.34 0 2.424.469 2.424 1.051z" fill="#FCB7B4"></path><path d="M368.419 121.474c-3.205-10.856-27.842-39.19-36.449-40.663a33.952 33.952 0 0 0-15.844 1.18s-8.792 5.607-16.394 1.656a16.941 16.941 0 0 0-4.994.135s-16.18 14.27-8.478 31.973c0 0 2.383 17.664 2.565 31.374 0 0 3.39 7.268 20.333 6.808 16.943-.46 19.141-8.097 19.141-8.097s2.015-33.487 4.852-38.917c0 0 18.042 14.536 18.409 16.192.368 1.655-9.435 19.874-12.731 23.923 0 0 2.289 5.102 10.076 6.92.009.003 22.721-21.639 19.514-32.484z" fill="#FD7276"></path><path d="M294.748 83.787c-4.407.708-10.84 3.225-15.713 11.364-8.151 13.618-16.576 22.264-16.576 22.264l-19.681-2.207s-2.382 7.545-1.19 10.948c0 0 14.376 8.649 22.713 5.902 8.336-2.748 21.978-16.287 21.978-16.287-7.711-17.714 8.469-31.984 8.469-31.984z" fill="#F05A66"></path><path d="m468.961 240.447 7.114 102.154h-3.557l-11.265-101.048 7.708-1.106z" fill="#fff"></path><path d="m394.229 240.447-7.115 102.154h3.555l11.268-101.048-7.708-1.106z" fill="#C8D9D6"></path><path d="M500.009 135.657s-56.873-1.694-60.553-1.429c-3.681.266-7.086 12.152-7.086 12.152s-16.611 61.919-16.282 63.622c.329 1.702-15.498 41.608-15.498 41.608s13.656-.363 14.258 0c.603.362 52.807-4.501 53.533-4.987.725-.487 3.384-9.612 3.504-10.096.121-.483 4.113-36.001 4.113-36.001l2.056-19.582s7.855-16.82 7.975-16.858c.121-.039 7.373-14.755 7.855-15.501.482-.747 7.975-8.88 8.225-9.609.25-.728-2.1-3.319-2.1-3.319z" fill="#D8E1D6"></path><path d="M500.009 135.657s-19.608-.59-36.543-1.012c6.583 3.892 10.282 14.772 7.532 34.13-2.326 16.451-4.911 34.304-15.225 55.713-5.311 11.028-28.179 4.852-46.92 5.943-4.039 10.529-8.263 21.173-8.263 21.173s13.656-.363 14.258 0c.603.363 52.807-4.5 53.533-4.987.725-.487 3.384-9.611 3.504-10.095.121-.484 4.113-36.001 4.113-36.001l2.056-19.582s7.855-16.82 7.975-16.859c.121-.038 7.373-14.754 7.855-15.501.482-.746 7.975-8.879 8.225-9.608.25-.729-2.1-3.314-2.1-3.314z" fill="#A5B8B6" style="mix-blend-mode:multiply" opacity=".5"></path><path d="M390.2 253.785a3.56 3.56 0 0 1 .865-2.568 3.528 3.528 0 0 1 2.419-1.201c6.078-.416 19.22-1.36 32.738-2.655 25.912-2.47 35.279-4.492 38.634-5.548a3.498 3.498 0 0 0 2.35-2.494c.911-3.638 1.442-11.189 1.889-17.507 1.692-23.974 4.482-63.504 29.001-85.208a3.52 3.52 0 0 1 4.032-.427c.421.235.789.554 1.082.938a3.55 3.55 0 0 1-.458 4.824c-22.325 19.707-24.904 56.038-26.619 80.374-.981 13.87-1.583 20.68-4.6 23.849-1.469 1.529-4.163 4.371-43.56 8.174-13.976 1.349-27.736 2.341-34.019 2.768a3.496 3.496 0 0 1-2.564-.875 3.551 3.551 0 0 1-1.19-2.444z" fill="#779994"></path><path d="M35.976 240.447 28.86 342.601h3.558l11.265-101.048-7.708-1.106zM110.705 240.447l7.115 102.154h-3.558l-11.265-101.048 7.708-1.106z" fill="#C8D9D6"></path><path d="M4.93 135.657s56.872-1.694 60.552-1.429c3.681.266 7.086 12.152 7.086 12.152s16.614 61.919 16.282 63.622c-.332 1.702 15.498 41.608 15.498 41.608s-13.653-.363-14.258 0c-.606.362-52.807-4.501-53.533-4.987-.725-.487-3.384-9.612-3.504-10.096-.12-.483-4.113-36.001-4.113-36.001l-2.056-19.582s-7.855-16.82-7.975-16.858c-.12-.039-7.37-14.755-7.855-15.501-.485-.747-7.975-8.88-8.225-9.609-.25-.728 2.1-3.319 2.1-3.319z" fill="#D8E1D6"></path><path d="M4.93 135.657s19.607-.59 36.541-1.012c-6.58 3.892-10.28 14.772-7.531 34.13 2.326 16.451 4.914 34.304 15.225 55.713 5.31 11.028 28.179 4.852 46.923 5.943a2226.366 2226.366 0 0 0 8.26 21.173s-13.653-.363-14.258 0c-.606.363-52.807-4.5-53.533-4.987-.725-.487-3.384-9.611-3.504-10.095-.12-.484-4.113-36.001-4.113-36.001l-2.056-19.582s-7.855-16.82-7.975-16.859c-.12-.038-7.37-14.754-7.855-15.501-.485-.746-7.975-8.879-8.225-9.608-.25-.729 2.1-3.314 2.1-3.314z" fill="#B5D3CF" style="mix-blend-mode:multiply" opacity=".5"></path><path d="M110.971 257.114c-6.283-.428-20.042-1.42-34.019-2.768-39.397-3.804-42.102-6.646-43.556-8.174-3.017-3.169-3.622-9.977-4.603-23.849-1.716-24.336-4.28-60.668-26.62-80.374a3.549 3.549 0 0 1-.455-4.825 3.518 3.518 0 0 1 5.126-.513c24.519 21.704 27.318 61.234 29.001 85.207.447 6.318.979 13.869 1.89 17.508.146.582.44 1.118.85 1.554.412.437.928.76 1.5.939 3.35 1.057 12.718 3.078 38.63 5.548 13.512 1.287 26.663 2.231 32.738 2.656a3.514 3.514 0 0 1 2.419 1.201 3.55 3.55 0 0 1 .865 2.567 3.558 3.558 0 0 1-1.193 2.451 3.522 3.522 0 0 1-2.573.872z" fill="#779994"></path><path d="M415.013 113.746v14.182a2.06 2.06 0 0 1-1.016 1.841c-1.886 1.016-6.107 2.68-10.05.027a2.091 2.091 0 0 1-.843-1.738v-12.81l11.909-1.502z" fill="#FFC0BB"></path><path d="M399.225 127.425c.428.295 18.99 0 18.99 0s2.057 2.036 1.707 2.378c-.35.343-7.408 5.223-7.408 5.223l-9.4-1.283-3.889-6.318zM345.698 134.753s-7.343 47.985 3.146 57.812c10.49 9.826 30.233-16.28 30.233-16.28l4.221-17.057-18.441 5.796-6.677 8.262-3.452-44.517-9.03 5.984z" fill="#FFC0BB"></path><path d="m352.593 119.084.1.086 5.425 4.739a1.364 1.364 0 0 1 .071 1.983l-12.099 12.243a1.351 1.351 0 0 1-1.537.275 23.486 23.486 0 0 1-9.796-8.558 1.356 1.356 0 0 1 .056-1.564l10.392-13.736a1.359 1.359 0 0 1 .937-.531 1.355 1.355 0 0 1 1.026.327l5.425 4.736z" fill="#FEB546"></path><path d="M347.344 111.442c.588-.398 1.255-.428 1.66-.077l5.843 5.105.097.086 5.845 5.105c.403.354.464 1.015.156 1.664l-1.037 2.154a1.008 1.008 0 0 1-1.577.328l-6.486-5.669-.097-.085-6.489-5.666a1.014 1.014 0 0 1-.346-.834 1.025 1.025 0 0 1 .449-.783l1.982-1.328z" fill="#333"></path><path d="M349.832 110.439a.586.586 0 0 1 .82-.059l5.396 4.721.097.086 5.399 4.721a.596.596 0 0 1 .056.823l-1.143 1.319-5.561-5.512-6.195-4.78 1.131-1.319z" fill="#333"></path><path d="m356.415 128.521-5.604 5.474a.317.317 0 0 1-.359.059 31.59 31.59 0 0 1-12.223-10.679.325.325 0 0 1 0-.366l4.618-6.336a.315.315 0 0 1 .394-.094.315.315 0 0 1 .111.094c2.35 3.131 9.576 9.443 12.99 11.349a.321.321 0 0 1 .16.231.32.32 0 0 1-.087.268z" fill="#E87B50"></path><path d="M345.223 124.013a3.125 3.125 0 0 0-.112 4.811 3.095 3.095 0 0 0 3.417.421 3.11 3.11 0 0 0 1.696-3.009 3.119 3.119 0 0 0-1.564-2.48 3.083 3.083 0 0 0-3.437.257z" fill="#F3FDFF"></path><path d="m348.763 313.27-1.894 15.297-10.187.794.158-14.185 11.923-1.906z" fill="#FFC0BB"></path><path d="m321.2 340.559 27.836.189a1.077 1.077 0 0 0 1.009-.66c.055-.132.083-.274.083-.417v-.809a1.115 1.115 0 0 0-.333-.772 1.105 1.105 0 0 0-.777-.317l-27.835-.189a1.073 1.073 0 0 0-.771.307 1.078 1.078 0 0 0-.319.767v.809a1.116 1.116 0 0 0 1.107 1.092z" fill="#fff"></path><path d="m348.656 328.735 1.069 8.28c.129 1.018-.44 1.942-1.204 1.936l-26.47-.18a1.972 1.972 0 0 1-1.739-1.228c-.376-.814-.461-2.042.711-3.682 2.35-3.279 10.12-4.031 13.903-6.82l12.338.086c.681.003 1.275.684 1.392 1.608z" fill="#2A2A2A"></path><path d="M341.456 338.904c2.027-6.669 5.616-7.378 7.582-7.215l.687 5.326c.129 1.018-.441 1.942-1.204 1.936l-7.065-.047z" fill="#E87B50" style="mix-blend-mode:multiply" opacity=".3"></path><path d="m364.404 313.597-4.503 14.76-10.37.071 1.807-10.774 13.066-4.057z" fill="#FFC0BB"></path><path d="m334.638 340.83 27.832.189a1.062 1.062 0 0 0 1.01-.657c.055-.132.083-.274.083-.417v-.809a1.12 1.12 0 0 0-1.113-1.091l-27.833-.189a1.067 1.067 0 0 0-1.009.66 1.086 1.086 0 0 0-.084.417v.805c.007.292.128.57.336.774.208.204.487.318.778.318z" fill="#fff"></path><path d="m362.096 329.006 1.066 8.28c.132 1.021-.441 1.945-1.201 1.939l-26.47-.18a1.969 1.969 0 0 1-1.739-1.228c-.379-.817-.464-2.042.708-3.683 2.35-3.281 10.12-4.03 13.903-6.819l12.338.083c.681.005 1.274.687 1.395 1.608z" fill="#414141"></path><path d="M397.168 215.061s-51.593 5.707-61.431 15.049c-9.837 9.343-3.231 79.757-1.601 86.214 0 0 8.98 4.299 16.086 2.098 7.106-2.201 4.353-33.003 4.353-33.003s-.822-29.435.27-33.564c1.093-4.128 16.127-7.153 16.127-7.153s36.131-19.057 34.774-19.057c-1.357 0-8.578-10.584-8.578-10.584z" fill="url(#zjqnnbp9ya)"></path><path d="M454.272 227.314c.217-13.329-3.604-24.787-3.604-24.787l-23.156 20.087-.206-1.794s-57.965-6.932-65.89 19.475c-7.925 26.408-13.936 78.683-13.936 78.683s7.653 4.678 18.037 0c0 0 14.687-56.123 20.189-61.623 3.507-3.509 25.3-7.549 38.046-7.738 13.169-.194 30.265-6.512 30.52-22.303z" fill="url(#1ozcraaxeb)"></path><path d="M399.224 127.425s-12.981 2.378-19.632 9.829c-6.65 7.451-15.727 25.951-15.727 25.951s6.83 13.733 14.1 14.902l16.206-15.803 5.053-34.879z" fill="#50ADCE"></path><path d="M399.223 127.425s-12.085 10.033-13.806 19.078c-1.721 9.044 1.345 71.302 1.345 71.302s9.206 10.034 36.83 6.746c0 0 25.897-23.902 26.473-24.475.576-.572-11.703-23.76-11.703-23.76s14.006-3.603 17.457-8.227c0 0-4.221-42.788-37.599-40.664-.012 0-8.26 7.33-18.997 0z" fill="#6BC2E9"></path><path d="M455.809 168.099s-2.303 3.738-17.457 8.227c0 0 4.797 16.244 4.406 19.907-.37 3.541-29.669 35.593-31.725 37.836l-.203-.103s-15.697 4.999-15.885 5.654c-.188.655.249.985 5.995 1.298a.477.477 0 0 1 .444.515.477.477 0 0 1-.089.235c-1.721 2.337-7.085 9.738-6.591 10.295.587.682 5.54-5.801 6.333-5.544.793.256-4.198 6.459-3.455 7.082.744.622 5.109-5.179 5.514-5.017.405.163-3.181 6.165-2.964 6.787.218.623 4.824-5.311 5.37-5.27.546.041-1.275 5.214-.849 5.421.426.206.673.416 8.09-10.033l2.743-4.241.027-.295c2.937-1.587 40.082-21.934 44.317-37.476 4.418-16.213-4.021-35.278-4.021-35.278zM344.923 115.083c1.431 1.408 1.915 3.246 1.084 4.093s-2.664.405-4.095-1.003c-1.43-1.408-1.915-3.246-1.084-4.09.832-.844 2.665-.404 4.095 1z" fill="#FFC0BB"></path><path d="M342.75 117.315c1.431 1.407 1.915 3.246 1.084 4.093s-2.664.404-4.095-1.004c-1.43-1.407-1.915-3.246-1.084-4.09.832-.843 2.665-.404 4.095 1.001z" fill="#FFC0BB"></path><path d="M340.572 119.549c1.428 1.405 1.913 3.246 1.081 4.09-.831.844-2.664.404-4.095-1-1.43-1.405-1.912-3.246-1.081-4.093.832-.847 2.665-.405 4.095 1.003z" fill="#FFC0BB"></path><path d="M338.397 121.77c1.43 1.405 1.915 3.246 1.084 4.09-.832.844-2.665.404-4.095-1-1.431-1.405-1.915-3.246-1.084-4.093s2.664-.396 4.095 1.003z" fill="#FFC0BB"></path><path d="M400.397 111.263c.256 1.826 1.872 3.302 3.919 3.435 2.047.132 3.839-1.116 4.324-2.892l-8.243-.543z" fill="#fff"></path><path d="M426.246 103.679s4.294-15.448-4.039-21.701c-8.334-6.253-17.463-6.026-23.817-2.812-6.354 3.213-10.607 15.256-8.134 22.368l20.874-5.702 15.116 7.847z" fill="#030925"></path><path d="M394.375 103.518c.766 2.001.097 4.131-1.492 4.739-1.59.608-3.499-.504-4.266-2.505-.766-2.001-.097-4.131 1.493-4.739 1.589-.608 3.498.504 4.265 2.505z" fill="#F99893"></path><path d="M394.72 115.142a16.219 16.219 0 0 1-1.175-2.741 30.972 30.972 0 0 1-1.507-7.673 18.573 18.573 0 0 0-.185-1.517 16.628 16.628 0 0 1 3.393-12.904 16.494 16.494 0 0 1 5.234-4.342 16.424 16.424 0 0 1 13.255-.905 16.472 16.472 0 0 1 5.772 3.59 16.558 16.558 0 0 1 3.841 5.623 16.62 16.62 0 0 1 1.258 6.702 3.545 3.545 0 0 1 3.211-.192c1.939.918 2.585 3.638 1.448 6.076-1.137 2.437-3.631 3.674-5.581 2.756a3.093 3.093 0 0 1-.729-.484c-.975 8.103-7.702 14.244-15.624 13.961a14.748 14.748 0 0 1-9.949-4.397 7.7 7.7 0 0 1-.547-.537 14.385 14.385 0 0 1-2.115-3.016z" fill="#FFC0BB"></path><path d="M424.349 101.199c.978-.782 1.701-.687 1.701-.687l-.209-5.067-1.427-3.11s-5.752-8.452-5.957-8.664c-.206-.213-4.753-3.063-5.032-3.21-.279-.148-6.851.557-6.851.557s-11.376-2.862-9.693 3.264c1.683 6.126 9.92 9.661 10.36 9.41-1.301-1.413-1.275-5.264-1.275-5.264 5.649 6.737 16.665 11.98 18.383 12.771z" fill="#030925"></path><path d="m160.598 314.836 1.744 14.106 9.397.735-.146-13.085-10.995-1.756z" fill="#FFC0BB"></path><path d="m186.017 340.001-25.674.174a.983.983 0 0 1-1.004-.992v-.743c.006-.269.117-.526.308-.714.192-.189.449-.295.717-.295l25.671-.174a.972.972 0 0 1 .711.284.997.997 0 0 1 .296.71v.744a1.024 1.024 0 0 1-1.025 1.006z" fill="#fff"></path><path d="m160.695 329.097-.984 7.634c-.121.941.405 1.794 1.107 1.788l24.413-.165a1.812 1.812 0 0 0 1.604-1.133c.35-.752.426-1.883-.652-3.397-2.159-3.024-9.335-3.718-12.825-6.288l-11.371.077c-.634.003-1.181.631-1.292 1.484z" fill="#2A2A2A"></path><path d="M167.336 338.476c-1.871-6.15-5.179-6.808-6.991-6.654l-.634 4.91c-.121.941.405 1.794 1.107 1.788l6.518-.044z" fill="#E87B50" style="mix-blend-mode:multiply" opacity=".3"></path><path d="m146.17 315.134 4.154 13.613 9.564.068-1.666-9.939-12.052-3.742z" fill="#FFC0BB"></path><path d="m173.624 340.255-25.67.174a.988.988 0 0 1-.931-.61.995.995 0 0 1-.077-.385v-.743a1.03 1.03 0 0 1 1.025-1.006l25.671-.175a.99.99 0 0 1 1.008.992v.744a1.039 1.039 0 0 1-.309.714 1.027 1.027 0 0 1-.717.295z" fill="#fff"></path><path d="m148.301 329.348-.984 7.637c-.12.941.408 1.791 1.11 1.788l24.411-.168a1.807 1.807 0 0 0 1.604-1.13c.349-.756.425-1.886-.653-3.4-2.159-3.024-9.335-3.715-12.825-6.288l-11.37.077c-.635.006-1.181.634-1.293 1.484z" fill="#414141"></path><path d="M159.2 332.231a.508.508 0 0 1-.135-.622c.488-1.048 2.009-3.603 5.053-3.102a.422.422 0 0 1 .261.496c-.032.23-.191.381-.361.354-2.729-.442-4.022 1.812-4.406 2.689-.097.197-.268.271-.412.185z" fill="#fff"></path><path d="M115.965 216.757s47.587 5.261 56.655 13.89c9.068 8.628 2.006 83.233.493 89.185 0 0-8.28 3.966-14.834 1.936-6.553-2.03-3.049-40.133-3.049-40.133s.755-27.148-.252-30.955c-1.008-3.806-14.873-6.598-14.873-6.598s-45.651-21.943-44.39-21.943c1.26 0 20.25-5.382 20.25-5.382z" fill="#5B5270"></path><path d="M63.285 228.058a97.253 97.253 0 0 1 3.326-22.86l21.358 18.523.188-1.653s53.462-6.392 60.77 17.965c7.309 24.357 12.106 82.035 12.106 82.035s-5.355 7.083-14.934 2.765c0 0-14.5-63.993-19.573-69.069-3.234-3.234-63.749.567-63.24-27.706z" fill="#4B4260"></path><path d="M136.152 132.984a.353.353 0 0 0 .587-.189c.382-2.139 1.634-8.853 2.198-8.888.669-.03-.294 6.005.243 6.309.538.304 1.349-5.607 2.057-5.524.708.082-.188 5.45.103 5.592.29.141 1.709-4.905 2.164-5.108.456-.204-.408 5.364-.102 5.639.305.274 2.173-3.37 2.502-3.246.329.124.57.156-1.289 9.576l-.881 3.676-2.35 2.603-3.943-1.475s-5.343-11.149-5.084-11.586c.258-.436.678-.365 3.795 2.621z" fill="#FFC0BB"></path><path d="M119.874 170.331s7.285 17.337 19.752 17.528c12.466.192 5.175-48.353 5.175-48.353h-9.4s-1.336 25.814-2.012 26.009c-.675.195-6.618-14.256-6.618-14.256l-6.897 19.072z" fill="url(#adml33vv9c)"></path><path d="m92.002 113.771-.566 8.359 8.113 5.023 3.228-1.597.179-10.351-10.954-1.434z" fill="#FFC0BB"></path><path d="M80.73 101.152s-5.323-13.332 2.282-19.618c7.605-6.285 16.474-6.893 22.874-4.603 6.401 2.29 11.427 12.606 9.565 19.14l-20.662-3.22-14.06 8.301z" fill="#030925"></path><path d="M113.192 98.855c-.458 1.951.473 3.81 2.086 4.149 1.612.34 3.287-.968 3.748-2.918.461-1.95-.473-3.813-2.086-4.152-1.613-.34-3.287.968-3.748 2.921z" fill="#F99893"></path><path d="M114.46 109.61c.339-.871.593-1.773.761-2.694a27.65 27.65 0 0 0 .391-7.27 18.72 18.72 0 0 1-.033-1.423 14.936 14.936 0 0 0-1.116-5.846c-2.567-6.285-9.241-10.222-16.224-9.552-9.4.885-15.888 9.28-14.393 18.042a3.563 3.563 0 0 0-3.108.295c-1.736 1.121-1.983 3.721-.555 5.801 1.427 2.081 3.992 2.863 5.725 1.738.235-.153.448-.338.634-.548a14.88 14.88 0 0 0 6.414 8.6 14.764 14.764 0 0 0 10.506 2.023 14.59 14.59 0 0 0 8.942-5.477c.161-.182.311-.373.449-.573.67-.963 1.21-2.01 1.607-3.116z" fill="#FFC0BB"></path><path d="M83.837 100.866s10.22-5.66 15.099-12.83c0 0 .34 3.523-.705 4.919.414.195 7.482-3.674 8.472-9.41.99-5.737-8.924-2.243-8.924-2.243s-5.92-.145-6.17.014c-.249.16-4.059 3.114-4.226 3.323-.168.21-4.603 8.387-4.603 8.387l-1.017 2.95-1.045 5.171 3.12-.281z" fill="#030925"></path><path d="M91.436 79.743s-9.4-18.175-25.115-16.62C50.605 64.678 47.157 77.471 47.874 83.81c.716 6.339 4.993 13.391.951 22.238-4.042 8.847-3.096 22.132 9.283 21.105 12.378-1.027 9.64-13.731 9.76-18.254.121-4.524 8.813-4.052 6.666-12.3-2.147-8.248-7.855-16.734.117-17.932 7.973-1.198 12.737 2.51 12.737 2.51l4.048-1.433z" fill="#030925"></path><path d="M123.416 121.51v13.386a4.799 4.799 0 0 0 1.396 3.387 4.74 4.74 0 0 0 3.372 1.402h6.397a4.757 4.757 0 0 0 2.872-.966 4.796 4.796 0 0 0 1.714-2.507 5.957 5.957 0 0 0 4.143-1.75 6.01 6.01 0 0 0 1.755-4.158 6.013 6.013 0 0 0-1.628-4.209 5.961 5.961 0 0 0-4.088-1.876v-2.709h-15.933zm15.933 12.642v-7.876c.99.072 1.917.518 2.594 1.249a3.958 3.958 0 0 1 0 5.378 3.924 3.924 0 0 1-2.594 1.249z" fill="#70C0FD"></path><path opacity=".3" d="M136.004 121.51h3.346v13.386a4.8 4.8 0 0 1-1.396 3.386 4.749 4.749 0 0 1-3.371 1.403h-6.398a4.748 4.748 0 0 1-2.136-.51 4.779 4.779 0 0 1-1.683-1.417c13.404.392 11.638-16.248 11.638-16.248z" fill="#4188E4"></path><path d="M123.416 121.663c0 .829 3.575 1.499 7.987 1.499s7.984-.67 7.984-1.499c0-.83-3.575-1.499-7.984-1.499s-7.987.669-7.987 1.499z" fill="#E6F7FF"></path><path d="M124.061 121.664c0 .637 3.287 1.154 7.343 1.154 4.057 0 7.344-.517 7.344-1.154 0-.637-3.287-1.154-7.344-1.154-4.056 0-7.343.517-7.343 1.154z" fill="#70C0FD"></path><path d="M131.404 122.817c3.913 0 7.085-.381 7.085-.85s-3.172-.85-7.085-.85-7.086.381-7.086.85 3.173.85 7.086.85z" fill="#4C2816"></path><path opacity=".3" d="M143.599 130.212a3.964 3.964 0 0 1-1.054 2.69 3.93 3.93 0 0 1-2.594 1.25v-.092a3.927 3.927 0 0 0 2.19-1.389 3.96 3.96 0 0 0 0-4.914 3.934 3.934 0 0 0-2.19-1.39v-.091a3.925 3.925 0 0 1 2.594 1.248 3.96 3.96 0 0 1 1.054 2.688z" fill="#4188E4"></path><path opacity=".2" d="M125.177 133.834a.647.647 0 0 0 .649-.655v-8.458a.65.65 0 1 0-1.301 0v8.446a.654.654 0 0 0 .399.617c.08.033.166.05.253.05z" fill="#fff"></path><path d="M124.453 134.273c.032.055.079.1.134.131a.352.352 0 0 0 .483-.157c.931-1.963 3.898-8.118 4.447-7.994.655.15-1.862 5.716-1.413 6.152.45.437 2.765-5.057 3.44-4.786.676.272-1.607 5.211-1.363 5.424.244.212 2.938-4.279 3.425-4.356.488-.076-1.797 5.07-1.574 5.415.223.346 2.978-2.679 3.263-2.47.285.21.512.295-3.751 8.894l-1.818 3.314-2.938 1.895-3.419-2.455s-2.238-12.167-1.874-12.524c.364-.357.732-.183 2.958 3.517z" fill="#FFC0BB"></path><path d="M90.531 120.625s-17.833 4.24-20.133 15.604c-2.3 11.364-12.276 71.666-8.249 91.316 0 0 10.934 16.953 36.822-.965 0 0 10.163-8.853 17.451-9.823l-6.521-29.282 12.464-38.335s1.536-22.348-15.149-25.431c0 0-8.821 3.077-16.685-3.084z" fill="url(#8h00q1csfd)"></path><path d="M75.48 132.664c2.77-2.62 7.296-1.77 9.106 1.605 4.444 8.287 17.117 31.799 18.212 32.593 1.343.962 18.988-26.059 18.988-26.059s6.327.245 9.203 2.555c0 0-9.588 52.013-26.848 47.97-13.201-3.095-25.283-26.369-30.233-37.137a23.484 23.484 0 0 1-1.504-15.625c.594-2.287 1.554-4.459 3.076-5.902z" fill="url(#u6lsulecfe)"></path><path d="M96.868 196.998h-7.376V340.09h7.376V196.998zM166.472 196.998h-7.376V340.09h7.376V196.998zM321.569 196.998h-7.376V340.09h7.376V196.998zM391.176 196.998H383.8V340.09h7.376V196.998z" fill="#C8D9D6"></path><path d="M407.992 189.563H70.37c-.348 0-.629.332-.629.741v7.643c0 .409.281.741.629.741h337.622c.347 0 .629-.332.629-.741v-7.643c0-.409-.282-.741-.629-.741z" fill="#3EAF78"></path><path d="M408.093 189.755h-74.072c-.076 0-.138.323-.138.721v7.436c0 .398.062.72.138.72h74.072c.076 0 .138-.322.138-.72v-7.436c0-.398-.062-.721-.138-.721z" fill="#5EC794"></path><path d="M516.425 338.452H17.07a2.774 2.774 0 1 0 0 5.548h499.355a2.774 2.774 0 0 0 0-5.548z" fill="#B2CAC6"></path><path d="M206.821 151.967h-50.68l-14.367 35.205h-24.413a1.235 1.235 0 0 0-1.237 1.239 1.235 1.235 0 0 0 1.237 1.242h72.629l16.831-37.686z" fill="#07085B"></path><path d="M181.69 172.055c-.294 1.499-1.601 2.502-2.911 2.24-1.31-.263-2.124-1.691-1.827-3.193.296-1.502 1.604-2.502 2.911-2.24 1.307.263 2.126 1.691 1.827 3.193z" fill="#DAEEF7"></path><path d="M470.557 263.461c-.428-3.797-.937-7.672-2.696-11.071-2.139-4.132-5.893-7.083-9.177-10.37a57.59 57.59 0 0 1-13.683-21.863c-2.188-6.345-3.281-13.105-6.297-19.095-1.845-3.657-4.357-6.929-6.463-10.447-3.977-6.692-6.501-14.359-10.824-20.727a2.097 2.097 0 0 0-2.383-.798 2.104 2.104 0 0 0-1.436 2.07 30.258 30.258 0 0 0 7.103 18.219c1.65 1.933 3.566 3.674 4.826 5.902 2.285 4.013 2.077 8.909 2.35 13.524a59.522 59.522 0 0 0 7.085 24.861c4.406 8.1 10.757 15.318 13.11 24.242 1.762 6.687 1.24 14.185 4.994 19.98.405.629.881 1.26.972 2.001.036.421.011.844-.073 1.257-.086.54-.168 1.077-.253 1.617-.855 5.471-1.739 12.435 2.937 16.525 3.252 2.839 7.435 2.901 9.77-.867 2.336-3.768 2.142-9.355 1.969-13.627-.271-7.124-1.032-14.259-1.831-21.333z" fill="#4CBD85"></path><path d="M479.01 259.059c-1.827-6.336-4.659-12.367-6.078-18.806-1.378-6.247-1.386-12.689-1.392-19.101v-21.029c0-4.364 0-8.752-.729-13.057-1.548-9.26-6.348-17.821-7.161-27.175-.353-4.046.055-8.133-.388-12.17a19.185 19.185 0 0 0-1.906-6.704 2.987 2.987 0 0 0-2.72-1.595 2.985 2.985 0 0 0-2.627 1.745c-2.332 5.064-3.818 10.541-2.867 15.965.564 3.246 1.971 6.291 3.02 9.425 4.677 13.943 2.194 29.379 5.813 43.638 1.09 4.305 2.744 8.525 2.938 12.963.458 10.623-7.453 20.323-6.727 30.929.587 8.693 6.83 15.89 9.45 24.197 1.469 4.651 1.777 9.617 3.349 14.235 1.219 3.586 4.053 7.944 8.459 6.855 4.183-1.036 2.92-4.456 2.732-7.725-.649-11.057-.055-21.787-3.166-32.59z" fill="#32AF71"></path><path d="M488.581 264.863c-.185-3.291-.74-6.602-.279-9.865.388-2.756 1.469-5.356 2.265-8.027 1.468-5.016 1.827-10.26 2.182-15.465l1.933-28.388c1.005-14.71 2.012-29.459 4.756-43.945.761-4.019 1.615-8.378-.188-12.049-.379-.773-1.128-1.593-1.948-1.336-.587.183-.881.829-1.081 1.404-5.998 16.34-8.263 33.936-14.957 49.992-1.604 3.836-3.469 7.631-4.298 11.718-.999 4.91-.449 9.977-.32 14.984.182 7.183-.514 14.418-2.491 21.321-1.037 3.612-2.42 7.144-2.99 10.859-.705 4.63-.112 9.348.332 14.014a216.281 216.281 0 0 1 .86 26.998c-.161 5.311 4.298 5.158 7.25 1.903 2.056-2.275 2.056-4.772 2.752-7.602 2.324-9.298 6.786-16.433 6.222-26.516z" fill="#4CBD85"></path><path d="M460.727 279.223c-3.942-6.351-11.797-9.962-14.315-17.003-.643-1.794-.881-3.721-1.677-5.454-1.739-3.853-5.693-6.028-9.582-7.802a.815.815 0 0 0-.789.05.825.825 0 0 0-.386.694 2.824 2.824 0 0 0 1.219 2.378 15.803 15.803 0 0 1 6.286 8.593c1.202 4.132.679 8.652 2.171 12.689 1.254 3.382 3.819 6.147 5.047 9.546 1.107 3.108.99 6.492 1.513 9.759.522 3.267 1.965 6.716 4.949 8.094 10.825 4.984 8.111-17.442 5.564-21.544z" fill="#32AF71"></path><path d="M505.643 277.124c-.167 3.072.294 6.291-.896 9.118-.766 1.812-2.147 3.275-3.278 4.881-3.974 5.636-5.417 13.621-11.524 16.793a2.065 2.065 0 0 1-1.301.313c-.626-.115-1.034-.72-1.287-1.307-1.498-3.5.183-7.439 1.175-11.113.174-.641.321-1.358.015-1.951-.338-.649-1.101-.929-1.627-1.44-1.043-1.018-.943-2.703-.738-4.149a94.035 94.035 0 0 1 2.18-10.723c.529-1.998 1.14-4.017 2.288-5.734 1.266-1.891 3.105-3.302 4.827-4.786a57.323 57.323 0 0 0 16.69-24.702c.708-2.066 1.337-4.238 2.794-5.852 1.457-1.614 4.059-2.446 5.834-1.18 1.263.885-3.913 9.236-4.515 10.236-1.725 2.86-1.748 5.347-2.723 8.526-2.391 7.769-7.461 14.733-7.914 23.07z" fill="#4CBD85"></path><path d="M499.618 280.676c1.131-2.93 2.268-5.902 2.644-9.015.414-3.467-.135-7.011.456-10.452.76-4.426 3.334-8.316 4.605-12.618.92-3.107 1.146-6.371 1.698-9.564 1.581-9.148 5.875-18.057 4.636-27.243-.268-2-1.175-4.329-3.146-4.668-1.792-.31-3.422 1.331-3.887 3.096-.464 1.764-.12 3.626 0 5.447a22.53 22.53 0 0 1-4.018 14.418c-2.811 3.99-6.894 6.994-9.426 11.172-3.105 5.123-3.525 11.379-5.112 17.16-3.152 11.508-11.056 21.541-12.499 33.377-.572 4.722.532 10.441 4.868 12.32 12.552 5.445 16.341-16.064 19.181-23.43z" fill="#32AF71"></path><path d="M477.689 289.329h-28.787a3.042 3.042 0 0 0-2.391 1.165 3.083 3.083 0 0 0-.573 2.606l10.496 44.367c.157.672.535 1.27 1.073 1.699a3.037 3.037 0 0 0 1.891.662h34.585a3.04 3.04 0 0 0 1.892-.662 3.061 3.061 0 0 0 1.075-1.699l10.496-44.367a3.076 3.076 0 0 0-.575-2.607 3.045 3.045 0 0 0-2.392-1.164h-26.79z" fill="#183658"></path><defs><linearGradient id="zjqnnbp9ya" x1="410.405" y1="265.976" x2="328.636" y2="268.04" gradientUnits="userSpaceOnUse"><stop stop-color="#FFD000"></stop><stop offset="1" stop-color="#FF7300"></stop></linearGradient><linearGradient id="1ozcraaxeb" x1="460.834" y1="260.562" x2="344.945" y2="264.2" gradientUnits="userSpaceOnUse"><stop stop-color="#FFD000"></stop><stop offset="1" stop-color="#FF7300"></stop></linearGradient><linearGradient id="adml33vv9c" x1="148.58" y1="163.181" x2="119.214" y2="163.753" gradientUnits="userSpaceOnUse"><stop stop-color="#FFD000"></stop><stop offset="1" stop-color="#FF7300"></stop></linearGradient><linearGradient id="8h00q1csfd" x1="126.157" y1="176.528" x2="59.707" y2="177.77" gradientUnits="userSpaceOnUse"><stop stop-color="#FFD000"></stop><stop offset="1" stop-color="#FF7300"></stop></linearGradient><linearGradient id="u6lsulecfe" x1="134.627" y1="160.711" x2="70.308" y2="162.91" gradientUnits="userSpaceOnUse"><stop stop-color="#FFD000"></stop><stop offset="1" stop-color="#FF7300"></stop></linearGradient></defs></svg>