<svg xmlns="http://www.w3.org/2000/svg" width="32" height="32" viewBox="0 0 32 32" fill="none"><path d="M12.176 1c-1.146.027-2.111.302-2.834.864-.723.562-1.14 1.38-1.282 2.229-.283 1.695.309 3.56 1.167 5.394a23.127 23.127 0 0 0 3.199 4.988c.583.685 1.156 1.267 1.72 1.707.562.44 1.085.813 1.854.813.769 0 1.291-.373 1.855-.813.563-.44 1.136-1.021 1.719-1.707a23.128 23.128 0 0 0 3.199-4.988c.858-1.833 1.45-3.699 1.167-5.394-.142-.848-.559-1.667-1.282-2.229S20.97 1.026 19.824 1h-.021c-1.657.009-2.796 1.05-3.803 2-1.007-.95-2.146-1.991-3.803-2h-.021zm.01 2h.01c.83.01 1.922.973 3.137 2.072a1 1 0 0 0 1.334 0c1.215-1.1 2.307-2.061 3.136-2.073h.01c.832.025 1.326.212 1.616.438.294.228.452.516.53.989.159.946-.22 2.574-.989 4.217a21.452 21.452 0 0 1-2.917 4.54c-.52.612-1.034 1.11-1.438 1.427-.293.229-.543.327-.615.364-.072-.037-.321-.135-.615-.364-.404-.316-.918-.815-1.438-1.427a21.44 21.44 0 0 1-2.917-4.54C10.26 7 9.882 5.372 10.04 4.426c.079-.473.237-.76.531-.99.29-.225.784-.412 1.616-.437zM3.33 6.331c-.426 0-.873.13-1.209.385a2.107 2.107 0 0 0-.667.906c-.261.638-.303 1.276-.343 1.895h.01c-.003.032-.202 2.375-.083 5.29.12 2.934.501 6.43 1.938 8.903 1.318 2.269 2.669 3.704 4.105 4.738.682.49 1.052.754 1.136.853.083.1.114.11.114.688a.999.999 0 0 0 1 1h6.533l.063.01a.991.991 0 0 0 .188-.01h6.554a1 1 0 0 0 1-1c0-.578.03-.588.114-.688.083-.1.454-.363 1.136-.853 1.436-1.034 2.786-2.469 4.105-4.738 1.437-2.473 1.819-5.969 1.938-8.903.119-2.915-.08-5.259-.083-5.29h.01c-.04-.619-.081-1.257-.344-1.895a2.106 2.106 0 0 0-.666-.906 2.043 2.043 0 0 0-1.21-.385c-1.646 0-2.896.855-3.281 2.01-.262.783-.301 1.742-.344 2.644-.011.23-.005.225-.01.427a2.8 2.8 0 0 0-2.574 1.426l-3.012 5.384c-.134.24-.82.716-1.688 1.312-.585.402-1.247.913-1.76 1.625-.514-.712-1.176-1.223-1.761-1.625-.868-.596-1.554-1.072-1.688-1.312L9.539 12.84a2.799 2.799 0 0 0-2.573-1.427c-.006-.202 0-.197-.01-.427-.044-.902-.083-1.86-.345-2.645-.385-1.154-1.635-2.01-3.282-2.01zm0 1.999c1.02 0 1.299.386 1.386.646.071.215.199 1.255.24 2.103.033.708.03 1.136.03 1.323-.68.866-.753 2.097-.197 3.071l.01.021 4.658 8.31a1.001 1.001 0 0 0 1.75-.97l-4.668-8.33-.01-.02c-.2-.344-.088-.848.177-1 .235-.135.94.066 1.083.323l3.022 5.394c.575 1.028 1.522 1.46 2.292 1.988.77.53 1.368 1.04 1.615 1.781.052.155.199 1.401.24 2.75.031 1.031.03 2.175.031 3.269h-4.772c-.09-.364-.23-.696-.459-.969-.423-.506-.878-.742-1.51-1.197-1.216-.876-2.335-2.034-3.543-4.113-1.079-1.856-1.563-5.188-1.678-7.987-.114-2.8.084-5.06.084-5.06v-.022c.038-.58.111-1.073.188-1.26.014-.034.023-.04.03-.052v.001zm25.34 0c.007.013.017.018.03.052.077.187.15.68.189 1.26v.02s.197 2.262.083 5.062c-.114 2.798-.6 6.13-1.678 7.986-1.208 2.08-2.326 3.238-3.542 4.114-.632.454-1.088.69-1.511 1.197-.228.273-.37.605-.459.969H17.01c.002-1.095 0-2.238.031-3.27.041-1.348.188-2.595.24-2.75.247-.74.844-1.251 1.615-1.78.77-.528 1.717-.96 2.292-1.989l3.022-5.394c.144-.256.849-.457 1.083-.322.265.152.377.656.178 1a4.023 4.023 0 0 1-.01.02l-4.668 8.33a1 1 0 1 0 1.75.969l4.658-8.31v-.01c.002-.004.008-.007.01-.01.556-.975.482-2.206-.198-3.072.001-.187-.002-.614.031-1.323.04-.847.168-1.888.24-2.103.087-.26.366-.646 1.386-.646z" fill="#43B97F" stroke="#43B97F"></path></svg>