<svg xmlns="http://www.w3.org/2000/svg" width="30" height="30" viewBox="0 0 30 30" fill="none"><path d="M27.505 2.755V19.37c0 .742.006 1.48 0 2.222 0 .07-.003.14-.013.213.016-.122.031-.248.044-.37a1.84 1.84 0 0 1-.075.314c.04-.112.084-.224.125-.336a1.811 1.811 0 0 1-.16.315l.197-.283a1.685 1.685 0 0 1-.227.255l.252-.22c-.087.073-.18.133-.28.178.1-.045.2-.094.299-.14-.09.039-.184.067-.28.084.108-.017.22-.035.33-.049-.265.035-.54.014-.805.014H2.493c-.069 0-.135-.003-.203-.014.109.018.221.035.33.05a1.366 1.366 0 0 1-.28-.085c.1.046.2.095.3.14a1.52 1.52 0 0 1-.282-.178l.253.22a1.685 1.685 0 0 1-.228-.255l.197.283a1.46 1.46 0 0 1-.16-.315l.126.336a1.764 1.764 0 0 1-.075-.315c.015.123.03.249.043.371-.025-.217-.012-.44-.012-.661V5.019c0-.75-.003-1.498 0-2.243 0-.07.003-.144.012-.213-.015.122-.03.248-.043.37.015-.108.04-.21.075-.314-.04.111-.085.223-.125.335.044-.112.097-.217.159-.315l-.197.284a1.68 1.68 0 0 1 .228-.256l-.253.22c.088-.073.181-.132.281-.178-.1.046-.2.095-.3.14a1.31 1.31 0 0 1 .281-.084c-.109.018-.221.035-.33.05.265-.036.54-.015.804-.015h24.42c.069 0 .134.004.203.014a10.8 10.8 0 0 0-.33-.049c.096.018.186.046.28.084-.1-.045-.2-.094-.3-.14.1.05.194.109.281.179l-.252-.22c.084.076.159.16.227.255l-.196-.284c.065.098.118.203.159.315-.04-.112-.084-.224-.125-.336.034.102.06.207.075.315a15.099 15.099 0 0 1-.044-.37c.01.066.013.129.013.192.006.364.134.731.365.99.215.241.57.427.882.41.668-.036 1.26-.616 1.248-1.4C29.975 1.24 28.896.023 27.545.002H3.157c-.228 0-.459-.004-.686 0C1.6.012.765.522.328 1.38c-.23.455-.327.959-.327 1.476v18.55c0 .102-.003.203.003.305.044.71.28 1.41.76 1.896.472.48 1.055.749 1.694.76.178.003.359 0 .537 0h24.538c.246-.004.502-.036.736-.123a2.55 2.55 0 0 0 1.432-1.316c.202-.451.299-.923.299-1.427V2.748c0-.731-.574-1.434-1.248-1.4-.676.043-1.247.624-1.247 1.407z" fill="#43B97F"></path><path d="M7.789 7.933h1.97c-.401-.343-.8-.686-1.203-1.029.24.812.483 1.624.724 2.435.386 1.295.77 2.593 1.157 3.887.087.298.177.598.265.896.103.346.287.647.574.836.268.175.66.248.96.14.303-.109.593-.319.745-.644.153-.322.231-.72.125-1.077-.24-.812-.483-1.624-.723-2.435-.387-1.295-.77-2.593-1.157-3.887l-.266-.896c-.174-.588-.633-1.029-1.203-1.029H7.786c-.652 0-1.279.644-1.248 1.4.035.759.552 1.403 1.25 1.403zM15.829 17.547c.021.458.155.885.449 1.214.283.318.68.504 1.082.504s.798-.186 1.082-.504c.29-.325.437-.76.45-1.214.024-.927-.709-1.708-1.517-1.714a1.474 1.474 0 0 0-1.088.49c-.302.342-.437.752-.458 1.224-.016.346.15.749.364.99.216.242.571.427.883.41.321-.018.658-.137.883-.41a1.63 1.63 0 0 0 .365-.99c0-.01 0-.025.003-.035-.016.122-.031.248-.044.37a.568.568 0 0 1 .025-.097c-.04.112-.084.224-.125.336l.028-.056-.196.283c.019-.028.037-.045.062-.07l-.252.22a.156.156 0 0 1 .05-.03c-.1.044-.2.093-.3.139a.37.37 0 0 1 .088-.028 10.8 10.8 0 0 1-.331.049.186.186 0 0 1 .062 0c-.109-.018-.221-.035-.33-.049a.423.423 0 0 1 .087.028c-.1-.046-.2-.095-.3-.14.02.01.035.021.05.032a497.16 497.16 0 0 1-.252-.22c.025.02.04.041.062.07l-.196-.284a.185.185 0 0 1 .028.056c-.04-.112-.084-.224-.125-.336a.49.49 0 0 1 .025.098 14.629 14.629 0 0 1-.044-.371.265.265 0 0 1 0 .07c.016-.123.032-.248.044-.37a.56.56 0 0 1-.025.097c.04-.112.084-.224.125-.336l-.028.056.196-.283c-.018.028-.037.045-.062.07l.252-.22a.155.155 0 0 1-.05.03c.1-.045.2-.094.3-.14a.37.37 0 0 1-.087.029c.109-.018.221-.035.33-.05a.186.186 0 0 1-.062 0c.109.018.221.036.33.05a.422.422 0 0 1-.087-.028c.1.045.2.094.3.14-.02-.01-.035-.021-.05-.032l.252.22c-.025-.02-.04-.041-.062-.07l.196.284a.183.183 0 0 1-.028-.056c.04.112.084.224.125.336a.498.498 0 0 1-.025-.098c.016.123.031.248.044.37 0-.01 0-.024-.003-.034-.02-.37-.128-.72-.365-.99-.215-.242-.571-.427-.883-.41-.321.018-.658.137-.883.41-.218.266-.383.619-.364.99zM11.363 17.547c.021.458.156.885.449 1.214.284.318.68.504 1.082.504s.798-.186 1.082-.504c.29-.325.437-.76.45-1.214.024-.927-.709-1.708-1.516-1.714a1.474 1.474 0 0 0-1.089.49c-.3.342-.436.752-.458 1.224-.016.346.15.749.365.99.215.242.57.427.882.41.322-.018.658-.137.883-.41a1.63 1.63 0 0 0 .365-.99c0-.01 0-.025.003-.035-.016.122-.031.248-.044.37a.569.569 0 0 1 .025-.097c-.04.112-.084.224-.125.336l.028-.056-.196.283c.019-.028.037-.045.062-.07l-.252.22a.156.156 0 0 1 .05-.03c-.1.044-.2.093-.3.139a.37.37 0 0 1 .088-.028c-.11.017-.222.035-.331.049a.187.187 0 0 1 .062 0c-.109-.018-.221-.035-.33-.049a.42.42 0 0 1 .087.028c-.1-.046-.2-.095-.3-.14.02.01.035.021.05.032a497.16 497.16 0 0 1-.252-.22c.025.02.04.041.062.07l-.196-.284a.185.185 0 0 1 .028.056c-.04-.112-.084-.224-.125-.336a.497.497 0 0 1 .025.098 15.102 15.102 0 0 1-.043-.371.265.265 0 0 1 0 .07c.015-.123.03-.248.043-.37a.57.57 0 0 1-.025.097c.04-.112.084-.224.125-.336a.833.833 0 0 1-.028.056l.196-.283c-.018.028-.037.045-.062.07l.253-.22a.154.154 0 0 1-.05.03c.1-.045.2-.094.3-.14a.368.368 0 0 1-.088.029c.109-.018.221-.035.33-.05a.187.187 0 0 1-.062 0c.11.018.222.036.33.05a.421.421 0 0 1-.087-.028c.1.045.2.094.3.14-.019-.01-.035-.021-.05-.032l.252.22c-.025-.02-.04-.041-.062-.07l.197.284a.185.185 0 0 1-.029-.056c.041.112.085.224.125.336a.498.498 0 0 1-.025-.098c.016.123.031.248.044.37 0-.01 0-.024-.003-.034-.019-.37-.128-.72-.365-.99-.215-.242-.57-.427-.883-.41-.321.018-.658.137-.882.41-.216.266-.384.619-.365.99zM16.25 28.6v-5.63c0-.731-.574-1.434-1.248-1.4-.676.036-1.247.616-1.247 1.4V28.599c0 .732.574 1.435 1.247 1.4.677-.035 1.248-.616 1.248-1.4z" fill="#43B97F"></path><path d="M9.73 30H20.272c.652 0 1.28-.645 1.248-1.4-.031-.76-.549-1.4-1.248-1.4H9.73c-.653 0-1.28.644-1.248 1.4.03.755.548 1.4 1.247 1.4zM18.38 9.161c-.424 1.228-.848 2.46-1.27 3.688-.062.175-.121.353-.183.528l1.203-1.029H11.911c.403.343.802.686 1.204 1.029L12.03 9.682c-.05-.174-.103-.346-.153-.52-.402.59-.801 1.182-1.204 1.77h8.908c.651 0 1.278-.644 1.247-1.4-.031-.76-.549-1.4-1.247-1.4h-8.908c-.776 0-1.46.9-1.203 1.77l1.085 3.695c.05.175.103.347.153.522.171.588.636 1.028 1.204 1.028h6.218c.278 0 .54-.112.755-.3.228-.2.343-.424.446-.728.424-1.228.848-2.46 1.27-3.688.062-.175.121-.353.183-.528.11-.319.022-.794-.124-1.078-.153-.29-.45-.567-.746-.643-.318-.08-.677-.063-.96.14-.29.213-.453.482-.574.84z" fill="#43B97F"></path></svg>