<svg xmlns="http://www.w3.org/2000/svg" width="28" height="30" viewBox="0 0 28 30" fill="none"><path d="M23.355 22.863v1.453c2.094.537 3.206 1.2 3.206 1.642 0 .884-4.449 2.653-12.56 2.653-8.113 0-12.562-1.737-12.562-2.653 0-.442 1.08-1.073 3.206-1.642v-1.453C1.897 23.526 0 24.568 0 25.958 0 28.737 7.262 30 14 30s14-1.263 14-4.042c0-1.421-1.897-2.432-4.645-3.095z" fill="#43B97F"></path><path d="M6.411 25.958h6.117c.164 0 .327-.126.327-.316V21.6c0-.19.131-.316.328-.316h1.668c.196 0 .36.126.36.316v4.042c0 .158.13.316.327.316h6.117c.163 0 .327-.126.327-.316V11.716c0-.474-.393-.821-.85-.821h-4.09c-.229-.79-1.145-1.453-2.387-1.643V5.747c.261.032.523.064.752.064.622 0 1.177-.127 1.734-.253.817-.19 1.635-.379 2.682-.095.065 0 .196 0 .262-.063a.264.264 0 0 0 .13-.221V1.232c0-.127-.13-.285-.261-.316-1.178-.284-2.061-.095-2.944.094-.752.19-1.44.316-2.323.19V.663A.68.68 0 0 0 14.002 0a.652.652 0 0 0-.655.663v8.59c-1.243.19-2.191.82-2.387 1.642H6.968a.83.83 0 0 0-.85.82v13.958c-.033.158.13.285.294.285zm10.795-12.347c0-.19.13-.348.327-.348h1.668c.196 0 .327.158.327.348v1.61c0 .19-.163.316-.327.316h-1.668c-.196 0-.327-.126-.327-.316v-1.61zm0 3.979c0-.19.13-.316.327-.316h1.668c.196 0 .327.126.327.316v1.61c0 .19-.163.348-.327.348h-1.668c-.196 0-.327-.158-.327-.348v-1.61zm0 4.01c0-.19.163-.316.327-.316h1.668c.196 0 .327.126.327.316v1.61c0 .19-.163.317-.327.317h-1.668a.322.322 0 0 1-.327-.316V21.6zm-4.383-7.99c0-.189.13-.347.327-.347h1.668c.196 0 .36.158.36.348v1.61c0 .19-.164.316-.36.316H13.15c-.196 0-.327-.126-.327-.316v-1.61zm0 3.98c0-.19.13-.316.327-.316h1.668c.196 0 .36.126.36.316v1.61c0 .19-.164.348-.36.348H13.15c-.196 0-.327-.158-.327-.348v-1.61zM8.44 13.61c0-.189.13-.347.327-.347h1.668c.196 0 .36.158.36.348v1.61c0 .19-.164.316-.36.316H8.767c-.197 0-.328-.126-.328-.316v-1.61zm0 3.98c0-.19.13-.316.327-.316h1.668c.196 0 .36.126.36.316v1.61c0 .19-.164.348-.36.348H8.767c-.197 0-.328-.158-.328-.348v-1.61zm0 4.01c0-.19.13-.316.327-.316h1.668c.196 0 .36.126.36.316v1.61c0 .19-.164.316-.36.316H8.767a.322.322 0 0 1-.328-.316V21.6z" fill="#43B97F"></path></svg>