<svg xmlns="http://www.w3.org/2000/svg" width="32" height="32" viewBox="0 0 32 32" fill="none"><path d="M30.166 10.167h-6.39a.833.833 0 0 0-.832.833v5.555h-5.556a.833.833 0 0 0-.834.834v5.556H11a.833.833 0 0 0-.833.833v6.389c0 .46.373.833.833.833h19.167c.46 0 .833-.373.833-.833V11a.833.833 0 0 0-.833-.833zm-5.556 8.055h4.722v4.723H24.61v-4.723zm0-6.389h4.722v4.722H24.61v-4.722zm-6.389 6.39h4.723v4.722H18.22v-4.723zm-6.388 6.388h4.722v4.722h-4.722v-4.722zm6.388 0h4.723v4.722H18.22v-4.722zm11.111 4.722H24.61v-4.722h4.722v4.722z" fill="#43B97F" stroke="#43B97F"></path><path d="M11.833 8.5V11c0 .46.373.833.833.833a.833.833 0 1 1-.833.833.833.833 0 0 0-1.667 0A2.5 2.5 0 1 0 13.5 10.31V8.5h6.666a.833.833 0 0 0 .353-1.587l-12.5-5.834-.015-.003a.853.853 0 0 0-.16-.039.825.825 0 0 0-.163-.033L7.667 1H1.833A.834.834 0 0 0 1 1.833v28.333a.833.833 0 0 0 1.667 0v-27.5h4.166v27.5a.833.833 0 0 0 1.667 0V8.499h3.333zM8.5 6.833v-3.69l7.91 3.69H8.5z" fill="#43B97F" stroke="#43B97F"></path></svg>