<svg xmlns="http://www.w3.org/2000/svg" width="20" height="30" viewBox="0 0 20 30" fill="none"><path d="M8.482 26.231a.759.759 0 0 1 1.518 0 .759.759 0 0 1-1.518 0zM19.758 8.103l-3.683 4.26.456 5.615a.882.882 0 0 1-.38.829.937.937 0 0 1-.57.188 1.35 1.35 0 0 1-.38-.075l-2.163-.905c-.114 1.659-.57 3.392-.873 4.447h2.391c.836 0 1.519.679 1.519 1.508v1.507c.835 0 1.518.678 1.518 1.508v1.507c0 .83-.683 1.508-1.518 1.508H3.925a1.517 1.517 0 0 1-1.518-1.507v-1.508c0-.829.683-1.507 1.518-1.507V23.97c0-.829.683-1.507 1.519-1.507h2.392c-.304-1.055-.76-2.827-.873-4.447l-2.203.904a.982.982 0 0 1-.91-.113.881.881 0 0 1-.38-.829l.455-5.616L.242 8.103C.014 7.84-.062 7.5.052 7.2c.114-.302.342-.566.684-.641l5.505-1.32L9.202.453C9.392.188 9.696 0 10 0c.341 0 .645.15.797.452L13.76 5.24l5.505 1.319c.342.075.57.301.684.64.114.302.038.641-.19.905zM14.556 23.97H5.444v1.508h1.519c.417 0 .759.339.759.753a.759.759 0 0 1-.76.754H3.926v1.507h12.15v-1.507h-4.556a.759.759 0 0 1-.76-.754c0-.414.342-.753.76-.753h3.037V23.97zm-3.037-6.595L10 16.734l-1.518.64c.037 1.847.645 4.109.949 5.089h1.177c.265-.98.873-3.204.91-5.088zm5.543-8.443-4.67 1.508c-.417.113-.835-.076-.949-.49-.114-.415.076-.83.494-.942l4.67-1.508-3.797-.904-2.05-3.317v4.862a.759.759 0 0 1-1.52 0V3.279L7.19 6.596 3.395 7.5l4.67 1.508c.418.113.608.565.494.942-.114.415-.57.603-.95.49l-4.67-1.507 2.544 2.94-.304 3.844 2.886-3.92c.228-.339.721-.414 1.063-.15.342.226.418.716.152 1.055l-2.886 3.92L10 15.151l3.607 1.47-2.885-3.959c-.228-.339-.19-.791.151-1.055.342-.226.798-.188 1.064.15l2.885 3.92-.304-3.844 2.544-2.902zM10 9.648c-.417 0-.76.34-.76.754a.759.759 0 0 0 1.52 0A.759.759 0 0 0 10 9.65z" fill="#43B97F"></path></svg>