<svg xmlns="http://www.w3.org/2000/svg" width="32" height="22" viewBox="0 0 32 22" fill="none"><path d="m30.413 6.435-14.17-5.38a.76.76 0 0 0-.568 0l-14.17 5.38a.783.783 0 0 0-.432.393.752.752 0 0 0-.03.575.778.778 0 0 0 .387.435l5.092 2.483v6.435a2.972 2.972 0 0 0 1.584 2.434C9.924 20.384 13.016 21 16 21s6.077-.617 7.894-1.81a2.971 2.971 0 0 0 1.583-2.434v-6.435l1.576-.811v7.595a.82.82 0 0 0 .453.488.854.854 0 0 0 .677 0 .82.82 0 0 0 .454-.488V8.78l1.933-.942a.777.777 0 0 0 .387-.435.752.752 0 0 0-.03-.575.783.783 0 0 0-.432-.394h-.082zm-26.766.81 12.27-4.657 12.27 4.65-10.97 5.38-1.3.592-1.3-.593-10.97-5.371zm20.164 7.11v2.434c0 1.128-3 2.694-7.894 2.694-4.893 0-7.893-1.599-7.893-2.727v-5.68l3.8 1.858 2.427 1.193 1.275.625a.769.769 0 0 0 .717 0l1.342-.625 2.459-1.184 3.8-1.859-.033 3.27z" fill="#43B97F" stroke="#43B97F"></path></svg>