<svg xmlns="http://www.w3.org/2000/svg" width="31" height="30" viewBox="0 0 31 30" fill="none"><path d="M28.776 17.504a2.5 2.5 0 0 0-2.465-.073l-8.157 3.97a2.683 2.683 0 0 0-2.616-2.111h-4.379L9.33 17.46a1.071 1.071 0 0 0-.757-.314H4.286v-1.073c0-.591-.48-1.072-1.071-1.072H1.072a1.072 1.072 0 0 0 0 2.144h1.071v9.644H1.072a1.072 1.072 0 0 0 0 2.143h2.143c.591 0 1.071-.48 1.071-1.072v-1.07H6.18l4.897 2.428a7.344 7.344 0 0 0 3.27.782 7.03 7.03 0 0 0 4.3-1.478l10.267-6.79a2.515 2.515 0 0 0 1.09-2.07c0-.893-.459-1.7-1.227-2.159zm-1.062 2.45-10.311 6.824c-1.604 1.23-3.563 1.419-5.375.52l-5.122-2.54a1.08 1.08 0 0 0-.476-.111H4.287v-5.358h3.842l1.83 1.829c.2.201.473.314.757.314h4.822a.536.536 0 0 1 0 1.072h-4.822a1.072 1.072 0 0 0 0 2.143h4.822c.08 0 .153-.018.23-.024.249.075.523.067.775-.056l10.747-5.231a.383.383 0 0 1 .389.007.363.363 0 0 1 .182.319c0 .12-.06.233-.147.292z" fill="#43B97F"></path><path d="M5.394 11.797c-.074.275-.034.57.11.816l2.162 3.712c.296.51.948.682 1.458.391l.562-.322a8.66 8.66 0 0 0 2.85 1.464 1.07 1.07 0 1 0 .606-2.055 6.527 6.527 0 0 1-2.601-1.495 1.073 1.073 0 0 0-1.265-.148l-.292.168-1.083-1.86.277-.158c.413-.236.62-.716.51-1.18a6.415 6.415 0 0 1-.182-1.486c0-.48.06-.98.182-1.486a1.074 1.074 0 0 0-.51-1.18l-.279-.158 1.084-1.86.292.168c.408.234.922.174 1.264-.148a6.534 6.534 0 0 1 2.602-1.495c.456-.134.768-.553.768-1.028v-.314h2.182v.315c0 .475.313.894.768 1.028a6.55 6.55 0 0 1 2.604 1.494c.343.32.857.381 1.265.148l.292-.168 1.084 1.86-.278.158c-.412.237-.62.717-.51 1.18.121.507.183 1.006.183 1.486s-.061.98-.183 1.486c-.11.463.098.943.51 1.18l.278.159-1.084 1.859-.292-.168a1.077 1.077 0 0 0-1.265.147 6.534 6.534 0 0 1-2.601 1.495 1.07 1.07 0 0 0-.724 1.331 1.07 1.07 0 0 0 1.33.725 8.651 8.651 0 0 0 2.849-1.464l.562.322a1.071 1.071 0 0 0 1.459-.39l2.162-3.713a1.073 1.073 0 0 0-.393-1.469l-.552-.315a8.13 8.13 0 0 0 0-2.368l.552-.317a1.072 1.072 0 0 0 .393-1.47l-2.163-3.711a1.072 1.072 0 0 0-1.458-.391l-.563.321a8.732 8.732 0 0 0-2.08-1.196v-.625C18.236.48 17.756 0 17.164 0h-4.325c-.591 0-1.071.48-1.071 1.072v.625a8.726 8.726 0 0 0-2.081 1.196l-.563-.321a1.072 1.072 0 0 0-1.458.39L5.503 6.675a1.072 1.072 0 0 0 .393 1.469l.552.315a8.115 8.115 0 0 0 .001 2.37l-.553.315a1.073 1.073 0 0 0-.502.653z" fill="#43B97F"></path><path d="M15.002 16.073c.591 0 1.071-.48 1.071-1.071v-.197a3.21 3.21 0 0 0 2.143-3.018 3.219 3.219 0 0 0-3.214-3.215c-.59 0-1.072-.48-1.072-1.071 0-.59.482-1.072 1.072-1.072.59 0 1.071.482 1.071 1.072a1.072 1.072 0 0 0 2.143 0 3.21 3.21 0 0 0-2.143-3.018v-.197a1.072 1.072 0 0 0-2.143 0v.197a3.21 3.21 0 0 0-2.143 3.018 3.219 3.219 0 0 0 3.215 3.215c.59 0 1.071.48 1.071 1.071 0 .59-.48 1.072-1.071 1.072-.59 0-1.072-.482-1.072-1.072a1.072 1.072 0 0 0-2.143 0c0 1.395.9 2.574 2.143 3.018v.197c0 .591.48 1.071 1.072 1.071z" fill="#43B97F"></path></svg>