<svg xmlns="http://www.w3.org/2000/svg" width="18" height="30" viewBox="0 0 18 30" fill="none"><path d="M1.06 15.012v3.002a1 1 0 0 0 1.002 1h.15a3.973 3.973 0 0 1 3.865 3.992V29A1 1 0 0 0 7.078 30h4.005a1 1 0 0 0 .99-1v-6.004a4.024 4.024 0 0 1 3.876-3.992h.14a1.002 1.002 0 0 0 .926-.635v-.107a.97.97 0 0 0 0-.27v-2.98a1 1 0 0 0-.603-.915A8.99 8.99 0 0 0 14.966 2.26a9.002 9.002 0 0 0-14.9 5.645 8.99 8.99 0 0 0 1.522 6.192 1 1 0 0 0-.527.915zm13.996 1v1l-11.993.001v-1h11.993zm-5.006 6.994v5.014H8.069v-5.024a5.97 5.97 0 0 0-1.529-4.003h5.05a5.97 5.97 0 0 0-1.519 4.003l-.021.01zM9.06 2.003a6.988 6.988 0 0 1 7.01 7.048A6.982 6.982 0 0 1 13.947 14H4.172A6.982 6.982 0 0 1 9.059 2.002z" fill="#43B97F"></path><path d="M11.05 8.007a1.002 1.002 0 1 0 .001-2.004 1.002 1.002 0 0 0 0 2.004zM13.053 11.01a1.001 1.001 0 1 0 0-2.003 1.001 1.001 0 0 0 0 2.002zM9.06 11.01a1.001 1.001 0 1 0 0-2.004 1.001 1.001 0 0 0 0 2.003zM7.045 8.007a1.002 1.002 0 1 0 0-2.003 1.002 1.002 0 0 0 0 2.003zM5.043 11.01A1.002 1.002 0 0 0 5.751 9.3a1.002 1.002 0 1 0-1.412 1.42c.19.187.448.291.715.288h-.01z" fill="#43B97F"></path></svg>