<svg xmlns="http://www.w3.org/2000/svg" width="30" height="26" viewBox="0 0 30 26" fill="none"><path d="M26.145 8.133h-.355V3.781a3.747 3.747 0 0 0-1.128-2.674A3.888 3.888 0 0 0 21.938 0H8.062a3.888 3.888 0 0 0-2.724 1.107A3.747 3.747 0 0 0 4.21 3.781v4.352h-.359A3.887 3.887 0 0 0 1.128 9.24 3.746 3.746 0 0 0 0 11.914v14.073h2.568V23.03h24.865V26H30V11.948a3.744 3.744 0 0 0-1.117-2.697 3.887 3.887 0 0 0-2.738-1.118zM6.778 3.781c0-.335.135-.655.376-.891.24-.237.567-.37.908-.37H21.93c.34 0 .667.133.908.37.24.236.376.556.376.89v4.353h-1.831V6.545a3.16 3.16 0 0 0-.952-2.25 3.279 3.279 0 0 0-2.292-.934h-6.29a3.28 3.28 0 0 0-2.29.935 3.16 3.16 0 0 0-.95 2.249v1.588H6.78l-.001-4.352zM18.81 6.545v1.588h-7.625V6.545c0-.36.296-.653.663-.655h6.29c.37 0 .67.293.672.655zm8.622 13.96H2.554v-1.701h24.878v1.701zm0-4.39H2.554v-4.168c0-.334.135-.654.376-.89.24-.237.567-.37.908-.37h22.306c.34 0 .667.133.908.37.24.236.376.556.376.89l.004 4.168z" fill="#43B97F"></path></svg>