<svg xmlns="http://www.w3.org/2000/svg" width="32" height="32" viewBox="0 0 32 32" fill="none"><path fill-rule="evenodd" clip-rule="evenodd" d="M15.754 1a.683.683 0 0 0-.363.087A4.736 4.736 0 0 0 13.07 5.17c0 1.608.806 3.037 2.024 3.888l.032.314a4.626 4.626 0 0 0-1.832-.986c-1.653-.45-3.34.075-4.474 1.224a.682.682 0 0 0-.182.303.742.742 0 0 0 0 .368 4.67 4.67 0 0 0 3.281 3.325 4.558 4.558 0 0 0 3.59-.509l.203 1.896a7.15 7.15 0 0 0-1.14.173 2.67 2.67 0 0 0-.724.27c-.214.123-.52.35-.544.791v.01c0 .015-.01.03-.01.044v2.588a.714.714 0 0 0 .202.487.694.694 0 0 0 .48.206h5.113a.702.702 0 0 0 .682-.693v-2.663c-.031-.431-.344-.649-.555-.77a2.682 2.682 0 0 0-.724-.27 7.614 7.614 0 0 0-1.406-.185l-.17-1.635a4.54 4.54 0 0 0 3.163.292c1.654-.45 2.866-1.763 3.281-3.335a.702.702 0 0 0-.18-.671 4.578 4.578 0 0 0-4.475-1.214 4.601 4.601 0 0 0-2.173 1.322l-.075-.736a4.75 4.75 0 0 0 1.939-3.834c0-1.742-.94-3.267-2.322-4.083a.65.65 0 0 0-.32-.087zm-.022 1.517a3.342 3.342 0 0 1 1.3 2.653 3.35 3.35 0 0 1-1.3 2.653 3.343 3.343 0 0 1-1.3-2.653c0-1.09.513-2.046 1.3-2.653z" fill="#43B97F" stroke="#43B97F"></path><path fill-rule="evenodd" clip-rule="evenodd" d="M28.803 18.675c-.352.005-.728.09-1.097.271l-6.38 3.119a1.947 1.947 0 0 0-1.854-1.17l-3.665.109c-.899 0-1.582-.214-2.44-.466-.859-.253-1.877-.53-3.29-.53-1.166 0-2.739.36-4.017.8v-.811a.713.713 0 0 0-.202-.498.701.701 0 0 0-.48-.195H1.682c-.09 0-.174.019-.256.054a.672.672 0 0 0-.224.14.709.709 0 0 0-.202.499v10.31a.713.713 0 0 0 .202.487.695.695 0 0 0 .48.206h3.696c.09 0 .184-.02.267-.054a.709.709 0 0 0 .415-.639v-.888c4.486-.81 7.162.567 11.207.563.836 0 1.715-.407 2.812-.985 1.097-.579 2.342-1.366 3.611-2.199 2.539-1.667 5.146-3.563 6.498-4.494.465-.32.742-.824.8-1.322a2.055 2.055 0 0 0-.352-1.386c-.375-.555-1.057-.93-1.833-.92zm.096 1.354c.306-.005.479.168.607.357a.7.7 0 0 1 .128.444c-.015.13-.059.219-.213.325-1.392.959-3.968 2.844-6.466 4.484-1.25.82-2.474 1.58-3.505 2.123-1.031.543-1.927.834-2.184.834-3.66.003-6.527-1.37-11.207-.585v-.596a.68.68 0 0 0-.042-.27.694.694 0 0 0-.64-.434.685.685 0 0 0-.49.206.665.665 0 0 0-.138.228.72.72 0 0 0-.053.27v2.199h-.341V20.69h.34v2.188a.686.686 0 0 0 .054.27.665.665 0 0 0 .139.228.682.682 0 0 0 .49.205.685.685 0 0 0 .49-.205.694.694 0 0 0 .149-.228.712.712 0 0 0 .042-.27v-.596c1.204-.452 3.05-.888 4.017-.888 1.245 0 2.08.23 2.918.476.838.246 1.69.52 2.813.52h.02l3.687-.108c.341-.012.596.262.596.52 0 .256-.244.512-.65.53l-6.999.293a.674.674 0 0 0-.48.227.709.709 0 0 0 .043.986c.068.061.14.11.224.14.086.03.177.038.267.033l7.01-.303c.733-.032 1.418-.439 1.746-1.072l7.031-3.434c.24-.117.436-.17.597-.173z" fill="#43B97F" stroke="#43B97F"></path></svg>