<svg xmlns="http://www.w3.org/2000/svg" width="30" height="30" viewBox="0 0 30 30" fill="none"><path d="M22.5 15h-15a1.071 1.071 0 1 0 0 2.143h15a1.071 1.071 0 1 0 0-2.143zM22.5 19.286h-15a1.071 1.071 0 1 0 0 2.142h15a1.071 1.071 0 1 0 0-2.142zM22.5 10.714h-15a1.071 1.071 0 1 0 0 2.143h15a1.071 1.071 0 1 0 0-2.143z" fill="#43B97F"></path><path d="M28.929 27.857h-1.072V7.5a.946.946 0 0 0-.035-.175.943.943 0 0 0-.02-.164L25.659.733A1.072 1.072 0 0 0 24.643 0h-7.5a1.072 1.072 0 0 0-1.016.733L15 4.113 13.873.733A1.072 1.072 0 0 0 12.857 0h-7.5a1.072 1.072 0 0 0-1.016.733L2.2 7.16c-.032.1-.05.205-.05.31v20.386H1.07a1.071 1.071 0 1 0 0 2.143H28.93a1.071 1.071 0 1 0 0-2.143zm-16.072 0v-2.143h4.286v2.143h-4.286zm6.429 0v-3.214a1.072 1.072 0 0 0-1.072-1.072h-6.428a1.072 1.072 0 0 0-1.072 1.072v3.214H4.286V8.571h6.428a1.071 1.071 0 1 0 0-2.142H4.701L6.13 2.143h5.955l1.9 5.696a.156.156 0 0 0 .011.022c0 .017.009.034.015.05.007.017.01.016.013.023.029.068.065.132.107.193l.01.01c.008.011.02.019.027.03l.051.054c.017.018.031.036.048.052a1.066 1.066 0 0 0 .162.125c.042.027.086.052.132.074.02.01.042.015.064.023.023.009.052.022.08.03.095.03.195.044.295.046h7.5a1.071 1.071 0 1 0 0-2.142h-6.013l1.428-4.286h5.956l1.843 5.53v20.184h-6.428z" fill="#43B97F"></path></svg>