<svg xmlns="http://www.w3.org/2000/svg" width="30" height="30" viewBox="0 0 30 30" fill="none"><path d="M26.612 11.111h-.483V3.89c0-1.032-.357-2.02-.992-2.75C24.5.409 23.64 0 22.74 0H7.258c-.898 0-1.76.41-2.395 1.139-.635.73-.992 1.718-.992 2.75v11.667h-.484c-.898 0-1.76.41-2.395 1.139-.635.729-.992 1.718-.992 2.75v6.666c0 1.032.357 2.02.992 2.75S2.49 30 3.387 30h23.226c.898 0 1.76-.41 2.395-1.139.635-.73.992-1.718.992-2.75V15c0-1.032-.357-2.02-.992-2.75-.636-.73-1.497-1.139-2.395-1.139zM9.677 26.667h-6.29c-.267 0-.484-.249-.484-.556v-6.666c0-.307.217-.556.484-.556h7.742c.128 0 .251.058.342.163a.6.6 0 0 1 .142.393v7.222H9.677zm4.839 0v-7.222c0-1.032-.357-2.021-.992-2.75-.636-.73-1.497-1.14-2.395-1.14H6.774V3.89c0-.307.217-.556.484-.556H22.74c.129 0 .251.059.342.163a.6.6 0 0 1 .142.393v7.222h-.484c-.898 0-1.76.41-2.395 1.14-.635.729-.992 1.718-.992 2.75v11.666h-4.838zm12.58-.556a.6.6 0 0 1-.142.393.454.454 0 0 1-.342.163h-4.355V15c0-.307.217-.556.484-.556h3.871c.129 0 .252.059.342.163a.6.6 0 0 1 .142.393v11.111z" fill="#43B97F"></path></svg>