<svg xmlns="http://www.w3.org/2000/svg" width="30" height="30" viewBox="0 0 30 30" fill="none"><path d="M28.412 0H1.492C.667 0 0 .662 0 1.513v20.64c0 .82.667 1.513 1.524 1.513h10.444v2.742h-1.302a2.828 2.828 0 0 0-2.825 2.836c0 .41.35.756.762.756h12.793a.77.77 0 0 0 .762-.756c0-1.545-1.27-2.836-2.825-2.836h-1.301v-2.742h10.444c.825 0 1.524-.662 1.524-1.512V1.513C29.905.662 29.238 0 28.413 0zm-13.46 22.027a1.053 1.053 0 0 1-1.047-1.04c0-.567.476-1.04 1.047-1.04.572 0 1.048.473 1.048 1.04 0 .568-.476 1.04-1.048 1.04zm11.905-3.655H3.047V3.025h23.81v15.347z" fill="#43B97F"></path><path d="M13.619 15.977h10.444a.283.283 0 0 0 .286-.284v-1.418a.283.283 0 0 0-.286-.283H13.619a.283.283 0 0 0-.286.283v1.418c0 .158.127.284.286.284zM13.619 11.723h10.444a.283.283 0 0 0 .286-.284v-1.418a.283.283 0 0 0-.286-.283H13.619a.283.283 0 0 0-.286.283v1.418c0 .158.127.284.286.284zM13.619 7.5h10.444a.283.283 0 0 0 .286-.284V5.798a.283.283 0 0 0-.286-.283H13.619a.283.283 0 0 0-.286.283v1.418c0 .158.127.284.286.284zM5.873 15.977h5.396a.283.283 0 0 0 .286-.284V5.799a.283.283 0 0 0-.286-.283H5.873a.283.283 0 0 0-.286.283v9.896c0 .157.127.283.286.283z" fill="#43B97F"></path></svg>